<svg width="45" height="45" viewBox="0 0 45 45" fill="none" xmlns="http://www.w3.org/2000/svg">
<path d="M44.25 41.25H39.75V13.5C39.75 13.0858 39.4142 12.75 39 12.75H26.25V3C26.25 2.58581 25.9142 2.25 25.5 2.25H6C5.58581 2.25 5.25 2.58581 5.25 3V41.25H0.75C0.335812 41.25 0 41.5858 0 42C0 42.4142 0.335812 42.75 0.75 42.75H44.25C44.6642 42.75 45 42.4142 45 42C45 41.5858 44.6642 41.25 44.25 41.25ZM24.75 41.25H6.75V3.75H24.75V41.25ZM38.25 41.25H26.25V14.25H38.25V41.25Z" fill="#03A06C"/>
<path d="M30 21.75H34.5C34.9142 21.75 35.25 21.4142 35.25 21V16.5C35.25 16.0858 34.9142 15.75 34.5 15.75H30C29.5858 15.75 29.25 16.0858 29.25 16.5V21C29.25 21.4142 29.5858 21.75 30 21.75ZM30.75 17.25H33.75V20.25H30.75V17.25Z" fill="#03A06C"/>
<path d="M30 29.25H34.5C34.9142 29.25 35.25 28.9142 35.25 28.5V24C35.25 23.5858 34.9142 23.25 34.5 23.25H30C29.5858 23.25 29.25 23.5858 29.25 24V28.5C29.25 28.9142 29.5858 29.25 30 29.25ZM30.75 24.75H33.75V27.75H30.75V24.75Z" fill="#03A06C"/>
<path d="M30 36.75H34.5C34.9142 36.75 35.25 36.4142 35.25 36V31.5C35.25 31.0858 34.9142 30.75 34.5 30.75H30C29.5858 30.75 29.25 31.0858 29.25 31.5V36C29.25 36.4142 29.5858 36.75 30 36.75ZM30.75 32.25H33.75V35.25H30.75V32.25Z" fill="#03A06C"/>
<path d="M17.25 21.75H21.75C22.1642 21.75 22.5 21.4142 22.5 21V16.5C22.5 16.0858 22.1642 15.75 21.75 15.75H17.25C16.8358 15.75 16.5 16.0858 16.5 16.5V21C16.5 21.4142 16.8358 21.75 17.25 21.75ZM18 17.25H21V20.25H18V17.25Z" fill="#03A06C"/>
<path d="M17.25 14.25H21.75C22.1642 14.25 22.5 13.9142 22.5 13.5V9C22.5 8.58581 22.1642 8.25 21.75 8.25H17.25C16.8358 8.25 16.5 8.58581 16.5 9V13.5C16.5 13.9142 16.8358 14.25 17.25 14.25ZM18 9.75H21V12.75H18V9.75Z" fill="#03A06C"/>
<path d="M17.25 29.25H21.75C22.1642 29.25 22.5 28.9142 22.5 28.5V24C22.5 23.5858 22.1642 23.25 21.75 23.25H17.25C16.8358 23.25 16.5 23.5858 16.5 24V28.5C16.5 28.9142 16.8358 29.25 17.25 29.25ZM18 24.75H21V27.75H18V24.75Z" fill="#03A06C"/>
<path d="M17.25 36.75H21.75C22.1642 36.75 22.5 36.4142 22.5 36V31.5C22.5 31.0858 22.1642 30.75 21.75 30.75H17.25C16.8358 30.75 16.5 31.0858 16.5 31.5V36C16.5 36.4142 16.8358 36.75 17.25 36.75ZM18 32.25H21V35.25H18V32.25Z" fill="#03A06C"/>
<path d="M9.75 21.75H14.25C14.6642 21.75 15 21.4142 15 21V16.5C15 16.0858 14.6642 15.75 14.25 15.75H9.75C9.33581 15.75 9 16.0858 9 16.5V21C9 21.4142 9.33581 21.75 9.75 21.75ZM10.5 17.25H13.5V20.25H10.5V17.25Z" fill="#03A06C"/>
<path d="M9.75 14.25H14.25C14.6642 14.25 15 13.9142 15 13.5V9C15 8.58581 14.6642 8.25 14.25 8.25H9.75C9.33581 8.25 9 8.58581 9 9V13.5C9 13.9142 9.33581 14.25 9.75 14.25ZM10.5 9.75H13.5V12.75H10.5V9.75Z" fill="#03A06C"/>
<path d="M9.75 29.25H14.25C14.6642 29.25 15 28.9142 15 28.5V24C15 23.5858 14.6642 23.25 14.25 23.25H9.75C9.33581 23.25 9 23.5858 9 24V28.5C9 28.9142 9.33581 29.25 9.75 29.25ZM10.5 24.75H13.5V27.75H10.5V24.75Z" fill="#03A06C"/>
<path d="M9.75 36.75H14.25C14.6642 36.75 15 36.4142 15 36V31.5C15 31.0858 14.6642 30.75 14.25 30.75H9.75C9.33581 30.75 9 31.0858 9 31.5V36C9 36.4142 9.33581 36.75 9.75 36.75ZM10.5 32.25H13.5V35.25H10.5V32.25Z" fill="#03A06C"/>
</svg>
