<svg width="40" height="40" viewBox="0 0 40 40" fill="none" xmlns="http://www.w3.org/2000/svg">
<path d="M27.2802 36.5195H12.7198C12.3962 36.5195 12.1339 36.2571 12.1339 35.9335C12.1339 35.6099 12.3962 35.3476 12.7198 35.3476H27.2802C27.6039 35.3476 27.8661 35.6099 27.8661 35.9335C27.8661 36.2571 27.6039 36.5195 27.2802 36.5195Z" fill="#03A06C"/>
<path d="M36.9875 25.3805C37.3112 25.3805 37.5735 25.1181 37.5735 24.7945V15.1469C37.5735 14.548 37.1289 14.5573 36.3594 14.5609V4.22656C36.3594 3.90297 36.0971 3.64062 35.7735 3.64062H29.5477C29.224 3.64062 28.9617 3.90297 28.9617 4.22656C28.9617 4.55016 29.224 4.8125 29.5477 4.8125H35.1875V14.5609H33.9328L33.9331 7.88023C33.9331 7.55664 33.6708 7.2943 33.3471 7.2943H6.6529C6.32931 7.2943 6.06697 7.55664 6.06697 7.88023L6.06712 14.5609H4.81251V1.17188H16.1174L19.5856 4.64086C19.6955 4.75078 19.8445 4.8125 20 4.8125H26.9945C27.3182 4.8125 27.5805 4.55016 27.5805 4.22656C27.5805 3.90297 27.3182 3.64062 26.9945 3.64062H20.2427L16.7745 0.171641C16.6646 0.0617969 16.5156 0 16.3602 0H4.22657C3.90298 0 3.64064 0.262344 3.64064 0.585938V14.5609C2.95032 14.5697 2.42657 14.548 2.42657 15.1469V39.4141C2.42657 39.7377 2.68892 40 3.01251 40H36.9875C37.3112 40 37.5735 39.7377 37.5735 39.4141V27.3477C37.5735 27.0241 37.3112 26.7617 36.9875 26.7617C36.6638 26.7617 36.4016 27.0241 36.4016 27.3477V38.8281H3.59845V15.7328H10.4524C10.776 15.7328 11.0383 15.4705 11.0383 15.1469C11.0383 14.8233 10.776 14.5609 10.4524 14.5609H7.23908V13.3055H32.761V14.5609H13.0055C12.6819 14.5609 12.4195 14.8233 12.4195 15.1469C12.4195 15.4705 12.6819 15.7328 13.0055 15.7328H36.4016V24.7945C36.4016 25.1181 36.6639 25.3805 36.9875 25.3805ZM7.23884 8.46617H32.7611V9.70469H7.23884V8.46617ZM7.23884 12.1315V10.8929H32.7611V12.1315H7.23884Z" fill="#03A06C"/>
<path d="M12.1339 26.0854C12.1339 30.4228 15.6626 33.9515 20 33.9515C24.2607 33.9515 27.8662 30.3574 27.8662 26.0854C27.8662 21.748 24.3374 18.2192 20 18.2192C15.6626 18.2192 12.1339 21.748 12.1339 26.0854ZM24.2524 31.2516C21.8254 33.2529 18.1569 33.25 15.7324 31.2388V28.6467C15.7324 28.4169 15.8995 28.2081 16.1495 28.1229L18.7437 27.4688H21.2412L23.8352 28.1229C24.0854 28.208 24.2524 28.4169 24.2524 28.6467V31.2516ZM18.1592 24.473V23.6419C18.1592 22.6361 18.985 21.8178 20 21.8178C21.015 21.8178 21.8408 22.6362 21.8408 23.6419V24.473C21.8408 25.4773 21.0174 26.2946 20.0045 26.297H19.9955C18.9825 26.2946 18.1592 25.4773 18.1592 24.473ZM26.6942 26.0854C26.6942 27.5468 26.2221 28.8994 25.4243 30.0014V28.6467C25.4243 27.8997 24.9224 27.2385 24.1756 27.0012C24.1643 26.9976 24.153 26.9944 24.1415 26.9915L22.2113 26.5048C22.7082 25.9704 23.0126 25.2565 23.0126 24.4728V23.6418C23.0126 21.9898 21.6611 20.6458 19.9999 20.6458C18.3388 20.6458 16.9873 21.9898 16.9873 23.6418V24.4728C16.9873 25.2548 17.2905 25.9676 17.7857 26.5017L15.8434 26.9914C15.8319 26.9943 15.8206 26.9976 15.8092 27.0011C15.0623 27.2383 14.5605 27.8995 14.5605 28.6466V29.98C13.7719 28.8818 13.3056 27.5373 13.3056 26.0851C13.3056 22.3939 16.3087 19.3908 19.9999 19.3908C23.6913 19.3911 26.6942 22.3941 26.6942 26.0854Z" fill="#03A06C"/>
</svg>
