<svg width="20" height="21" viewBox="0 0 20 21" fill="none" xmlns="http://www.w3.org/2000/svg">
<circle cx="10" cy="11" r="10" fill="#03A06C"/>
<path d="M8.72 13.634C8.652 13.192 8.66333 12.7953 8.754 12.444C8.856 12.0813 8.992 11.7527 9.162 11.458C9.332 11.152 9.52467 10.8687 9.74 10.608C9.96667 10.3473 10.1763 10.0923 10.369 9.843C10.5617 9.58233 10.7203 9.32167 10.845 9.061C10.981 8.80033 11.049 8.517 11.049 8.211C11.049 7.75767 10.9073 7.37233 10.624 7.055C10.352 6.72633 9.944 6.562 9.4 6.562C9.026 6.562 8.669 6.65267 8.329 6.834C8.00033 7.004 7.70567 7.242 7.445 7.548L6.646 6.817C7.00867 6.409 7.428 6.07467 7.904 5.814C8.39133 5.542 8.94667 5.406 9.57 5.406C10.4313 5.406 11.117 5.64967 11.627 6.137C12.1483 6.613 12.409 7.276 12.409 8.126C12.409 8.5 12.341 8.84 12.205 9.146C12.069 9.452 11.899 9.741 11.695 10.013C11.5023 10.285 11.2927 10.557 11.066 10.829C10.8507 11.0897 10.6467 11.3617 10.454 11.645C10.2727 11.9283 10.131 12.2343 10.029 12.563C9.927 12.8803 9.89867 13.2373 9.944 13.634H8.72ZM9.366 17.204C9.08267 17.204 8.84467 17.1077 8.652 16.915C8.45933 16.711 8.363 16.456 8.363 16.15C8.363 15.8213 8.45933 15.5607 8.652 15.368C8.84467 15.164 9.08267 15.062 9.366 15.062C9.64933 15.062 9.88733 15.164 10.08 15.368C10.284 15.5607 10.386 15.8213 10.386 16.15C10.386 16.456 10.284 16.711 10.08 16.915C9.88733 17.1077 9.64933 17.204 9.366 17.204Z" fill="white"/>
</svg>
