<svg width="25" height="25" viewBox="0 0 25 25" fill="none" xmlns="http://www.w3.org/2000/svg">
<g clip-path="url(#clip0)">
<path d="M8.892 13.5442H10.9255C11.3159 13.5442 11.6336 13.2265 11.6336 12.8362V10.8026C11.6336 10.4122 11.3159 10.0946 10.9255 10.0946H8.892C8.50162 10.0946 8.18399 10.4122 8.18399 10.8026V12.8362C8.18399 13.2265 8.50162 13.5442 8.892 13.5442ZM8.91641 10.827H10.9011V12.8117H8.91641V10.827Z" fill="#939393"/>
<path d="M14.0745 13.5442H16.108C16.4984 13.5442 16.816 13.2265 16.816 12.8362V10.8026C16.816 10.4122 16.4984 10.0946 16.108 10.0946H14.0745C13.6841 10.0946 13.3665 10.4122 13.3665 10.8026V12.8362C13.3665 13.2265 13.6841 13.5442 14.0745 13.5442ZM14.0989 10.827H16.0836V12.8117H14.0989V10.827Z" fill="#939393"/>
<path d="M19.2573 13.5442H21.2909C21.6813 13.5442 21.9989 13.2265 21.9989 12.8362V10.8026C21.9989 10.4122 21.6813 10.0946 21.2909 10.0946H19.2573C18.867 10.0946 18.5493 10.4122 18.5493 10.8026V12.8362C18.5493 13.2265 18.867 13.5442 19.2573 13.5442ZM19.2818 10.827H21.2665V12.8117H19.2818V10.827Z" fill="#939393"/>
<path d="M3.00165 21.9042C3.00165 22.2946 3.31928 22.6122 3.70966 22.6122H5.7432C6.13358 22.6122 6.45121 22.2946 6.45121 21.9042V19.8706C6.45121 19.4802 6.13358 19.1626 5.7432 19.1626H3.70966C3.31928 19.1626 3.00165 19.4802 3.00165 19.8706V21.9042ZM3.73407 19.895H5.71879V21.8798H3.73407V19.895Z" fill="#939393"/>
<path d="M8.18399 21.9042C8.18399 22.2946 8.50162 22.6122 8.892 22.6122H10.9255C11.3159 22.6122 11.6336 22.2946 11.6336 21.9042V19.8706C11.6336 19.4802 11.3159 19.1626 10.9255 19.1626H8.892C8.50162 19.1626 8.18399 19.4802 8.18399 19.8706V21.9042ZM8.91641 19.895H10.9011V21.8798H8.91641V19.895Z" fill="#939393"/>
<path d="M13.3665 21.9042C13.3665 22.2946 13.6841 22.6122 14.0745 22.6122H16.108C16.4984 22.6122 16.816 22.2946 16.816 21.9042V19.8706C16.816 19.4802 16.4984 19.1626 16.108 19.1626H14.0745C13.6841 19.1626 13.3665 19.4802 13.3665 19.8706V21.9042ZM14.0989 19.895H16.0836V21.8798H14.0989V19.895Z" fill="#939393"/>
<path d="M18.5493 21.9042C18.5493 22.2946 18.867 22.6122 19.2573 22.6122H21.2909C21.6813 22.6122 21.9989 22.2946 21.9989 21.9042V19.8706C21.9989 19.4802 21.6813 19.1626 21.2909 19.1626H19.2573C18.867 19.1626 18.5493 19.4802 18.5493 19.8706V21.9042ZM19.2818 19.895H21.2665V21.8798H19.2818V19.895Z" fill="#939393"/>
<path d="M3.70966 18.0782H5.7432C6.13358 18.0782 6.45121 17.7606 6.45121 17.3702V15.3366C6.45121 14.9462 6.13358 14.6286 5.7432 14.6286H3.70966C3.31928 14.6286 3.00165 14.9462 3.00165 15.3366V17.3702C3.00165 17.7606 3.31928 18.0782 3.70966 18.0782ZM3.73407 15.361H5.71879V17.3458H3.73407V15.361Z" fill="#939393"/>
<path d="M8.18399 17.3702C8.18399 17.7606 8.50162 18.0782 8.892 18.0782H10.9255C11.3159 18.0782 11.6336 17.7606 11.6336 17.3702V15.3366C11.6336 14.9462 11.3159 14.6286 10.9255 14.6286H8.892C8.50162 14.6286 8.18399 14.9462 8.18399 15.3366V17.3702ZM8.91641 15.361H10.9011V17.3458H8.91641V15.361Z" fill="#939393"/>
<path d="M13.3665 17.3702C13.3665 17.7606 13.6841 18.0782 14.0745 18.0782H16.108C16.4984 18.0782 16.816 17.7606 16.816 17.3702V15.3366C16.816 14.9462 16.4984 14.6286 16.108 14.6286H14.0745C13.6841 14.6286 13.3665 14.9462 13.3665 15.3366V17.3702ZM14.0989 15.361H16.0836V17.3458H14.0989V15.361Z" fill="#939393"/>
<path d="M18.5493 17.3702C18.5493 17.7606 18.867 18.0782 19.2573 18.0782H21.2909C21.6813 18.0782 21.9989 17.7606 21.9989 17.3702V15.3366C21.9989 14.9462 21.6813 14.6286 21.2909 14.6286H19.2573C18.867 14.6286 18.5493 14.9462 18.5493 15.3366V17.3702ZM19.2818 15.361H21.2665V17.3458H19.2818V15.361Z" fill="#939393"/>
<path d="M24.6338 5.73323C24.8361 5.73323 25 5.56926 25 5.36702V4.54919C25 3.53953 24.1786 2.71814 23.1689 2.71814H22.0524V0.780347C22.0524 0.453247 21.7863 0.187134 21.4592 0.187134H19.8136C19.4865 0.187134 19.2204 0.453247 19.2204 0.780347V2.71814H16.6282V0.780347C16.6282 0.453247 16.3621 0.187134 16.035 0.187134H14.3894C14.0623 0.187134 13.7962 0.453247 13.7962 0.780347V2.71814H11.204V0.780347C11.204 0.453247 10.9379 0.187134 10.6108 0.187134H8.96519C8.63813 0.187134 8.37202 0.453247 8.37202 0.780347V2.71814H5.77983V0.780347C5.77983 0.453247 5.51372 0.187134 5.18662 0.187134H3.54087C3.21377 0.187134 2.94766 0.453247 2.94766 0.780347V2.71814H1.83105C0.821387 2.71814 0 3.53958 0 4.54919V18.3013C0 18.5035 0.163916 18.6675 0.366211 18.6675C0.568506 18.6675 0.732422 18.5035 0.732422 18.3013V8.62634H24.2676V22.9818C24.2676 23.5876 23.7747 24.0804 23.1689 24.0804H1.83105C1.22529 24.0804 0.732422 23.5876 0.732422 22.9818V20.0103C0.732422 19.808 0.568506 19.6441 0.366211 19.6441C0.163916 19.6441 0 19.808 0 20.0103V22.9818C0 23.9915 0.821387 24.8129 1.83105 24.8129H23.1689C24.1786 24.8129 25 23.9915 25 22.9818C25 22.3931 25 7.61169 25 7.07595C25 6.87371 24.8361 6.70974 24.6338 6.70974C24.4315 6.70974 24.2676 6.87371 24.2676 7.07595V7.89392H0.732422V4.54919C0.732422 3.94338 1.22529 3.45056 1.83105 3.45056H2.94761V4.63049C2.94761 5.41125 3.58281 6.04651 4.36362 6.04651C5.14443 6.04651 4.36362 6.04651 4.36362 6.04651C5.14443 6.04651 5.77964 5.41125 5.77964 4.63049V3.45056H8.37183V4.63049C8.37183 5.4113 9.00708 6.04651 9.78784 6.04651C10.5686 6.04651 11.2039 5.4113 11.2039 4.63049V3.45056H13.796V4.63049C13.796 5.41106 14.4316 6.04651 15.2121 6.04651C15.9928 6.04651 16.6281 5.4113 16.6281 4.63049V3.45056H19.2203V4.63049C19.2203 5.4113 19.8555 6.04651 20.6363 6.04651C21.4171 6.04651 22.0523 5.4113 22.0523 4.63049V3.45056H23.1689C23.7747 3.45056 24.2676 3.94338 24.2676 4.54919V5.36697C24.2676 5.56926 24.4315 5.73323 24.6338 5.73323ZM3.68003 0.919605H5.04727V4.63054C5.04727 5.00749 4.74058 5.31414 4.36362 5.31414C3.98667 5.31414 3.68003 5.00749 3.68003 4.63054C3.68003 3.94929 3.68003 1.61653 3.68003 0.919605ZM10.4715 4.63054C10.4715 5.00749 10.1648 5.31414 9.78789 5.31414C9.41094 5.31414 9.1043 5.00749 9.1043 4.63054C9.1043 3.94929 9.1043 1.61658 9.1043 0.919605H10.4715V4.63054ZM15.8957 4.63054C15.8957 5.00749 15.5891 5.31414 15.2121 5.31414C14.8343 5.31414 14.5285 5.00637 14.5285 4.63054C14.5285 2.11965 14.5285 3.50354 14.5285 0.919605H15.8957V4.63054ZM21.32 4.63054C21.32 5.00749 21.0133 5.31414 20.6364 5.31414C20.2594 5.31414 19.9528 5.00749 19.9528 4.63054C19.9528 4.27419 19.9527 2.43718 19.9527 0.919605H21.32V4.63054Z" fill="#939393"/>
</g>
<defs>
<clipPath id="clip0">
<rect width="25" height="25" fill="white"/>
</clipPath>
</defs>
</svg>
