<svg width="65" height="66" viewBox="0 0 65 66" fill="none" xmlns="http://www.w3.org/2000/svg">
<path d="M34.3376 33.5612H30.5897V33.8757H34.3376V33.5612Z" fill="#03A06C"/>
<path d="M33.9578 34.1003H30.9215V34.6844H33.9578V34.1003Z" fill="#03A06C"/>
<path d="M34.6233 32.7524H30.2587V33.3365H34.6233V32.7524Z" fill="#03A06C"/>
<path d="M34.3376 32.2133H30.5897V32.5278H34.3376V32.2133Z" fill="#03A06C"/>
<path d="M30.9215 31.2698H31.7755C31.7755 30.5958 31.6331 29.6972 31.2062 29.3378L30.9215 29.1581C30.6843 29.1581 30.4945 29.2929 30.3522 29.4726C29.8304 30.0567 30.4945 30.9103 30.9215 31.2698Z" fill="#03A06C"/>
<path d="M50.4195 33.3814C48.3321 30.3262 45.5804 32.4828 42.3544 30.5508C42.0698 30.6856 41.7377 30.7306 41.4056 30.7306C42.307 31.8538 42.8763 33.1567 43.1609 34.5495C44.2521 36.1221 46.4818 36.3467 48.5693 35.9423C47.9525 34.9539 46.9088 34.3249 45.7228 34.1452C44.3944 33.7857 43.3032 33.2466 42.9712 31.9886C43.9674 34.28 47.4307 33.9655 50.4195 33.3814Z" fill="#03A06C"/>
<path d="M33.0561 35.4481C32.9612 35.4481 32.9138 35.538 32.9138 35.6728C32.9138 35.8076 32.9612 35.8974 33.0561 35.8974C33.1984 35.8974 33.1984 35.7626 33.1984 35.6728C33.1984 35.5829 33.1984 35.4481 33.0561 35.4481Z" fill="#03A06C"/>
<path d="M31.9649 31.2698H32.8663C32.9138 30.506 33.0086 29.6074 33.5305 29.203L32.8663 29.4277L32.724 29.203C32.6291 29.2479 32.5342 29.2929 32.4393 29.2929C32.3445 29.2929 32.2496 29.2479 32.1547 29.203L32.0124 29.3827L31.3482 29.1581C31.8226 29.5624 31.9649 30.506 31.9649 31.2698Z" fill="#03A06C"/>
<path d="M34.5746 56.2504L34.2899 55.8011L33.9104 55.9359L34.5746 56.2504Z" fill="#03A06C"/>
<path d="M32.4873 50.8589L30.5897 51.6227L32.772 56.0707L34.7171 55.2619L32.4873 50.8589Z" fill="#03A06C"/>
<path d="M43.7776 27.7652C45.9125 27.6753 46.1497 29.8319 44.9162 31.045C45.3432 31.09 45.8176 31.1349 46.2446 31.1349C47.2883 31.1798 48.2846 31.2247 49.186 31.7639C50.8464 31.4045 52.3171 30.7305 53.1711 29.4276C51.3683 29.9218 48.4743 29.4725 46.3395 30.416C48.8064 28.7986 53.0287 30.0117 54.7841 26.2376C51.8427 27.4058 48.5692 26.7768 46.3869 28.9334C47.4781 27.4507 48.5218 27.1811 50.5618 26.6869C52.7915 26.4173 54.6417 24.9347 55.211 22.8679C52.1273 25.1593 48.1897 24.1259 45.6278 27.5855C46.5767 25.2941 48.9487 24.6202 51.2734 23.8564C53.1236 23.1824 54.3571 22.0592 54.4994 20.4417C50.2771 23.2723 46.1971 22.5983 44.7739 26.9115C45.2009 23.5868 48.332 22.8679 51.6055 21.4751C52.5069 20.9809 53.4557 19.9475 53.2185 18.0605C50.5143 21.1157 43.5404 20.7113 43.7776 27.7652Z" fill="#03A06C"/>
<path d="M31.5386 35.7178H31.681L31.5861 35.5381L31.5386 35.7178Z" fill="#03A06C"/>
<path d="M15.9774 58.5418L15.5978 57.5533C15.5029 57.2388 15.1709 57.104 14.8388 57.1939L14.5541 57.2838C14.222 57.3736 14.0797 57.6881 14.1746 58.0026L14.7913 59.7099L15.5978 59.036L14.9811 60.0694L15.0285 60.2042L15.3132 61.0129C15.3132 61.0129 16.0248 60.1143 15.8825 59.3505C15.7876 58.9911 16.1197 58.8563 15.9774 58.5418Z" fill="#03A06C"/>
<path d="M24.3743 50.9937L15.8823 47.1747L15.6451 47.7139L25.0385 51.9822L24.3743 50.9937Z" fill="#03A06C"/>
<path d="M32.4399 28.5291C32.2976 28.5291 32.1553 28.6638 32.1553 28.7986C32.1553 28.9334 32.2976 29.0682 32.4399 29.0682C32.5822 29.0682 32.7246 28.9334 32.7246 28.7986C32.7246 28.6638 32.5822 28.5291 32.4399 28.5291Z" fill="#03A06C"/>
<path d="M27.5055 10.827C27.3158 10.6023 27.0786 10.4675 26.7939 10.4675L26.5093 10.7371C25.94 11.1864 25.8451 12.085 25.7976 12.9386C26.0823 12.9386 26.3669 12.9836 26.6516 13.0285L26.7939 13.0734C27.2683 12.6241 28.2646 11.7255 27.5055 10.827Z" fill="#03A06C"/>
<path d="M23.3316 13.2531V13.7024C24.5651 13.6126 25.5614 13.8372 26.6525 13.8372V13.2082C25.5614 13.1183 24.4228 13.1183 23.3316 13.2531Z" fill="#03A06C"/>
<path d="M20.721 53.3749C21.148 52.5661 21.4801 51.7125 21.6224 50.8139L18.254 49.3312C18.254 52.2516 17.1629 54.6329 15.1703 56.8793C15.4075 56.9243 15.6447 57.0141 15.7871 57.1939L18.1117 56.3851C18.4912 56.1155 18.8233 55.846 19.1554 55.5315L18.3489 54.588L18.5861 54.4082L19.3926 55.3068C19.5824 55.0822 19.7722 54.9025 19.9145 54.6778L19.0131 53.6444L19.2503 53.4647L20.1043 54.4532C20.2466 54.2285 20.4363 53.9589 20.5787 53.7343L19.4875 52.5212L19.7247 52.3415L20.721 53.3749Z" fill="#03A06C"/>
<path d="M33.9105 31.4944H30.9691V31.9886H33.9105V31.4944Z" fill="#03A06C"/>
<path d="M32.203 28.3044H32.6774L32.5825 28.0348L32.9146 28.0798V27.6754L32.5825 27.7652L32.6774 27.4507H32.203L32.2979 27.7652L31.9658 27.6754V28.0798L32.2979 28.0348L32.203 28.3044Z" fill="#03A06C"/>
<path d="M32.3934 56.1605L31.8241 56.3852C31.7767 56.6547 31.6818 56.9243 31.6343 57.149C31.9664 57.0591 32.2511 56.9692 32.6306 56.9692C32.9627 56.9692 33.2948 57.0142 33.5794 57.149C33.4846 56.8345 33.3897 56.5649 33.3422 56.2504L32.6306 56.52L32.3934 56.1605Z" fill="#03A06C"/>
<path d="M43.6359 44.7486C43.7307 44.0747 43.6833 43.4007 43.5884 42.7268C43.0666 42.0529 42.5921 41.2891 42.2126 40.5253C41.7856 41.2891 41.2638 42.0079 40.647 42.6369C41.1689 43.6254 41.8331 44.479 42.6396 45.2428L43.6359 44.7486Z" fill="#03A06C"/>
<path d="M33.9573 31.2698C34.3842 30.9103 35.001 30.1016 34.5266 29.4726C34.3368 29.2929 34.147 29.1581 33.9098 29.1581L33.6726 29.3378C33.2456 29.6972 33.1033 30.5509 33.1033 31.2698H33.9573Z" fill="#03A06C"/>
<path d="M34.9065 41.8281H29.9726V42.3223H34.9065V41.8281Z" fill="#03A06C"/>
<path d="M29.9251 22.0592L29.7353 21.3403C29.6879 21.1156 29.593 20.891 29.4981 20.6214C29.3558 21.0707 29.1186 21.52 28.8339 21.9244L28.3595 22.6432L28.2646 21.7896C28.2646 21.6548 28.2172 21.5649 28.2172 21.4301C28.1223 21.7896 27.9326 22.1041 27.6953 22.3737L27.6005 22.4635C27.553 23.0027 27.4581 23.5418 27.3633 23.8563C28.0749 23.7215 28.9763 22.778 29.3084 22.0142C29.4981 22.5085 29.7353 22.9128 30.1149 23.3172C30.6842 22.6432 30.9688 21.8345 30.9688 20.9809C31.3009 21.4301 31.8702 21.6997 32.4395 21.6997C33.0088 21.6997 33.5781 21.4301 33.9102 20.9809C33.9102 21.8345 34.2423 22.6432 34.7642 23.3172C35.1437 22.9577 35.3809 22.5085 35.5707 22.0142C35.9028 22.7331 36.8041 23.6766 37.5158 23.8563C37.4683 23.5418 37.326 23.0027 37.2786 22.4635V22.4186C37.0414 22.1041 36.899 21.7896 36.7567 21.4751C36.7567 21.6099 36.7093 21.6997 36.7093 21.8345L36.6144 22.6882L36.14 21.9693C35.8553 21.5649 35.6181 21.1156 35.4758 20.6664C35.3809 20.891 35.3335 21.1156 35.2386 21.3852L35.0488 22.1041L34.6218 21.4301C34.3372 20.891 34.2423 20.3069 34.2897 19.7228C33.9102 20.0823 33.4358 20.3968 32.9614 20.6214C32.8665 21.0258 32.6767 21.3852 32.4395 21.6997C32.2023 21.3852 32.0125 20.9809 31.9177 20.6214C31.4432 20.3968 31.0163 20.0823 30.5893 19.7228C30.6842 20.3069 30.5418 20.891 30.2572 21.4301L29.9251 22.0592Z" fill="#03A06C"/>
<path d="M35.9984 24.6203C35.9984 24.8449 35.951 25.0247 35.9036 25.2493C36.2831 25.474 36.6626 25.7435 36.9947 26.058C37.0896 25.9232 37.1845 25.7435 37.2319 25.5638C36.7575 25.2493 36.378 24.9797 35.9984 24.6203Z" fill="#03A06C"/>
<path d="M29.2135 23.6767C29.2135 24.126 29.2609 24.5753 29.3558 25.0246C29.8302 24.755 30.3521 24.5753 30.9214 24.4854C31.3483 24.0361 31.5855 23.4521 31.6804 22.868C31.7753 23.3622 31.9176 23.8564 32.06 24.3507C32.1074 24.3507 32.819 24.3507 32.8665 24.3507C33.0088 23.8564 33.1511 23.3622 33.246 22.868C33.3409 23.4521 33.5781 24.0361 34.0051 24.4854C34.5269 24.6202 35.0488 24.7999 35.5706 25.0246C35.6655 24.5753 35.713 24.126 35.6655 23.6767C36.3772 24.7999 37.6106 25.5637 38.5595 25.429C38.2748 25.0695 37.9902 24.6652 37.8004 24.2608L37.5158 24.2159C36.7567 23.9463 36.0925 23.4521 35.6655 22.7781C35.5232 23.0926 35.286 23.3622 35.0488 23.5869L34.8116 23.8115L34.5744 23.5869C34.1 23.0477 33.8153 22.3738 33.7204 21.6998C33.3883 22.2839 31.5381 22.2839 31.2535 21.6998C31.1586 22.4187 30.8739 23.0477 30.3995 23.5869L30.1623 23.8115L29.9251 23.5869C29.6879 23.3622 29.4507 23.0477 29.3083 22.7781C28.8814 23.4521 28.2172 23.9463 27.4581 24.2159L27.0786 24.3057C26.8888 24.7101 26.6516 25.1144 26.3195 25.4739C27.2684 25.6087 28.5493 24.8449 29.2135 23.6767Z" fill="#03A06C"/>
<path d="M32.4878 9.56891C32.3929 9.56891 32.3455 9.56891 32.2506 9.56891V9.61384C32.2031 10.1979 32.1557 10.782 32.0134 11.3661C32.1557 11.3661 32.3455 11.3661 32.4878 11.3661C32.6301 11.3661 32.8199 11.3661 32.9622 11.3661C32.8199 10.782 32.725 10.1979 32.725 9.61384V9.56891C32.6301 9.61384 32.5352 9.56891 32.4878 9.56891Z" fill="#03A06C"/>
<path d="M28.644 20.1273L28.1696 19.4084C27.8375 18.9591 27.4105 18.5547 26.9361 18.2402C27.2208 18.9142 27.2208 19.633 27.031 20.307C27.3157 20.936 27.458 21.6099 27.4105 22.2389C27.885 21.6099 28.0747 20.8461 28.0747 20.0823C28.3594 20.6215 28.5017 21.2056 28.5966 21.7896C29.071 21.1606 29.3082 20.3968 29.4031 19.633C29.6877 20.1273 29.925 20.7113 30.0673 21.2954C30.4468 20.7113 30.3519 19.7678 30.2096 18.8692C30.7789 19.5432 31.4905 20.0823 32.297 20.4418C31.9175 19.5881 31.3956 18.8243 30.684 18.1953C29.9724 18.2852 29.2608 18.1953 28.5966 17.9257C28.7864 18.375 28.8338 18.8243 28.7864 19.3185L28.644 20.1273Z" fill="#03A06C"/>
<path d="M34.2892 18.1954C33.625 18.8244 33.0557 19.6331 32.6762 20.4418C33.4827 20.0375 34.1943 19.4983 34.7636 18.8693C34.6213 19.723 34.5264 20.7114 34.906 21.2955C35.0483 20.7114 35.2855 20.1722 35.5702 19.6331C35.6176 20.3969 35.9022 21.1607 36.3767 21.7897C36.4241 21.2056 36.6139 20.6215 36.8985 20.0824C36.8511 20.8462 37.0883 21.61 37.5627 22.239C37.5627 21.5651 37.6576 20.8911 37.9422 20.307C37.705 19.6331 37.7525 18.8693 38.0371 18.2403C37.5627 18.5548 37.1357 18.9592 36.8036 19.4085L36.3292 20.1273L36.1869 19.2737C36.1395 18.8244 36.1869 18.3302 36.3767 17.8809C35.7125 18.1954 35.0009 18.2852 34.2892 18.1954Z" fill="#03A06C"/>
<path d="M37.3255 26.1028C37.2781 26.1478 37.2781 26.1927 37.2306 26.2376C37.5627 26.5971 37.8948 26.9565 38.132 27.4058H39.4129V28.8435C40.0771 29.3377 40.6464 29.8769 41.1683 30.461C41.6427 30.461 42.0697 30.3711 42.4966 30.1465C40.2669 29.787 40.6464 26.7768 37.3255 26.1028Z" fill="#03A06C"/>
<path d="M38.9862 25.6985L38.6541 25.7434C38.5592 25.7434 38.4643 25.7434 38.3694 25.7434C38.0848 25.7434 37.8001 25.6985 37.5155 25.5637C37.5155 25.6086 37.468 25.6985 37.4206 25.7434C39.3657 26.1478 40.1248 27.316 40.7415 28.2595C40.9313 28.529 41.121 28.8436 41.3583 29.0682C41.5955 29.0682 41.8327 28.9783 42.0224 28.8885C40.9313 28.6189 41.0262 26.7319 38.9862 25.6985Z" fill="#03A06C"/>
<path d="M31.3958 24.3956C31.4907 24.3956 31.633 24.3506 31.7279 24.3506C31.6805 24.2608 31.633 24.126 31.633 24.0361C31.5381 24.1709 31.4907 24.3057 31.3958 24.3956Z" fill="#03A06C"/>
<path d="M29.0713 25.2043C29.0238 25.0246 28.9764 24.8 28.9764 24.5753C28.6443 24.9348 28.2173 25.2493 27.7903 25.4739C27.8378 25.6536 27.9327 25.8333 28.0276 25.9681C28.3122 25.6985 28.6443 25.429 29.0713 25.2043Z" fill="#03A06C"/>
<path d="M33.2466 24.3955C33.3415 24.3955 33.4838 24.3955 33.5787 24.4404C33.4838 24.3056 33.3889 24.2158 33.3415 24.081C33.2941 24.1709 33.2941 24.2607 33.2466 24.3955Z" fill="#03A06C"/>
<path d="M33.9578 41.0195V36.7063H30.9215V41.0195H33.9578ZM33.2462 37.1107H33.4834V40.4354H33.2462V37.1107ZM32.3448 37.1107H32.582V40.4354H32.3448V37.1107ZM31.4434 37.1107H31.6806V40.4354H31.4434V37.1107Z" fill="#03A06C"/>
<path d="M55.2585 23.7216C58.105 22.194 60.8092 19.678 60.8092 15.7692C60.145 16.5779 59.386 17.3866 58.5795 18.1055C57.5357 19.5881 56.2074 20.8012 54.5944 21.6998C54.1199 22.7781 53.0288 23.5868 51.4632 24.1709L51.4158 24.2159C52.7441 23.9463 53.9776 23.4071 55.0688 22.6883L55.8278 22.1042L55.5432 23.0028C55.4958 23.2274 55.4009 23.497 55.2585 23.7216Z" fill="#03A06C"/>
<path d="M34.8121 34.909H30.1154V36.4366H34.8121V34.909ZM30.9694 35.9873C30.8745 35.9873 30.7796 35.9873 30.7322 35.9424V35.7627H30.7796L30.827 35.8974C30.8745 35.8974 30.8745 35.8974 30.9219 35.8974C30.9694 35.8974 31.0643 35.8525 31.0643 35.8076C31.0643 35.7627 31.0168 35.7177 30.9219 35.7177H30.827V35.6728H30.9219C30.9694 35.6728 31.0168 35.6728 31.0168 35.5829C31.0168 35.4931 31.0168 35.4931 30.9219 35.4931H30.8745C30.827 35.4931 30.827 35.4931 30.7796 35.4931L30.827 35.538H30.7796V35.3583C30.8745 35.3134 30.9219 35.3134 31.0168 35.3134C31.1591 35.3134 31.254 35.3583 31.254 35.4931C31.1591 35.538 31.1591 35.6279 31.1591 35.7177C31.1591 35.7627 31.2066 35.8076 31.254 35.8076C31.2066 35.9424 31.1117 36.0322 30.9694 35.9873ZM32.0131 35.9424V35.9873H31.681V35.9424H31.7759L31.7284 35.8525H31.4912L31.4438 35.8974H31.5387V35.9424H31.3015V35.8974L31.3963 35.8525L31.6335 35.3134H31.7759L32.0131 35.8525V35.9424ZM32.7722 35.9873H32.5349L32.2977 35.7177V35.8974H32.3926V35.9424H32.0605V35.8974H32.1554V35.4481L32.0605 35.4032V35.3583H32.3926V35.4032L32.2977 35.4481V35.6279L32.4875 35.4032H32.4401V35.3583H32.7247V35.4032L32.6298 35.4481L32.4875 35.6279L32.7247 35.8974L32.8196 35.9424V35.9873H32.7722ZM33.0568 35.9873C32.867 35.9873 32.7247 35.8974 32.7247 35.7177V35.6728C32.6773 35.538 32.8196 35.3583 32.9619 35.3583C33.0094 35.3583 33.0094 35.3583 33.0568 35.3583C33.2466 35.3583 33.3889 35.538 33.3889 35.7177C33.3889 35.8525 33.2466 35.9873 33.0568 35.9873ZM34.1954 35.4032L34.1005 35.4481V35.8974H34.1954V35.9424H33.8633V35.8974H33.9582V35.6728H33.7684V35.8974H33.8633V35.9424H33.5312V35.8974H33.6261V35.4481L33.5312 35.4032V35.3583H33.8633V35.4032L33.721 35.4481V35.6279H33.9108V35.4481L33.8159 35.4032V35.3583H34.148L34.1954 35.4032C34.1954 35.4032 34.1954 35.3583 34.1954 35.4032Z" fill="#03A06C"/>
<path d="M34.5265 41.244H30.3516V41.6035H34.5265V41.244Z" fill="#03A06C"/>
<path d="M60.5724 15.5895L61.1417 14.9155V15.7692C61.1417 16.5779 60.9994 17.4316 60.7622 18.2403C62.6598 16.0388 63.7984 13.3879 62.897 9.3443C62.4701 10.827 61.2366 12.714 59.7659 14.7807C59.671 15.6344 59.4338 16.4431 59.0543 17.2069C59.5761 16.7127 60.0505 16.1735 60.5724 15.5895Z" fill="#03A06C"/>
<path d="M52.4133 21.2954C53.0775 20.9809 53.7417 20.6215 54.3584 20.2171L54.9277 19.8577L54.8803 20.5316C54.8803 20.7563 54.8328 20.9809 54.7379 21.2505C57.2524 19.678 59.2923 17.6112 59.4821 14.1068C57.7742 16.1286 56.3984 17.7011 53.5519 19.049C53.5045 19.8577 53.1249 20.7113 52.4133 21.2954Z" fill="#03A06C"/>
<path d="M54.927 26.6869C58.4377 25.0246 61.8535 22.0143 62.0433 18.1055C61.4265 18.8243 60.7149 19.4983 59.9558 20.0374C58.7223 21.8346 57.0144 23.2723 55.0219 24.2608C54.3577 25.3391 53.314 26.1927 52.0805 26.6869C52.9819 26.5522 53.8358 26.3275 54.6898 26.0579L55.4489 25.7884L55.1168 26.5072C55.0219 26.5072 54.9744 26.5971 54.927 26.6869Z" fill="#03A06C"/>
<path d="M60.0504 19.5433C60.6671 19.0491 61.2839 18.5099 61.8057 17.8809L62.4225 17.162L62.375 18.1056C62.3276 19.3186 61.9481 20.5317 61.3313 21.61C63.1341 19.5433 64.6997 17.6113 63.7983 13.4778C63.656 13.7474 63.4662 14.0619 63.2764 14.3764C62.8494 15.8591 62.0904 17.2519 61.0467 18.4201L60.0504 19.5433Z" fill="#03A06C"/>
<path d="M39.0811 28.9783V27.7203H37.9425C36.8988 25.8782 34.9063 24.71 32.6765 24.71H32.297C30.0672 24.71 28.0747 25.8782 27.031 27.7203H25.9872V28.9783C21.7175 31.9436 20.8161 37.6496 23.9472 41.6933C24.5165 42.4121 25.2282 43.0861 25.9872 43.6252V44.8832H27.031C28.0747 46.7253 30.0672 47.8935 32.297 47.8935H32.6765C34.9063 47.8935 36.8988 46.7253 37.9425 44.8832H39.0811V43.6252C43.3509 40.6599 44.2523 34.9539 41.1211 30.9103C40.5518 30.1465 39.8402 29.5174 39.0811 28.9783ZM40.6942 41.3788C40.1723 42.0976 39.5081 42.6817 38.749 43.2209L38.5593 43.3556V44.389H37.6104L37.4681 44.6586C36.5193 46.3659 34.6691 47.4442 32.6291 47.4442H32.2495C30.2095 47.4442 28.3593 46.3659 27.4105 44.6586L27.2682 44.389H26.4142V43.3556L26.2244 43.2209C22.2393 40.3903 21.3379 34.9988 24.3268 31.1798C24.8486 30.461 25.5128 29.8769 26.2719 29.3377L26.4616 29.2029V28.1696H27.3156L27.4579 27.9C28.4068 26.1927 30.257 25.1144 32.297 25.1144H32.6765C34.7165 25.1144 36.5667 26.1927 37.5156 27.9L37.6579 28.1696H38.6067V29.2029L38.7965 29.3377C42.829 32.1683 43.683 37.5598 40.6942 41.3788Z" fill="#03A06C"/>
<path d="M22.335 14.6909C24.4225 14.2866 24.9918 15.0054 25.8457 15.3649C26.6522 15.7243 28.3601 15.8591 29.3564 13.9271C28.5499 14.2416 27.6959 14.3315 26.842 14.1967C25.7034 14.0619 24.5173 13.9721 23.3313 13.9721C22.8569 14.017 22.4773 14.2866 22.335 14.6909Z" fill="#03A06C"/>
<path d="M35.4294 42.5469H29.4992V43.2658H35.4294V42.5469Z" fill="#03A06C"/>
<path d="M32.724 50.0052C33.0561 49.8255 33.3882 49.6907 33.7203 49.5559C33.3882 49.1066 33.1035 48.6573 32.8189 48.208C32.7714 48.208 32.6765 48.208 32.6291 48.208H32.2496C32.2021 48.208 32.1072 48.208 32.0598 48.208C31.87 48.6124 31.6328 48.9718 31.3482 49.3312L32.2496 49.7356C32.297 49.6008 32.3919 49.3312 32.4393 49.1964C32.5817 49.466 32.6291 49.7356 32.724 50.0052Z" fill="#03A06C"/>
<path d="M39.1286 15.3649C39.9825 15.0054 40.5518 14.3315 42.6393 14.6909C42.4969 14.2866 42.1174 14.017 41.643 13.9721C40.4569 13.9721 39.3183 14.0619 38.1323 14.1967C37.2783 14.3315 36.4244 14.1967 35.6179 13.9271C36.6142 15.8591 38.3221 15.6794 39.1286 15.3649Z" fill="#03A06C"/>
<path d="M10.9492 44.6138L14.2701 46.0964L14.792 45.063L11.471 43.5804L10.9492 44.6138Z" fill="#03A06C"/>
<path d="M15.5046 43.7151L12.1836 42.2324L11.6143 43.2658L14.9827 44.7485L15.5046 43.7151Z" fill="#03A06C"/>
<path d="M15.9304 42.9063L12.562 41.3787L12.3248 41.9628L15.6457 43.4455L15.9304 42.9063Z" fill="#03A06C"/>
<path d="M45.7232 38.3236C45.6283 37.5149 45.2487 36.7062 44.632 36.1221C44.0627 35.9424 43.5883 35.583 43.2562 35.1337C43.3511 35.9873 43.3511 36.841 43.2087 37.6946C43.9204 38.1889 44.8218 38.4135 45.7232 38.3236Z" fill="#03A06C"/>
<path d="M18.7295 36.4366C18.5398 36.4366 18.35 36.4815 18.1128 36.4815C17.496 36.4815 16.9267 36.4366 16.31 36.3018L15.8356 36.2119L15.9779 35.9873C15.0765 36.1221 14.1751 36.2119 13.2737 36.2119C12.5147 36.2119 11.7556 36.167 10.9965 36.0322C9.85793 36.3467 9.00398 36.7511 8.71933 37.425C12.3723 38.4135 15.5509 37.9193 18.7295 36.4366Z" fill="#03A06C"/>
<path d="M10.8076 40.6151L10.1908 40.3455C9.90618 40.2107 9.52665 40.3455 9.38432 40.6151C9.38432 40.66 9.33688 40.7049 9.33688 40.7498H9.38432C9.52665 40.7498 9.66898 40.7948 9.76386 40.8397L10.5229 41.1991L10.8076 40.6151Z" fill="#03A06C"/>
<path d="M17.448 34.5046C16.7364 34.5945 16.0248 34.5945 15.2657 34.6394C13.0834 34.6844 10.9485 34.2351 8.95599 33.3365C8.38669 33.4713 7.86483 33.651 7.39041 33.9655C9.05087 35.6728 12.4192 36.3018 16.262 35.6279C16.5467 35.1786 16.9736 34.7742 17.448 34.5046Z" fill="#03A06C"/>
<path d="M8.33939 43.4456L9.19334 43.85L9.7152 42.8166L8.86125 42.4123C8.5766 42.2775 8.19706 42.4123 8.05474 42.6818C7.91241 42.9514 8.0073 43.3108 8.33939 43.4456Z" fill="#03A06C"/>
<path d="M10.3804 41.4237L9.62135 41.0643C9.3367 40.9295 8.95716 41.0643 8.81484 41.3339C8.67251 41.6034 8.81484 41.9629 9.09949 42.0977L9.85855 42.4571L10.3804 41.4237Z" fill="#03A06C"/>
<path d="M44.917 44.1195C44.5849 43.85 44.2528 43.5355 43.9682 43.176C44.0156 43.6253 44.0156 44.1195 44.0156 44.5688C44.3003 44.434 44.6324 44.2543 44.917 44.1195Z" fill="#03A06C"/>
<path d="M19.869 44.2993L20.2011 44.434L20.3908 44.2993L20.9127 44.5688C20.8653 44.1195 20.8653 43.6253 20.9601 43.176C20.6755 43.5804 20.296 43.9398 19.869 44.2993Z" fill="#03A06C"/>
<path d="M16.0241 46.9051L24.0417 50.4994L22.8082 48.6573L16.5934 45.8717L16.0241 46.9051Z" fill="#03A06C"/>
<path d="M17.2582 44.5239L16.7364 45.5572L22.4294 48.1182L21.1485 46.2761L17.2582 44.5239Z" fill="#03A06C"/>
<path d="M42.4026 40.1208C43.0194 41.5585 43.9682 42.9064 45.2017 43.9398C45.7235 43.6702 46.2928 43.4006 46.8147 43.0861C46.7673 42.6817 46.7198 42.2324 46.5775 41.8281C45.1542 40.9744 43.9208 39.9411 42.877 38.728C42.8296 39.2222 42.6398 39.6715 42.4026 40.1208Z" fill="#03A06C"/>
<path d="M46.0548 38.4135C47.8576 39.4918 49.6603 40.3455 51.7952 40.5701C52.3645 40.2556 52.9338 39.986 53.5031 39.6715C52.7915 39.0425 51.985 38.5034 51.131 38.1439C49.0436 37.8744 47.051 37.2004 45.2008 36.212C45.2008 36.212 45.2008 36.212 45.1534 36.212C45.6752 36.7961 45.9599 37.5599 46.0548 38.3236V38.4135Z" fill="#03A06C"/>
<path d="M43.0669 38.4135C44.6324 40.1208 46.2455 41.5586 48.4278 42.3224C49.0445 42.0078 49.7087 41.6484 50.3254 41.3339C50.0882 40.9745 49.8036 40.66 49.4715 40.3904C48.1906 39.9411 46.9571 39.357 45.8185 38.6382H45.771C45.6287 38.6382 45.4864 38.6382 45.3915 38.6831C44.585 38.6382 43.8259 38.4584 43.1617 38.0541C43.1143 38.1889 43.0669 38.2787 43.0669 38.4135Z" fill="#03A06C"/>
<path d="M48.0481 42.502C47.716 42.3672 47.3839 42.2324 47.0518 42.0527C47.0993 42.3223 47.1467 42.6368 47.1941 42.9064L48.0481 42.502Z" fill="#03A06C"/>
<path d="M20.1527 44.7935L17.6857 43.6702L17.4011 44.2094L20.8169 45.7819L20.2476 44.9282L20.1527 44.7935Z" fill="#03A06C"/>
<path d="M32.345 50.3197L32.0604 49.9154L30.0678 49.0168L31.3013 50.814C31.6334 50.6342 31.9655 50.4994 32.345 50.3197Z" fill="#03A06C"/>
<path d="M41.2156 44.0746C41.2631 44.7935 41.1207 45.5123 40.8361 46.1413C41.3579 45.8718 41.8324 45.6471 42.3542 45.3775C41.9273 44.9732 41.5477 44.5239 41.2156 44.0746Z" fill="#03A06C"/>
<path d="M30.3528 50.0501L29.7835 49.1965L29.6886 49.0617L23.284 46.1862L23.9482 47.1747L30.3528 50.0501Z" fill="#03A06C"/>
<path d="M24.0894 43.5804C24.0419 44.6587 24.0894 45.737 24.4215 46.3211L24.6112 46.4109C24.9908 45.9616 25.3229 45.5123 25.6075 45.0181V44.8833V43.7601C25.228 43.4905 24.8484 43.176 24.5163 42.8166C24.4215 43.0862 24.2791 43.3108 24.0894 43.5804Z" fill="#03A06C"/>
<path d="M26.8408 45.1529H25.9394C25.7971 45.3326 25.6547 45.5123 25.5124 45.737C25.5124 46.1413 25.5599 46.5457 25.6547 46.9051L26.6985 47.3544C26.9831 46.9501 27.2678 46.5457 27.505 46.0964C27.2678 45.8268 27.0306 45.5123 26.8408 45.1529Z" fill="#03A06C"/>
<path d="M23.3308 45.8718L23.995 46.1863C23.8526 45.5123 23.7578 44.7935 23.8052 44.0746C23.4731 44.5239 23.0936 44.9282 22.7141 45.3326L23.141 45.5123L23.3308 45.8718Z" fill="#03A06C"/>
<path d="M40.884 43.5804C40.7417 43.3557 40.5994 43.0862 40.457 42.8615C40.125 43.176 39.7929 43.4905 39.4133 43.7601V45.1529C39.698 45.5573 40.0301 45.9616 40.4096 46.3211C40.7891 45.6921 40.9315 44.7485 40.884 43.5804Z" fill="#03A06C"/>
<path d="M38.4644 10.7371L38.1323 10.5125C37.8477 10.5125 37.563 10.6472 37.4207 10.8719C36.7091 11.7705 37.6579 12.6691 38.1323 13.0734L38.2746 13.0285C38.5593 12.9836 38.8439 12.9836 39.1286 12.9386C39.176 12.04 39.0337 11.1415 38.4644 10.7371Z" fill="#03A06C"/>
<path d="M35.9502 48.5225C35.9502 48.4775 35.9502 48.3877 35.9502 48.3427C35.6655 48.163 35.4283 47.9384 35.1437 47.7587C34.5269 48.0282 33.8627 48.163 33.1985 48.208C33.4358 48.6573 33.7204 49.0616 34.0051 49.466C34.6692 49.1065 35.3334 48.792 35.9502 48.5225Z" fill="#03A06C"/>
<path d="M39.0336 47.0399C39.2234 46.6356 39.3657 46.1863 39.4606 45.737C39.3183 45.5573 39.1759 45.3775 39.0336 45.1529H38.1322C37.9425 45.5123 37.7052 45.8268 37.4206 46.0964C37.6578 46.5457 37.9899 46.9501 38.322 47.3544C38.5592 47.2646 38.7964 47.1298 39.0336 47.0399Z" fill="#03A06C"/>
<path d="M37.7527 47.6239C37.7053 47.3993 37.6578 47.2196 37.6104 46.9949C37.4681 46.7703 37.3258 46.5456 37.1834 46.3659C36.709 46.8601 36.0923 47.2645 35.4755 47.579C35.7602 47.8486 36.0923 48.0732 36.4718 48.2979C36.8988 48.0732 37.3257 47.8486 37.7527 47.6239Z" fill="#03A06C"/>
<path d="M22.0021 38.3236C22.0021 38.2337 21.9547 38.099 21.9547 38.0091C21.243 38.4135 20.484 38.6381 19.6775 38.683C19.5351 38.683 19.3928 38.683 19.2979 38.6381H19.2505C18.1119 39.357 16.8784 39.9411 15.5975 40.3903C15.1231 40.7947 14.6961 41.2889 14.3166 41.7831L15.977 42.5469C18.3965 41.8281 20.3417 40.1657 22.0021 38.3236Z" fill="#03A06C"/>
<path d="M38.3701 13.2531V13.8821C39.4612 13.8371 40.41 13.6574 41.6435 13.7473V13.298C41.4538 13.298 41.3114 13.2531 41.1217 13.2531C41.0742 13.2531 41.0742 13.2531 41.0268 13.2531C40.3626 13.2081 39.6984 13.2081 39.0342 13.2531C38.9868 13.2531 38.9394 13.2531 38.9394 13.2531C38.7496 13.2081 38.5598 13.2081 38.3701 13.2531Z" fill="#03A06C"/>
<path d="M20.3893 36.167C19.7725 36.7511 19.393 37.5149 19.2981 38.3685C20.1995 38.4135 21.1483 38.1888 21.9074 37.6946C21.8125 37.2453 21.8125 36.7511 21.7651 36.3018C21.7651 35.8974 21.8125 35.4481 21.8599 35.0438C21.4804 35.538 20.9586 35.9423 20.3893 36.167Z" fill="#03A06C"/>
<path d="M29.0236 48.4326L29.5929 48.7021L29.7352 48.6123L31.0636 49.1963C31.3008 48.8818 31.4906 48.5224 31.6803 48.163C31.0161 48.118 30.352 47.9383 29.7352 47.7137C29.5929 47.8934 29.2608 48.2528 29.0236 48.4326Z" fill="#03A06C"/>
<path d="M18.9193 38.4136V38.3237C19.0141 37.5599 19.2988 36.841 19.8207 36.212H19.7732C17.9704 37.2005 15.9304 37.8744 13.843 38.144C12.5621 38.773 11.4709 39.4469 11.0439 40.1658L12.1825 40.66C14.7918 40.6151 16.8793 39.6267 18.9193 38.4136Z" fill="#03A06C"/>
<path d="M27.3635 47.0398C27.316 47.1746 27.1737 47.4891 27.1737 47.579L28.7393 48.2979C28.9765 48.1181 29.3086 47.7587 29.4983 47.579C28.8816 47.2645 28.2649 46.8601 27.7904 46.3659C27.6481 46.5906 27.5058 46.8152 27.3635 47.0398Z" fill="#03A06C"/>
<path d="M17.7328 43.1311C17.7802 42.7717 17.8277 42.4572 17.9226 42.0977C17.543 42.2774 17.0686 42.4572 16.6416 42.6369L17.7328 43.1311Z" fill="#03A06C"/>
<path d="M22.0977 38.728C21.0065 39.986 19.773 41.0194 18.3498 41.873C18.2075 42.4122 18.0651 42.9513 18.0177 43.4905L19.6307 44.2093C20.9591 43.0412 22.0028 41.6484 22.667 40.0309C22.3823 39.6265 22.24 39.1773 22.0977 38.728Z" fill="#03A06C"/>
<path d="M22.333 45.1978C23.1396 44.434 23.8037 43.5354 24.2782 42.5919C23.6614 41.9629 23.1396 41.244 22.7126 40.4353C22.333 41.244 21.8586 42.0078 21.3368 42.7267C21.2419 43.4006 21.1944 44.0746 21.2893 44.7485L22.333 45.1978Z" fill="#03A06C"/>
<path d="M31.3482 61.8665C31.6328 62.4955 32.0124 63.0796 32.5342 63.6188C33.0561 63.1245 33.4831 62.5405 33.8151 61.8665C33.3407 62.226 31.8226 62.2709 31.3482 61.8665Z" fill="#03A06C"/>
<path d="M34.5266 61.3273L35.4279 62.181L35.76 61.8665L34.8112 60.9679C34.7638 61.1027 34.6689 61.2375 34.5266 61.3273Z" fill="#03A06C"/>
<path d="M32.5823 57.2836C31.2539 57.2836 30.2102 58.317 30.2102 59.5301C30.2102 60.7881 31.3013 61.7766 32.5823 61.7766C33.9106 61.7766 34.9543 60.7432 34.9543 59.5301C35.0018 58.317 33.9106 57.2836 32.5823 57.2836ZM33.2464 58.5416C33.2939 58.3619 33.3888 58.5416 33.4362 58.5866C33.4837 58.5866 33.5311 58.5866 33.5785 58.6315C33.5785 58.6764 33.4836 58.6764 33.5311 58.8112C33.4836 58.8112 33.3888 58.7214 33.4362 58.8562C33.3888 58.8562 33.3888 58.8112 33.3888 58.8112C33.3888 58.7663 33.4836 58.7214 33.4836 58.6315C33.4836 58.5417 33.3413 58.5416 33.3413 58.5416C33.3888 58.6315 33.2939 58.7214 33.2464 58.7214H33.199V58.6764C33.2464 58.6764 33.3413 58.6315 33.3413 58.5866C33.3413 58.5866 33.2939 58.5416 33.2464 58.5416ZM32.8195 59.2605C32.8195 59.3504 32.8195 59.3953 32.8669 59.4852H32.2502C32.3451 59.3504 32.3451 59.1257 32.1553 59.0359C32.1078 58.9909 32.013 58.9909 31.9181 58.9909C31.8706 58.9909 31.8706 59.0359 31.8232 59.0359C31.8232 58.9909 31.7757 58.9909 31.7757 58.946C31.8232 58.8112 32.2027 58.9011 32.3925 58.8112C32.3925 58.8562 32.3451 58.946 32.2502 58.946C32.3925 59.0808 32.4399 59.2156 32.4399 59.3953C32.4399 59.2156 32.5348 59.0808 32.6297 58.946C32.5823 58.9011 32.5348 58.8562 32.4874 58.8112C32.6771 58.8562 33.0567 58.7663 33.1041 58.946C33.1041 58.9909 33.1041 59.0359 33.0567 59.0359C33.0567 58.9909 33.0092 58.9909 32.9618 58.9909C33.0092 58.946 32.8195 59.0808 32.8195 59.2605ZM33.1516 59.0808C33.1041 59.0359 33.0567 59.0359 33.0092 59.0359C33.0567 58.9909 33.0567 58.9909 33.1041 58.9909C33.1041 59.0359 33.1516 59.0359 33.1516 59.0808ZM32.3925 60.0692C32.3925 60.0243 32.3925 59.9794 32.4399 59.9345C32.4399 59.9345 32.4399 59.9345 32.4399 59.8895V59.8446C32.4399 59.8446 32.4399 59.8895 32.3925 59.8895V59.8446V59.7997C32.4399 59.7997 32.4399 59.7997 32.4874 59.7997H32.5348C32.5348 59.7997 32.5348 59.7997 32.5348 59.7547C32.4874 59.7547 32.4399 59.7547 32.3925 59.7098C32.3925 59.6649 32.4399 59.6649 32.4874 59.6649L32.4399 59.575L32.6771 60.204C32.5823 60.249 32.4874 60.249 32.4399 60.1591C32.4399 60.1142 32.3925 60.1142 32.3925 60.0692C32.3451 60.0692 32.3451 60.0692 32.3925 60.0692C32.3451 60.0243 32.3451 60.0243 32.3925 60.0692C32.3925 60.0243 32.3925 60.0243 32.3925 60.0692ZM32.5348 59.62H32.5823C32.5823 59.62 32.5823 59.62 32.5348 59.62C32.5823 59.575 32.5823 59.575 32.6297 59.575C32.6297 59.575 32.6771 59.575 32.6771 59.62C32.6771 59.62 32.6771 59.6199 32.6771 59.6649C32.6771 59.6649 32.6771 59.6649 32.6771 59.7098C32.6771 59.7098 32.6771 59.7547 32.7246 59.7547C32.772 59.7098 32.8195 59.7098 32.8669 59.7098C32.9144 59.7547 32.9144 59.7997 32.8669 59.7997V59.7547V59.7997V59.8446C32.9144 59.8446 32.9618 59.8446 32.9618 59.8895V59.9345C32.9618 59.8895 32.9144 59.8895 32.9144 59.8895C32.9144 59.8895 32.9144 59.8895 32.9144 59.9345C32.9144 59.9794 32.9144 60.0243 32.9618 60.0692C33.0092 60.0243 33.0567 60.0243 33.0567 60.0692C33.0567 60.1142 33.0092 60.1591 32.9618 60.1591L32.5348 59.62ZM32.2027 59.0359C32.1553 59.0359 32.1078 59.0359 32.0604 59.0808C32.0604 59.0359 32.0604 59.0359 32.1078 58.9909C32.1553 58.9909 32.1553 59.0359 32.2027 59.0359ZM33.0092 58.4069L33.0567 58.4518L33.0092 58.4967L32.9618 58.4518L33.0092 58.4069ZM32.5823 58.1373L32.6771 58.2271L32.5823 58.317L32.4874 58.2271L32.5823 58.1373ZM32.1553 58.4069L32.2027 58.4518L32.1553 58.4967L32.1078 58.4518L32.1553 58.4069ZM32.1078 58.5866L32.2027 58.6315L32.2976 58.5866C32.345 58.5866 32.3925 58.6315 32.345 58.7214V58.7663C32.4399 58.7663 32.4874 58.6764 32.5348 58.6315C32.4874 58.5866 32.4874 58.5416 32.4874 58.5416C32.4399 58.4518 32.4874 58.4069 32.5823 58.4069L32.6771 58.5416L32.772 58.4069C32.8669 58.4069 32.9144 58.4518 32.8669 58.5416C32.8669 58.5866 32.8195 58.6315 32.8195 58.6315C32.8195 58.7214 32.9143 58.7663 33.0092 58.7663V58.7214C32.9618 58.6315 33.0092 58.5866 33.0567 58.5866L33.1516 58.6315L33.2464 58.5866C33.2939 58.5866 33.3413 58.6315 33.2939 58.7214L33.2464 58.7663H33.0567C32.9143 58.7663 32.8195 58.7214 32.772 58.5866H32.6297C32.5823 58.6764 32.4874 58.7663 32.3925 58.7663H32.2027L32.1553 58.7214C31.9655 58.6315 32.013 58.5866 32.1078 58.5866ZM31.7283 58.5416C31.7758 58.4967 31.8706 58.3619 31.9181 58.4967C31.8706 58.5416 31.8706 58.5866 31.8706 58.6764C31.9181 58.7214 31.9181 58.7214 31.9655 58.7214C31.9655 58.7214 31.9655 58.7214 31.9655 58.7663C31.8706 58.7663 31.7757 58.7214 31.7757 58.6315V58.5866C31.7757 58.5866 31.6334 58.5866 31.6334 58.6764C31.6334 58.7214 31.7283 58.7663 31.7283 58.8562C31.7283 58.9011 31.7283 58.9011 31.6809 58.9011C31.7283 58.8112 31.586 58.8562 31.586 58.8562C31.6334 58.7214 31.5385 58.7214 31.5385 58.6764C31.6334 58.5866 31.6809 58.5866 31.7283 58.5416ZM31.1116 59.3504C31.1116 59.3504 31.1116 59.3054 31.1116 59.3504C31.1116 59.3054 31.1116 59.3054 31.1116 59.3504C31.159 59.3504 31.3013 59.3504 31.2064 59.2605C31.1116 59.2156 31.0641 59.0808 31.1116 58.946C31.159 58.9909 31.3488 59.0359 31.3013 58.946C31.2064 58.8562 31.2064 58.6764 31.3013 58.5866C31.4911 58.8562 31.6809 59.0808 31.9181 59.2605C31.8706 59.3054 31.8706 59.3504 31.8706 59.3953C31.8706 59.4852 31.9655 59.5301 32.013 59.575C32.0604 59.575 32.1553 59.575 32.2027 59.575V59.8446C32.1553 59.7547 32.0604 59.7098 32.013 59.7098C32.013 59.7997 31.9655 59.8895 31.9181 59.9345C31.8706 59.9794 31.7758 60.0243 31.6809 59.9794C31.7283 59.9794 31.7283 59.8446 31.6809 59.8895C31.586 59.9345 31.4911 59.9345 31.4437 59.8446C31.4911 59.8446 31.5385 59.7547 31.4437 59.7547C31.3488 59.7997 31.2539 59.7547 31.2064 59.6649C31.2064 59.6649 31.2064 59.6649 31.2064 59.62C31.2539 59.62 31.3962 59.575 31.2539 59.5301C31.2065 59.5301 31.1116 59.4402 31.1116 59.3504ZM33.4362 60.5635C33.3888 60.5635 33.2939 60.5635 33.2464 60.4736C33.1516 60.4287 33.0567 60.3837 32.9618 60.3837C32.9618 60.3837 32.9144 60.3837 32.9144 60.3388C32.9618 60.249 32.8669 60.1591 32.772 60.204C32.7246 60.249 32.6771 60.2939 32.6297 60.3837C32.8195 60.4287 32.9618 60.5185 33.0567 60.6533C33.0567 60.6983 33.0092 60.7432 32.9618 60.7881C32.9144 60.6084 32.8195 60.6533 32.8669 60.7881C32.8669 60.833 32.8195 60.878 32.772 60.9229C32.772 60.7881 32.6771 60.7881 32.6771 60.9229C32.6771 60.9678 32.6297 61.0128 32.5823 61.0128C32.5348 61.0128 32.4874 60.9678 32.4874 60.9229C32.4874 60.7881 32.3925 60.7881 32.3925 60.9229C32.3451 60.9229 32.2976 60.878 32.2976 60.7881C32.345 60.6533 32.2502 60.6533 32.2027 60.7881C32.1553 60.7881 32.1078 60.7432 32.1078 60.6533C32.2027 60.5185 32.345 60.4287 32.5348 60.3837C32.5348 60.3388 32.4874 60.249 32.3925 60.204C32.3451 60.1591 32.2976 60.1591 32.2502 60.204C32.2027 60.249 32.2027 60.2939 32.2502 60.3388V60.3837C32.1553 60.3837 32.0604 60.4287 31.9655 60.4736L32.0604 60.5185C32.0604 60.5185 32.0604 60.5635 32.013 60.5635C32.013 60.5635 32.013 60.5635 31.9655 60.5635L31.8706 60.4736C31.8232 60.4736 31.8232 60.4736 31.7757 60.4736C31.7283 60.4736 31.6809 60.4287 31.6809 60.3837C31.6809 60.3388 31.6809 60.3388 31.6809 60.3388L31.3962 60.0692C31.3488 60.0692 31.3013 60.0692 31.3488 60.0692C31.3013 60.1142 31.2064 60.0692 31.2064 60.0243C31.2064 60.0243 31.2064 60.0243 31.2064 59.9794H31.2539C31.2065 59.9345 31.2065 59.8895 31.2539 59.8446C31.3013 59.8446 31.3488 59.8446 31.3962 59.8446V59.7997C31.4437 59.7997 31.4911 59.8446 31.4911 59.8895C31.4911 59.8895 31.4911 59.8895 31.4911 59.9345C31.5385 59.9345 31.5385 59.9794 31.5385 59.9794L31.8232 60.249H31.8706C31.9181 60.249 31.9181 60.249 31.9655 60.2939C32.0604 60.2939 32.1078 60.2939 32.2027 60.249C32.013 60.0243 32.1553 59.8895 32.345 59.8895V60.0243C32.345 60.0692 32.3925 60.1142 32.4399 60.1142H32.5348C32.5823 60.204 32.6771 60.204 32.7246 60.1591C32.772 60.1591 32.772 60.1142 32.772 60.1142H32.8669C32.9144 60.1142 32.9618 60.0692 32.9618 60.0243V59.8895C33.1041 59.8895 33.2464 60.0243 33.1041 60.249C33.1516 60.2939 33.2464 60.2939 33.2939 60.2939C33.2939 60.249 33.3413 60.204 33.3888 60.204L33.4836 60.2939L33.5785 60.204C33.626 60.249 33.6734 60.2939 33.6734 60.3388C33.5785 60.4736 33.5311 60.5185 33.4362 60.5635ZM33.3413 60.204L33.3888 60.1591L33.4362 60.204L33.3888 60.249L33.3413 60.204ZM34.053 59.3054C34.053 59.3953 34.0055 59.5301 33.9106 59.5301C33.7683 59.575 33.9106 59.62 33.9581 59.62C33.9581 59.7098 33.8632 59.7547 33.7683 59.7547C33.7683 59.7547 33.7683 59.7547 33.7209 59.7547C33.626 59.7547 33.6734 59.8446 33.7209 59.8446C33.6734 59.9345 33.5785 59.9345 33.4836 59.8895C33.4362 59.8446 33.4362 59.9794 33.4836 59.9794C33.4362 60.0243 33.3413 60.0243 33.2464 59.9794C33.199 59.8895 33.1516 59.8446 33.1516 59.7547C33.0567 59.7547 32.9618 59.7997 32.9618 59.8895V59.62C33.0092 59.62 33.0567 59.6649 33.1516 59.62C33.2464 59.62 33.2939 59.5301 33.2939 59.4402C33.2939 59.3953 33.2939 59.3504 33.2464 59.3054C33.4836 59.1257 33.7209 58.9011 33.8632 58.6315C33.9581 58.7214 33.9581 58.9011 33.8632 58.9909C33.8157 59.0808 34.0055 59.0359 34.053 58.9909C34.1004 59.0808 34.0529 59.2156 33.9581 59.3054C33.8632 59.3054 34.0055 59.3504 34.053 59.3054Z" fill="#03A06C"/>
<path d="M31.2063 57.3286C31.3012 57.059 31.3961 56.7895 31.4436 56.5199L27.9803 58.0026C27.9803 58.7214 28.0752 59.3954 28.265 60.0693C28.8817 59.8896 29.4036 59.5751 29.878 59.1707C30.0203 58.4069 30.4947 57.733 31.2063 57.3286Z" fill="#03A06C"/>
<path d="M29.404 61.8665L29.7361 62.181L30.6375 61.3273C30.5426 61.2375 30.4477 61.1027 30.3529 60.9679L29.404 61.8665Z" fill="#03A06C"/>
<path d="M39.2719 53.4199C39.0347 53.5097 38.7501 53.5996 38.5129 53.6894L39.8887 54.3184L39.3194 53.4648L39.2719 53.4199Z" fill="#03A06C"/>
<path d="M32.297 55.846L30.4468 52.072C25.6077 54.0039 20.7687 55.8011 15.9296 57.4635L16.3092 58.5867C16.4041 58.8113 16.1194 59.036 16.1194 59.3505C16.1669 60.0244 15.9296 60.6984 15.4552 61.1926L15.0757 61.5071L14.9334 61.0578L13.8897 58.1374C13.7948 58.1823 13.6999 58.1823 13.6524 58.2273L14.2692 60.0244C14.4115 60.6534 14.3166 61.3274 14.0794 61.9115L13.9371 62.226L13.605 62.0462C13.0357 61.6419 12.6087 61.1027 12.3715 60.4737C12.2766 60.294 12.1343 60.3389 12.0869 60.1592L11.6125 58.9012C11.5176 58.9461 11.4227 58.9461 11.3278 58.9911L12.3241 61.7767L12.4664 62.226L11.992 62.181C11.2804 62.1361 10.6636 61.7767 10.3315 61.1926C10.1892 61.0129 9.85711 61.1477 9.80967 60.923L9.38269 59.665C8.43386 59.9795 7.48503 60.2491 6.53619 60.5636C6.7734 62.5405 7.57991 64.4275 8.90828 66C11.2329 64.9217 13.605 63.8434 16.0245 62.81C16.0245 62.6753 16.072 62.5405 16.1669 62.4057L17.1157 60.8781C17.0208 60.5636 17.0208 60.2042 17.0208 59.8447C17.685 59.8896 18.2543 60.2491 18.5864 60.7882C18.6813 61.1027 18.6813 61.4172 18.5389 61.6868C22.9985 59.7099 27.6477 57.733 32.297 55.846Z" fill="#03A06C"/>
<path d="M41.5954 54.2287L39.6028 53.3301L44.8689 61.0579L45.6754 61.4173C45.5331 61.0579 45.5331 60.6535 45.7703 60.2941L41.5954 54.2287Z" fill="#03A06C"/>
<path d="M37.0411 56.6997L37.6104 57.5084L37.7053 57.6432L44.1099 60.5187L43.4457 59.5752L37.0411 56.6997Z" fill="#03A06C"/>
<path d="M35.7612 54.8126L36.71 56.2054L43.1146 59.0809L41.8337 57.2388L36.1407 54.6779C36.0458 54.7228 35.9035 54.7677 35.7612 54.8126Z" fill="#03A06C"/>
<path d="M36.614 54.498L41.5005 56.6996L40.2196 54.8575L38.1321 53.9139C37.6103 54.0937 37.1359 54.2734 36.614 54.498Z" fill="#03A06C"/>
<path d="M35.0011 55.1272L35.1909 55.4417L34.8588 55.5765L34.5742 55.6663L35.3332 56.7896L37.3258 57.6881L35.4281 54.9025C35.2858 54.9924 35.1435 55.0373 35.0011 55.1272Z" fill="#03A06C"/>
<path d="M33.9584 57.3286C34.67 57.733 35.1444 58.4069 35.2867 59.2156C35.7611 59.62 36.3304 59.8896 36.8997 60.0693C37.0895 59.3953 37.1844 58.6765 37.1844 57.9576L33.6737 56.3401C33.7686 56.6996 33.8635 57.0141 33.9584 57.3286Z" fill="#03A06C"/>
<path d="M13.605 24.1709H13.5576C11.992 23.5868 10.9483 22.7332 10.4264 21.6998C8.81342 20.8012 7.43761 19.5881 6.44134 18.1055C5.63483 17.3866 4.87576 16.6228 4.21158 15.7692C4.21158 19.678 6.91575 22.239 9.76225 23.7666C9.61993 23.5419 9.52505 23.2723 9.4776 23.0028L9.2404 22.1042L9.99946 22.6883C11.0432 23.4071 12.2767 23.9014 13.605 24.1709Z" fill="#03A06C"/>
<path d="M17.2096 60.2939L17.5891 61.7766L17.1622 61.2374L16.3556 62.5403C16.1184 62.8998 16.2608 63.0795 16.5929 62.9447L16.8775 62.8548C17.3045 62.6751 17.6366 62.4056 17.8738 62.0461L18.0161 61.8215C18.8226 60.5635 17.2096 60.2939 17.2096 60.2939Z" fill="#03A06C"/>
<path d="M12.893 26.642C11.6595 26.1927 10.6158 25.3391 9.95164 24.2158C7.91164 23.2723 6.20374 21.8346 5.0177 19.9925C4.25863 19.4533 3.54701 18.8243 2.93027 18.1055C3.07259 22.0143 6.53584 25.0246 10.0465 26.6869C9.99908 26.5971 9.95164 26.5072 9.9042 26.4174L9.5721 25.6985L10.3312 25.9681C11.1377 26.2826 12.0391 26.5072 12.893 26.642Z" fill="#03A06C"/>
<path d="M3.83174 15.7692V14.9155L4.40104 15.5895C4.9229 16.1735 5.39732 16.7127 5.87173 17.2069C5.4922 16.4431 5.30243 15.5895 5.16011 14.7807C3.68942 12.7589 2.45593 10.8719 2.02896 9.3443C1.12757 13.343 2.26617 16.0388 4.16383 18.2403C3.92663 17.4316 3.83174 16.5779 3.83174 15.7692Z" fill="#03A06C"/>
<path d="M2.59869 18.1056L2.55125 17.162L3.16799 17.8809C3.68985 18.5099 4.25915 19.0491 4.92333 19.5433L3.92706 18.4201C2.88334 17.2519 2.12428 15.8591 1.6973 14.3764C1.50753 14.0619 1.31777 13.7923 1.17544 13.4778C0.274051 17.5664 1.79218 19.5433 3.64241 21.61C3.02567 20.5317 2.64613 19.3186 2.59869 18.1056Z" fill="#03A06C"/>
<path d="M10.9949 58.9012C10.9 58.5867 10.5679 58.4519 10.2358 58.5418L9.95114 58.6317C9.61905 58.7215 9.47673 59.036 9.57161 59.3505L9.99859 60.6085C10.046 60.7883 10.473 60.6984 10.5679 60.923C10.8051 61.5071 11.3744 61.8666 12.0386 61.9115L11.7539 61.1477L10.8525 60.8332L11.6116 60.7883L10.9949 58.9012Z" fill="#03A06C"/>
<path d="M16.3575 52.2517C15.8357 52.1169 15.3613 51.8923 14.9343 51.6227H14.8869C14.1278 51.5778 13.3687 51.443 12.6571 51.2633L12.7045 50.9488C13.2738 51.0835 13.8906 51.1734 14.5073 51.2633C13.3213 50.2299 13.179 48.7922 13.6059 47.3095L10.4748 45.9167C9.62083 47.1298 8.1027 47.7588 6.58456 47.5791C7.91293 48.9719 9.57339 50.0052 11.4236 50.6343L11.3287 50.9038C9.28874 50.185 7.48595 49.0168 6.11014 47.4443C5.58829 47.3095 5.06643 47.1747 4.59201 46.9501C5.39852 50.5444 13.4636 54.1387 16.3575 52.2517Z" fill="#03A06C"/>
<path d="M13.7951 61.8216C14.0323 61.2824 14.1272 60.7433 13.9848 60.1592L13.2732 58.1374C13.1783 57.8678 12.8937 57.733 12.609 57.8229L12.182 57.9577C11.8974 58.0475 11.7551 58.3171 11.85 58.5867L12.3244 59.9346L13.4155 60.4288L12.7039 60.4737C12.9411 61.0578 13.3206 61.5071 13.7951 61.8216Z" fill="#03A06C"/>
<path d="M11.6602 29.832C11.6128 29.7421 11.5653 29.6972 11.5179 29.6073L11.0435 28.8885L11.85 29.158C12.5142 29.2928 13.1783 29.3827 13.8425 29.4276C12.3718 29.158 11.0909 28.3493 10.2844 27.1362C7.91231 26.1028 5.82488 24.5303 4.25931 22.5534C3.69001 22.1491 3.1207 21.7447 2.59885 21.2505C3.54768 25.2492 7.76999 28.7087 11.6602 29.832Z" fill="#03A06C"/>
<path d="M14.9342 32.4379C15.0765 32.3031 15.2188 32.1684 15.4086 32.0336C14.1277 31.764 12.9416 31.1799 12.0402 30.2813C10.2374 29.7871 8.52954 28.9784 7.0114 27.8551C5.92024 27.0464 4.97141 26.1478 4.1649 25.1145C3.83281 25.0246 3.45328 24.9797 3.12119 24.9797C5.63559 29.5175 9.33604 32.2582 14.9342 32.4379Z" fill="#03A06C"/>
<path d="M10.1909 21.2056C10.1434 20.9809 10.096 20.7563 10.0486 20.4867L10.0011 19.8128L10.5704 20.1722C11.1872 20.5766 11.8513 20.936 12.5155 21.2505C11.8513 20.6664 11.4244 19.8128 11.3769 18.9591C8.53043 17.6562 7.15462 16.0387 5.44672 14.0169C5.63648 17.5663 7.72392 19.6331 10.1909 21.2056Z" fill="#03A06C"/>
<path d="M55.118 60.2939L52.9356 64.697L54.0742 65.1912L56.304 60.833L55.118 60.2939Z" fill="#03A06C"/>
<path d="M56.2559 61.6867L57.3945 62.181C57.5368 62.2259 57.6317 62.3157 57.7266 62.4505C57.774 62.4056 57.774 62.4056 57.774 62.3607C57.9163 62.0911 57.774 61.7317 57.4894 61.5969L56.4931 61.1476L56.2559 61.6867Z" fill="#03A06C"/>
<path d="M55.829 65.1015L54.7378 64.6073L54.4532 65.1465L55.3545 65.5508C55.6392 65.6856 56.0187 65.5508 56.1611 65.2812C56.1611 65.2363 56.2085 65.1914 56.2085 65.1465H56.1611C56.0662 65.1914 55.9238 65.1465 55.829 65.1015Z" fill="#03A06C"/>
<path d="M50.2773 57.9577C50.4196 57.6881 50.2773 57.3287 49.9926 57.1939L49.7554 57.0591C49.4708 56.9243 49.0912 57.0591 48.9489 57.3287L48.4745 58.2722C48.2847 58.5867 48.6168 58.7215 48.5219 59.036C48.2847 59.7998 48.9015 60.7433 48.9015 60.7433L49.281 59.9795L49.3284 59.8447L48.8066 58.7664L49.5182 59.4853L50.2773 57.9577Z" fill="#03A06C"/>
<path d="M49.9929 62.4955L49.7083 63.0346L52.6971 64.3825L52.9818 63.8434L49.9929 62.4955Z" fill="#03A06C"/>
<path d="M50.6095 57.9128L50.8941 58.0476C50.8941 58.0026 50.9416 58.0026 50.9416 58.0026C50.7993 57.8678 50.7044 57.7331 50.562 57.5983C50.6095 57.6881 50.6095 57.778 50.6095 57.9128Z" fill="#03A06C"/>
<path d="M54.642 27.1363C53.8355 28.3044 52.5546 29.1132 51.0839 29.4277C51.7481 29.4277 52.4123 29.3378 53.0764 29.1581L53.9304 28.9334L53.456 29.6523C53.4085 29.7422 53.3611 29.7871 53.3137 29.8769C57.2039 28.7537 61.4262 25.2942 62.375 21.2955C61.8532 21.7448 61.2839 22.1941 60.7146 22.5984C59.1015 24.5753 57.0615 26.1478 54.642 27.1363Z" fill="#03A06C"/>
<path d="M57.9621 27.8551C56.4915 28.9783 54.7836 29.787 52.9333 30.2813C52.0319 31.1799 50.8459 31.8089 49.565 32.0335C49.7547 32.1683 49.8971 32.3031 50.0394 32.4379C55.5901 32.2582 59.338 29.5175 61.8524 24.9347C61.4728 24.9347 61.1407 24.9796 60.8086 25.0695C60.0021 26.1029 59.0533 27.0464 57.9621 27.8551Z" fill="#03A06C"/>
<path d="M50.326 32.7524C50.4683 32.8872 50.5632 33.0669 50.6581 33.2017L50.9427 33.5611L50.4683 33.651C49.2822 33.9205 48.0488 34.0553 46.8153 34.1002C46.7678 34.1002 46.7678 34.1002 46.7204 34.1002C51.9864 34.7742 57.0627 33.8756 60.2413 29.3378C59.9566 29.2479 59.6245 29.158 59.245 29.0682C56.8729 31.3146 53.6943 32.6625 50.326 32.7524Z" fill="#03A06C"/>
<path d="M52.2243 58.1823L51.7974 58.0026C51.5602 57.9127 51.2281 58.0026 51.1332 58.2272L50.1843 60.1592C49.9946 60.6983 49.9946 61.2824 50.1843 61.8216C50.7062 61.552 51.1332 61.1476 51.3704 60.6085L50.6588 60.5186L51.7974 60.1142L52.4141 58.8113C52.6039 58.5867 52.509 58.2721 52.2243 58.1823Z" fill="#03A06C"/>
<path d="M57.1092 40.5701C49.3762 44.1644 41.2162 47.7587 32.9614 51.0835L34.8591 54.8126C43.0665 51.5328 51.3688 48.5225 59.4339 45.9616C59.0543 44.0745 58.2478 42.2325 57.1092 40.5701Z" fill="#03A06C"/>
<path d="M58.2479 63.6187L57.7735 63.3941C57.6311 63.6637 57.3465 63.8434 57.0144 63.8434C57.1567 64.068 57.1567 64.3825 57.0618 64.6072L57.5837 64.8318C57.9632 65.0116 58.3902 64.8318 58.58 64.5173C58.7697 64.2028 58.6274 63.7985 58.2479 63.6187Z" fill="#03A06C"/>
<path d="M57.5358 63.2594C57.6782 62.9898 57.5358 62.6304 57.2512 62.4956L56.1126 62.0013L55.5907 63.0347L56.7293 63.5289C57.014 63.6637 57.3935 63.5289 57.5358 63.2594Z" fill="#03A06C"/>
<path d="M56.4928 63.7985L55.4017 63.3043L54.8798 64.3377L55.971 64.8319C56.2556 64.9667 56.6352 64.8319 56.7775 64.5623C56.9198 64.2478 56.7775 63.9333 56.4928 63.7985Z" fill="#03A06C"/>
<path d="M47.5718 61.4172L47.9988 62.181L48.236 61.6867L47.5718 61.4172Z" fill="#03A06C"/>
<path d="M43.6363 51.8024C43.8261 52.2966 44.0159 52.7459 44.2531 53.1952L45.107 52.2068L45.3442 52.3865L44.3954 53.4648C44.5377 53.6894 44.68 53.959 44.8224 54.1836L45.5814 53.33L45.8186 53.5097L45.0121 54.4532C45.1545 54.6779 45.3442 54.9025 45.534 55.0822L46.2456 54.2735L46.4828 54.4532L45.7712 55.2619C46.3405 55.8011 46.9572 56.2953 47.6689 56.6548L48.6177 57.104C48.8549 56.7446 49.3293 56.5649 49.7089 56.7446L49.9461 56.8345L49.9935 56.8794C48.1907 54.8576 47.0047 52.9256 46.8149 50.4995L43.6363 51.8024Z" fill="#03A06C"/>
<path d="M52.2705 59.8897L52.65 60.0694L52.9347 59.4853L52.5551 59.3505L52.2705 59.8897Z" fill="#03A06C"/>
<path d="M43.0192 55.7561L48.2378 58.0924L48.5224 57.5083L42.355 54.7676L43.0192 55.7561Z" fill="#03A06C"/>
<path d="M48.1424 58.4519L48.1899 58.407L43.3983 56.2504L44.6792 58.0925L48.1899 59.665C48.1899 59.4403 48.2847 59.1708 48.2373 59.0809C48.095 58.8563 48.0475 58.6316 48.1424 58.4519Z" fill="#03A06C"/>
<path d="M47.3352 60.968L48.3789 61.4173L48.5687 61.013C48.3315 60.7434 48.1892 60.384 48.1417 60.0245L45.0106 58.5868L46.0068 60.0245C46.3864 59.755 46.9082 59.6202 47.3826 59.6651L47.1454 60.4738L47.3352 60.968Z" fill="#03A06C"/>
<path d="M46.956 60.8781L46.4816 61.3724L47.0034 59.9346C47.0034 59.9346 45.3904 60.0694 46.0072 61.4173L46.1021 61.6419C46.2918 62.0463 46.6239 62.3608 47.0034 62.5405L47.2881 62.6753C47.6202 62.8101 47.7625 62.6304 47.5727 62.2709L46.956 60.8781Z" fill="#03A06C"/>
<path d="M54.3108 61.2375C54.1685 61.2825 54.0261 61.3274 53.8838 61.3723C53.694 61.597 53.5043 61.7767 53.2671 61.9564L53.8364 62.1811L54.3108 61.2375Z" fill="#03A06C"/>
<path d="M49.9464 60.0693L50.7529 58.362L50.4683 58.2272L48.9501 61.4172L48.8078 61.2375L48.1436 62.5404L49.3297 63.0796L49.9938 61.7766C49.8041 61.1926 49.7566 60.6085 49.9464 60.0693Z" fill="#03A06C"/>
<path d="M54.4527 59.036L54.168 58.9462C53.8834 58.8114 53.5039 58.9462 53.3615 59.2158L52.5076 61.0129L53.2666 61.1477L52.3653 61.3724L51.9857 62.0912C52.6499 62.1362 53.2666 61.7767 53.5513 61.2376C53.6936 61.0129 54.0732 61.1477 54.168 60.968L54.7373 59.7549C54.8797 59.4853 54.7373 59.1708 54.4527 59.036Z" fill="#03A06C"/>
<path d="M52.508 60.339L52.176 60.1593L52.0336 60.4738C51.9387 60.6535 51.7964 60.4738 51.4643 61.1028L51.9862 61.3724L52.508 60.339Z" fill="#03A06C"/>
<path d="M50.2306 62.2259L53.1246 63.5289L53.6464 62.4955L52.8874 62.136C52.6027 62.181 52.3655 62.2708 52.0808 62.2708H51.6064L51.7962 61.8215L51.8911 61.6418L51.3218 61.3723C50.9897 61.7317 50.6102 62.0013 50.2306 62.2259Z" fill="#03A06C"/>
<path d="M30.6833 50.5444L24.2787 47.6689L25.5596 49.511L29.8768 51.4429C30.2564 51.2632 30.6359 51.1284 31.0154 50.9487L30.6833 50.5444Z" fill="#03A06C"/>
<path d="M26.6044 52.8807C26.8416 52.7908 27.0313 52.7009 27.2685 52.6111L22.5244 45.692L20.5318 44.7934L25.7979 52.5212L26.6044 52.8807Z" fill="#03A06C"/>
<path d="M42.4499 14.9156C41.5959 14.691 40.6945 14.8258 39.9829 15.275C39.0815 15.9939 37.8006 16.0838 36.8043 15.5896C36.235 16.4881 35.0015 17.6114 33.9104 17.7911C34.9541 18.1056 36.3773 18.0157 37.7057 16.578C36.8992 17.4766 36.3773 18.3302 36.5197 19.2737C36.9941 18.5998 37.6108 18.0607 38.3699 17.6563C38.5597 17.3867 38.8443 17.1621 39.129 17.0273C37.848 18.5549 38.0852 19.9028 38.275 20.3521C38.702 19.4085 39.4136 18.5998 40.3624 18.0607C41.4536 17.5664 40.8843 15.8591 42.4499 14.9156ZM41.6908 15.1403C41.0266 15.9939 40.5048 15.6345 40.2676 15.4997C40.6471 15.2301 41.1689 15.1403 41.6908 15.1403Z" fill="#03A06C"/>
<path d="M30.304 51.7575L30.2565 51.6227C28.5961 52.3865 26.9356 53.1054 25.2277 53.7793C26.8882 53.1503 28.5961 52.4764 30.3514 51.8025L30.304 51.7575Z" fill="#03A06C"/>
<path d="M29.4502 51.6226L25.9395 50.0501L27.2205 51.8922L28.027 52.2516C28.5014 52.0719 28.9758 51.8473 29.4502 51.6226Z" fill="#03A06C"/>
<path d="M14.1276 46.4108L10.8067 44.8832L10.5221 45.4673L13.843 46.95L14.1276 46.4108Z" fill="#03A06C"/>
<path d="M17.4478 43.4007L16.3092 42.8615L14.0794 47.2646L15.218 47.7588L17.4478 43.4007Z" fill="#03A06C"/>
<path d="M53.9301 35.9872C53.171 36.122 52.412 36.167 51.6529 36.167C50.7515 36.167 49.8501 36.0771 48.9487 35.9423L49.0911 36.167L48.6166 36.2568C48.0473 36.3916 47.4306 36.4365 46.8139 36.4365C46.6241 36.4365 46.3869 36.4365 46.1971 36.3916C49.4231 37.8743 52.5543 38.4134 56.2073 37.3801C55.9227 36.751 55.0687 36.3467 53.9301 35.9872Z" fill="#03A06C"/>
<path d="M55.1639 39.2671C47.0513 43.3556 39.8876 47.1746 32.6291 50.4994L32.7714 50.769L32.8188 50.8588C40.1723 47.8486 47.9053 44.4789 55.9704 40.7498C55.7332 40.2555 55.4485 39.6715 55.1639 39.2671Z" fill="#03A06C"/>
<path d="M13.3675 21.4751C16.641 22.8679 19.7722 23.5868 20.1992 26.9115C18.8233 22.5983 14.6959 23.2723 10.4262 20.4867C10.5685 22.1041 11.802 23.1824 13.6522 23.9013C16.0243 24.6651 18.3489 25.339 19.2978 27.6304C16.7359 24.1709 12.7982 25.2042 9.71454 22.9128C10.3313 24.9347 12.1815 26.4623 14.3638 26.7318C16.4038 27.226 17.495 27.5406 18.5387 28.9783C16.3564 26.8217 13.0829 27.4507 10.1415 26.2825C11.8969 30.0566 16.1192 28.8435 18.5861 30.461C16.4513 29.5174 13.5573 29.9667 11.7545 29.4725C12.6559 30.7755 14.0792 31.4494 15.7396 31.8088C16.641 31.3146 17.6373 31.2247 18.681 31.1798C19.108 31.1349 19.5824 31.1349 20.0094 31.09C18.7759 29.8319 19.0131 27.6753 21.148 27.7652C21.3852 20.6664 14.4113 21.1157 11.7071 18.0605C11.5173 19.9924 12.4662 20.9809 13.3675 21.4751Z" fill="#03A06C"/>
<path d="M46.0547 12.6242C45.8649 12.1299 46.0073 11.5459 46.4342 11.1864C46.3868 10.9169 46.3394 10.6023 46.2445 10.3328L46.1496 10.2878C44.584 10.5125 44.3943 12.4894 45.2008 13.5227C45.5329 13.2532 45.8175 12.9836 46.0547 12.6242Z" fill="#03A06C"/>
<path d="M47.8105 13.5676C47.5733 13.927 47.2887 14.2415 46.9566 14.5111C49.1863 15.0502 50.6096 13.5226 52.1752 14.1517L52.5072 13.1183C51.084 12.2646 49.1863 13.5676 47.8105 13.5676Z" fill="#03A06C"/>
<path d="M56.0181 33.3365C54.073 34.2351 51.8907 34.6394 49.7084 34.5945C48.9968 34.5945 48.2377 34.5496 47.5261 34.4597C48.0005 34.7293 48.4275 35.1337 48.7121 35.5829C52.5074 36.2569 55.9232 35.6279 57.5837 33.9206C57.1093 33.651 56.5874 33.4713 56.0181 33.3365Z" fill="#03A06C"/>
<path d="M12.3715 41.1093L11.1855 40.5702L9.00314 44.9733L10.1417 45.4675L12.3715 41.1093Z" fill="#03A06C"/>
<path d="M29.2132 13.6575L30.0671 13.2531L29.6876 14.0618C29.4029 14.6459 28.976 15.1401 28.4541 15.4546C30.5415 14.3763 31.8699 12.4893 31.9648 9.56891C31.4429 9.61384 30.8736 9.65877 30.3518 9.74863C30.3518 11.6357 29.6401 12.9835 28.4541 13.8372C28.6913 13.8372 28.976 13.7473 29.2132 13.6575Z" fill="#03A06C"/>
<path d="M29.8771 11.0517C29.972 10.6473 30.0194 10.2429 30.0194 9.83856C29.4976 9.92842 29.0231 10.1531 28.6436 10.4676C28.9757 10.7821 29.4027 10.9618 29.8771 11.0517Z" fill="#03A06C"/>
<path d="M32.4864 7.99634C30.304 7.99634 28.5013 8.53549 28.5013 9.1645V10.1529C29.1654 9.56886 30.8259 9.25436 32.4864 9.25436C33.5775 9.25436 34.6212 9.38914 35.4277 9.61379C35.2854 9.61379 35.0956 9.70365 35.0008 9.79351C35.0008 10.1979 35.0482 10.6022 35.1431 11.0066C35.5226 11.2312 35.997 11.1414 36.2342 10.7819C36.424 10.5124 36.3766 10.1979 36.2342 9.97322C36.3291 10.0182 36.424 10.0631 36.4715 10.1529V9.1645C36.424 8.53549 34.6687 7.99634 32.4864 7.99634Z" fill="#03A06C"/>
<path d="M24.5634 18.0607C25.5122 18.5549 26.2713 19.3636 26.6509 20.3521C26.8406 19.9477 27.0778 18.5549 25.7969 17.0273C26.0816 17.207 26.3662 17.3867 26.556 17.6563C27.315 18.0157 27.9318 18.5998 28.4062 19.2737C28.5485 18.3752 28.0741 17.4766 27.2202 16.578C28.5485 18.0157 29.9718 18.1056 31.0155 17.7911C29.9243 17.6114 28.7383 16.4881 28.1215 15.5896C27.0778 16.1287 25.8443 15.9939 24.9429 15.275C24.2313 14.8258 23.2825 14.691 22.476 14.9156C24.0416 15.8591 23.5197 17.5664 24.5634 18.0607ZM24.7532 15.4997C24.516 15.6345 23.9941 16.0388 23.3299 15.1403C23.8043 15.1403 24.3262 15.2301 24.7532 15.4997Z" fill="#03A06C"/>
<path d="M8.10173 44.3441L8.76592 44.6586L9.05057 44.1194L8.19662 43.7151C8.05429 43.6701 7.95941 43.5803 7.86452 43.4455C7.81708 43.4904 7.81708 43.4904 7.81708 43.5354C7.62732 43.8499 7.76964 44.2093 8.10173 44.3441Z" fill="#03A06C"/>
<path d="M34.6687 9.79361C34.1469 9.70375 33.5776 9.61389 33.0557 9.61389C33.198 12.5343 34.4789 14.4213 36.5664 15.4996C35.9971 15.1402 35.5701 14.6909 35.3329 14.1068L34.9534 13.2981L35.8073 13.7025C36.0445 13.7923 36.3292 13.8822 36.6138 13.9271C35.3329 13.0285 34.6687 11.6806 34.6687 9.79361Z" fill="#03A06C"/>
<path d="M4.78107 29.3378C7.91222 33.8756 12.9885 34.7742 18.2545 34.1002C18.2071 34.1002 18.2071 34.1002 18.1596 34.1002C16.9261 34.0553 15.6927 33.9205 14.5066 33.651L14.0322 33.5611L14.2694 33.2017C14.3643 33.0219 14.5066 32.8872 14.6015 32.7524C11.2331 32.6625 8.05454 31.3596 5.7299 29.0682C5.39781 29.158 5.01828 29.2479 4.78107 29.3378Z" fill="#03A06C"/>
<path d="M22.9507 29.0232C23.1405 29.113 23.3777 29.158 23.6149 29.2029C23.8521 28.9333 24.0419 28.6638 24.2316 28.3942C24.8484 27.4507 25.6074 26.2825 27.5526 25.8781C27.5051 25.8332 27.5051 25.7434 27.4577 25.6984C27.173 25.7883 26.8884 25.8781 26.6037 25.8781C26.5088 25.8781 26.414 25.8781 26.3191 25.8781L25.987 25.8332C23.947 26.7318 24.0419 28.6188 22.9507 29.0232Z" fill="#03A06C"/>
<path d="M7.43712 42.3672L7.76921 42.502C8.24363 42.502 8.62316 42.1426 8.62316 41.6933C8.62316 41.5585 8.57572 41.4237 8.48084 41.2889L8.05386 41.1092C7.67433 40.9295 7.24735 41.1092 7.05759 41.4686C6.91526 41.7831 7.05759 42.1875 7.43712 42.3672Z" fill="#03A06C"/>
<path d="M14.5528 33.3814C17.4941 33.9655 20.9574 34.28 21.9537 32.0335C21.6216 33.3364 20.5304 33.8307 19.202 34.1901C18.016 34.3698 16.9723 34.9988 16.3555 35.9873C18.5379 36.3916 20.8151 36.1221 21.9062 34.4147C22.1909 33.1118 22.7602 31.8538 23.6141 30.7755C23.282 30.7755 22.9025 30.6856 22.5704 30.5958C19.4393 32.4379 16.6876 30.3262 14.5528 33.3814Z" fill="#03A06C"/>
<path d="M23.8994 30.461C24.4213 29.832 24.9906 29.2928 25.6547 28.8435V27.3609H26.8408C27.078 26.9565 27.4101 26.5521 27.7422 26.1927C27.6947 26.1478 27.6947 26.1028 27.6473 26.1028C24.2789 26.7768 24.7059 29.7421 22.5236 30.1465C22.9506 30.3711 23.425 30.461 23.8994 30.461Z" fill="#03A06C"/>
<path d="M24.7062 9.43419H25.2755L25.1806 9.07476L25.5601 9.16461V8.67039L25.1806 8.76025L25.2755 8.40082H24.7062L24.8011 8.76025L24.4215 8.67039V9.16461L24.8011 9.07476L24.7062 9.43419Z" fill="#03A06C"/>
<path d="M24.9906 9.70367C24.8008 9.70367 24.6111 9.83846 24.6111 10.0631C24.6111 10.2878 24.7534 10.4225 24.9906 10.4225C25.2278 10.4225 25.3701 10.2878 25.3701 10.0631C25.3227 9.88339 25.1804 9.70367 24.9906 9.70367Z" fill="#03A06C"/>
<path d="M24.4224 12.8937C24.6122 12.8937 24.8019 12.8937 24.9917 12.8937C25.1815 12.8937 25.3712 12.8937 25.561 12.8937C25.561 11.9053 25.7033 11.0067 26.3675 10.5125L25.5135 10.782L25.3712 10.5574C25.2763 10.6472 25.134 10.6472 24.9917 10.6922C24.8494 10.6922 24.7545 10.6472 24.6122 10.5574L24.4698 10.782L23.6159 10.5125C24.2801 11.0067 24.4224 11.9502 24.4224 12.8937Z" fill="#03A06C"/>
<path d="M28.1699 6.06442V5.70499L27.7903 5.52527V5.92963L28.1699 6.06442Z" fill="#03A06C"/>
<path d="M28.3593 8.71538C28.9286 8.04145 30.7314 7.68201 32.4867 7.68201C34.242 7.68201 36.0448 8.04145 36.6141 8.71538C37.3732 8.1313 39.6029 6.19935 38.4643 4.53697C38.2746 4.26739 38.0374 4.04275 37.7527 3.90796C36.4718 3.99782 35.096 4.62683 34.8113 6.15442L34.7639 6.33414L34.6216 6.28921C34.1946 6.15442 33.7202 6.19935 33.3406 6.42399C33.2458 6.7385 33.1983 6.96314 33.1509 7.09793C33.056 7.36751 32.7713 7.54722 32.4867 7.54722C32.1546 7.54722 31.9174 7.36751 31.8225 7.09793C31.7751 7.00807 31.7276 6.7385 31.6327 6.46892C31.2532 6.24428 30.7788 6.19935 30.3518 6.33414L30.1621 6.37907L30.1146 6.19935C29.83 4.67176 28.4542 4.04275 27.1732 3.95289C26.8886 4.08768 26.6514 4.31232 26.4616 4.5819C25.3704 6.19935 27.5528 8.1313 28.3593 8.71538ZM36.4718 6.06456V5.6602V5.48048L36.6616 5.39062L37.0411 5.21091L37.5155 4.98626V5.48048V5.88484V6.06456L37.3257 6.15442L36.9462 6.33414L36.4718 6.55878V6.06456ZM36.6141 7.54722C36.7564 7.54722 36.8513 7.63708 36.8513 7.77187C36.8513 7.90666 36.7564 7.99652 36.6141 7.99652C36.4718 7.99652 36.3769 7.90666 36.3769 7.77187C36.3769 7.63708 36.4718 7.54722 36.6141 7.54722ZM35.4281 7.053C35.5704 7.053 35.6653 7.14286 35.6653 7.27765C35.6653 7.41244 35.5704 7.5023 35.4281 7.5023C35.2858 7.5023 35.1909 7.41244 35.1909 7.27765C35.1909 7.14286 35.2858 7.053 35.4281 7.053ZM34.1472 6.78343C34.2895 6.78343 34.3844 6.87329 34.3844 7.00807C34.3844 7.14286 34.2895 7.23272 34.1472 7.23272C34.0048 7.23272 33.9099 7.14286 33.9099 7.00807C33.9099 6.87329 34.0048 6.78343 34.1472 6.78343ZM30.8262 6.78343C30.9686 6.78343 31.0634 6.87329 31.0634 7.00807C31.0634 7.14286 30.9686 7.23272 30.8262 7.23272C30.6839 7.23272 30.589 7.14286 30.589 7.00807C30.589 6.87329 30.6839 6.78343 30.8262 6.78343ZM29.5453 7.053C29.6876 7.09793 29.6876 7.27765 29.6402 7.41244C29.6402 7.45737 29.5928 7.5023 29.5453 7.54722C29.403 7.54722 29.3081 7.45737 29.3081 7.32258C29.3081 7.18779 29.4504 7.053 29.5453 7.053ZM28.5965 7.77187C28.5965 7.90666 28.5016 7.99652 28.3593 7.99652C28.2169 7.99652 28.1221 7.90666 28.1221 7.77187C28.1221 7.63708 28.2169 7.54722 28.3593 7.54722C28.5016 7.54722 28.5965 7.63708 28.5965 7.77187ZM27.4579 5.92977V5.52541V5.03119L27.9323 5.25584L28.3118 5.43555L28.5016 5.52541V5.70513V6.10949V6.60371L28.0272 6.37907L27.6476 6.19935L27.4579 6.10949V5.92977Z" fill="#03A06C"/>
<path d="M23.1876 13.0285H23.3299C23.6146 12.9836 23.8992 12.9836 24.1839 12.9386C24.1839 12.085 24.0415 11.1864 23.4722 10.7371L23.1401 10.5125C22.8555 10.5125 22.6183 10.6472 22.4285 10.8719C21.7643 11.7255 22.7132 12.6241 23.1876 13.0285Z" fill="#03A06C"/>
<path d="M18.9184 12.6242C19.1556 12.9387 19.4402 13.2532 19.7723 13.4778C20.5788 12.4445 20.3891 10.5125 18.8235 10.2429L18.776 10.3328C18.6812 10.6024 18.5863 10.8719 18.5863 11.1864C19.0132 11.5459 19.1556 12.1299 18.9184 12.6242Z" fill="#03A06C"/>
<path d="M19.441 15.1851C19.9629 14.8706 20.5797 14.7358 21.1964 14.7808C19.2513 13.7474 17.7331 12.2198 18.4922 10.2878C17.8755 10.4676 17.5908 10.5574 17.1638 10.6473C16.4522 12.3097 17.7806 14.2865 19.441 15.1851Z" fill="#03A06C"/>
<path d="M18.8243 16.3532C20.8169 15.814 21.0541 16.8923 22.9043 17.2967C21.9555 17.5663 20.9117 17.4764 20.0578 17.072C20.6745 17.8808 21.3862 18.1503 24.0903 18.1054C23.1415 17.3865 23.6159 15.814 22.2401 15.0502C21.5759 14.9604 20.8643 15.0053 20.2476 15.1401C19.5834 15.2749 19.0141 15.7242 18.8243 16.3532Z" fill="#03A06C"/>
<path d="M47.8584 10.6473C47.4314 10.5125 47.1468 10.4226 46.53 10.2878C47.2891 12.2198 45.7709 13.7923 43.8258 14.7808C44.4426 14.7358 45.0593 14.9156 45.5812 15.1851C47.1942 14.2865 48.5226 12.3097 47.8584 10.6473Z" fill="#03A06C"/>
<path d="M37.2305 5.52527L36.8035 5.70499V6.06442L37.1831 5.92963L37.2305 5.52527Z" fill="#03A06C"/>
<path d="M20.389 16.8025C20.9108 16.8924 20.816 17.162 21.6225 17.2069C21.4327 17.0272 20.7211 16.533 20.389 16.8025Z" fill="#03A06C"/>
<path d="M18.0167 14.5111C17.6846 14.2415 17.4 13.927 17.1628 13.5676C15.7395 13.5676 13.8893 12.2646 12.4186 13.1183L12.7507 14.1517C14.3637 13.5226 15.7395 15.0502 18.0167 14.5111Z" fill="#03A06C"/>
<path d="M41.6424 12.9836H41.7848C42.2592 12.6241 43.208 11.6806 42.4964 10.827C42.3541 10.6023 42.0694 10.4675 41.7848 10.4675L41.5001 10.7371C40.9308 11.1864 40.8359 12.085 40.7885 12.9386C41.0731 12.9386 41.3578 12.9836 41.6424 12.9836Z" fill="#03A06C"/>
<path d="M40.3616 10.5125C40.2667 10.6023 40.1244 10.6023 39.9821 10.6472C39.8397 10.6472 39.7449 10.6023 39.6025 10.5125L39.4602 10.7371L38.6063 10.4675C39.223 10.9618 39.4128 11.9053 39.4128 12.8488C39.6025 12.8488 39.7923 12.8488 39.9821 12.8488C40.1718 12.8488 40.3616 12.8488 40.5514 12.8488C40.5514 11.8603 40.6937 10.9618 41.3579 10.4675L40.5039 10.7371L40.3616 10.5125Z" fill="#03A06C"/>
<path d="M40.3621 10.0632C40.3621 9.88344 40.2198 9.74866 40.03 9.74866C39.8403 9.74866 39.6505 9.88345 39.698 10.1081C39.698 10.2878 39.8403 10.4226 40.0775 10.4226C40.3147 10.4226 40.3621 10.2429 40.3621 10.0632Z" fill="#03A06C"/>
<path d="M44.5365 16.8025C44.2044 16.533 43.4928 17.0272 43.303 17.2069C44.1095 17.162 44.0147 16.8924 44.5365 16.8025Z" fill="#03A06C"/>
<path d="M30.3996 5.92971C30.7792 5.83985 31.1587 5.88478 31.4908 6.01956C31.3485 5.57027 31.1587 5.16591 30.9215 4.76155C30.4471 4.04268 29.0238 3.4586 27.7903 3.68325C29.0713 3.90789 30.0675 4.76155 30.3996 5.92971Z" fill="#03A06C"/>
<path d="M40.8361 18.1054C43.5403 18.1504 44.2519 17.9257 44.8212 17.0721C43.9198 17.4764 42.9235 17.5663 41.9747 17.2967C43.8249 16.8923 44.0621 15.814 46.0547 16.3532C45.8649 15.7242 45.343 15.23 44.6314 15.0952C43.9672 14.9604 43.3031 14.9154 42.6389 15.0053C41.3105 15.814 41.8324 17.3866 40.8361 18.1054Z" fill="#03A06C"/>
<path d="M39.698 9.43419H40.2673L40.1724 9.07476L40.5519 9.16461V8.67039L40.1724 8.76025L40.2673 8.40082H39.698L39.7929 8.76025L39.4133 8.67039V9.16461L39.7929 9.07476L39.698 9.43419Z" fill="#03A06C"/>
<path d="M32.0591 6.82824C32.0591 7.05289 32.2489 7.23261 32.4861 7.23261C32.7233 7.23261 32.8656 7.05289 32.8656 6.82824C32.8656 6.6036 32.6759 6.46881 32.4861 6.46881C32.2489 6.46881 32.0591 6.6036 32.0591 6.82824Z" fill="#03A06C"/>
<path d="M34.5271 5.92965C34.8592 4.76149 35.8555 3.86291 37.089 3.68319C35.9029 3.45855 34.4322 3.9977 33.9578 4.76149C33.7206 5.16586 33.5308 5.57022 33.3885 6.01951C33.8155 5.88472 34.1476 5.88473 34.5271 5.92965Z" fill="#03A06C"/>
<path d="M31.9643 6.33399C32.1066 6.1992 32.2963 6.15428 32.4861 6.15428C32.6759 6.15428 32.8656 6.24413 33.008 6.33399C33.1503 5.70498 33.4349 5.1209 33.767 4.58175L33.8145 4.53682C33.767 4.31218 33.6247 4.13246 33.4349 4.0426C33.2452 4.40204 32.9131 4.62668 32.4861 4.62668C32.0591 4.62668 31.6796 4.40204 31.5373 4.0426C31.3475 4.13246 31.2526 4.31218 31.1577 4.49189C31.2052 4.53682 31.2052 4.58175 31.2526 4.62668C31.5847 5.1209 31.8219 5.70498 31.9643 6.33399Z" fill="#03A06C"/>
<path d="M31.9654 2.6049H32.8668L32.6296 1.88603L33.3887 2.15561V1.30195L32.6296 1.57153L32.8668 0.852661H31.9654L32.2501 1.57153L31.491 1.30195V2.15561L32.2501 1.88603L31.9654 2.6049Z" fill="#03A06C"/>
<path d="M32.4393 2.91937C32.0598 2.91937 31.7277 3.23388 31.7277 3.59331C31.7277 3.95274 32.0598 4.26725 32.4393 4.26725C32.8189 4.26725 33.1509 3.95274 33.1509 3.59331C33.1509 3.23388 32.8189 2.91937 32.4393 2.91937Z" fill="#03A06C"/>
<path d="M27.2685 20.8911C27.2685 20.8911 27.7904 23.2274 27.0787 24.4405C26.3197 25.6536 29.4034 23.4071 29.4034 23.4071L30.2099 24.1709L31.7755 22.6433H33.6257L34.8592 24.4405L35.6657 23.4521L38.4173 25.2043C38.4173 25.2043 37.5159 23.0477 37.5634 22.2839C37.6108 21.5201 37.2313 19.7229 37.2313 19.7229L36.3773 20.4867L35.5234 19.1389L34.1001 18.7794L33.5308 19.8577L32.6769 20.4418H32.2499L30.9215 18.7345H29.5932C29.5932 18.7345 28.6918 20.307 28.7392 20.2621C28.7866 20.2172 27.6955 19.4983 27.6955 19.4983L27.2685 20.8911Z" fill="#03A06C"/>
<path d="M13.2737 21.4302C13.2737 21.4302 14.5546 22.2839 13.2737 21.9694C11.9927 21.6549 13.843 23.9463 13.843 23.9463C13.843 23.9463 15.6457 24.7999 14.2225 24.6651C12.8467 24.5304 14.1276 26.642 14.1276 26.642C14.1276 26.642 15.7406 27.2261 14.175 27.1362C12.6095 27.0464 14.8392 29.3378 14.8392 29.3378C14.8392 29.3378 16.2625 29.8769 14.9341 29.7871C13.6057 29.6972 17.4011 30.5509 17.4011 30.5509H18.7769V28.7986L20.6271 27.1812L18.682 22.823L13.2737 21.4302Z" fill="#03A06C"/>
<path d="M18.5386 33.7858C18.5386 33.7858 20.1517 33.6959 19.3926 34.1003C18.6335 34.5046 20.3889 35.7177 20.3889 35.7177C20.3889 35.7177 21.5749 35.1786 21.053 35.8076C20.5312 36.4366 21.8121 35.3583 21.8121 35.3583L21.9544 34.3699L22.334 31.4944L18.5386 33.7858Z" fill="#03A06C"/>
<path d="M4.92386 14.3764C4.92386 14.3764 5.49316 15.1851 6.01502 15.2301C6.53688 15.2301 6.72665 18.0157 6.72665 18.0157C6.72665 18.0157 5.96758 17.2968 6.48944 18.2403C7.0113 19.1838 5.39828 19.9926 5.39828 19.9926C5.39828 19.9926 3.73782 17.9258 2.97876 16.533C2.21969 15.1402 3.54806 14.5561 3.54806 14.5561L4.92386 14.3764Z" fill="#03A06C"/>
<path d="M4.2586 21.9694C4.2586 21.9694 5.3972 23.497 4.30605 22.5534C3.21489 21.6099 5.30232 25.8782 5.30232 25.8782C5.30232 25.8782 6.44092 27.1362 5.49209 26.5072C4.54325 25.8782 6.77301 29.4725 6.77301 29.4725C6.91534 29.6523 8.43347 30.7755 6.96278 30.0117C5.68185 29.3827 10.426 32.6625 10.7581 32.3929L14.6009 32.7973L15.1702 32.1683L12.5609 31.4494L12.039 30.1914L11.5172 29.5624L9.90416 28.0348L10.3786 27.4957L10.3311 27.0913L9.90416 26.3275L4.2586 21.9694Z" fill="#03A06C"/>
<path d="M11.9915 35.8075C11.9915 35.8075 14.0789 35.9872 12.9403 36.1669C11.8017 36.3466 14.3162 37.7844 14.3162 37.7844C14.3162 37.7844 16.0715 37.5148 15.0752 37.9641C14.0789 38.4134 15.9766 39.8961 15.9766 39.8961C15.9766 39.8961 17.4473 39.3569 16.3562 40.0758C15.265 40.7946 18.6333 41.2889 18.6333 41.2889C18.6333 41.2889 19.7245 40.6599 19.1078 41.3338C18.491 42.0077 21.1003 42.5469 21.1003 42.5469C21.1003 42.5469 21.9068 41.3338 21.6696 42.3672C21.4324 43.4005 23.7096 43.5803 23.7096 43.5803C23.7096 43.5803 24.3264 42.8165 24.1366 43.5353C23.9468 44.2542 24.611 42.7715 24.611 42.7715L24.0417 42.1874L22.8557 40.4801L22.571 39.8961L22.1915 39.0424L21.9543 38.1887L21.8119 37.5597L19.9143 37.6496L19.5822 38.009L19.2501 38.3235C19.2501 38.3235 18.9654 39.267 18.918 38.1887C18.918 37.0655 19.0603 36.7959 19.0603 36.7959L19.772 36.2568C19.772 36.2568 18.6808 36.4365 18.491 36.4365C18.3013 36.4365 15.8343 36.2119 15.8343 36.2119L15.9766 35.9872L16.2138 35.6278L12.6557 35.4031L11.9915 35.8075Z" fill="#03A06C"/>
<path d="M51.7488 21.4302C51.7488 21.4302 50.4679 22.2839 51.7488 21.9694C53.0297 21.6549 51.1795 23.9463 51.1795 23.9463C51.1795 23.9463 49.4241 24.7999 50.7999 24.6651C52.1758 24.5304 50.8948 26.642 50.8948 26.642C50.8948 26.642 49.2818 27.2261 50.8474 27.1362C52.413 27.0464 50.1832 29.3378 50.1832 29.3378C50.1832 29.3378 48.76 29.8769 50.0883 29.7871C51.4167 29.6972 47.6214 30.5509 47.6214 30.5509H46.2455V28.7986L44.3953 27.1812L46.3404 22.823L51.7488 21.4302Z" fill="#03A06C"/>
<path d="M46.4832 33.7858C46.4832 33.7858 44.8702 33.6959 45.6292 34.1003C46.3883 34.5046 44.6329 35.7177 44.6329 35.7177C44.6329 35.7177 43.4469 35.1786 43.9688 35.8076C44.4432 36.4366 43.2097 35.3583 43.2097 35.3583L43.0674 34.3699L42.6878 31.4944L46.4832 33.7858Z" fill="#03A06C"/>
<path d="M60.0985 14.3764C60.0985 14.3764 59.5292 15.1851 59.0074 15.2301C58.4855 15.2301 58.2957 18.0157 58.2957 18.0157C58.2957 18.0157 59.0548 17.2968 58.533 18.2403C58.0111 19.1838 59.6241 19.9926 59.6241 19.9926C59.6241 19.9926 60.9999 18.7795 61.0948 18.6896C61.1897 18.5998 62.2334 16.8475 62.2334 16.8475C62.2334 16.8475 61.2371 17.9707 62.0436 16.533C62.8501 15.1402 61.4743 14.5561 61.4743 14.5561L60.0985 14.3764Z" fill="#03A06C"/>
<path d="M60.7627 21.9694C60.7627 21.9694 59.6241 23.497 60.7153 22.5534C61.8064 21.6099 59.719 25.8782 59.719 25.8782C59.719 25.8782 58.5804 27.1362 59.5292 26.5072C60.4781 25.8782 58.2483 29.4725 58.2483 29.4725C58.106 29.6523 56.5879 30.7755 58.0585 30.0117C59.3395 29.3827 54.5953 32.6625 54.2632 32.3929L50.4204 32.7973L49.8511 32.1683L52.4604 31.4494L52.9823 30.1914L53.5041 29.5624L55.1172 28.0348L54.6427 27.4957L54.6902 27.0913L55.1172 26.3275L60.7627 21.9694Z" fill="#03A06C"/>
<path d="M53.0289 35.8075C53.0289 35.8075 50.9415 35.9872 52.0801 36.1669C53.2187 36.3466 50.7043 37.7844 50.7043 37.7844C50.7043 37.7844 48.9489 37.5148 49.9452 37.9641C50.9415 38.4134 49.0438 39.8961 49.0438 39.8961C49.0438 39.8961 47.5731 39.3569 48.6643 40.0758C49.7554 40.7946 46.3871 41.2889 46.3871 41.2889C46.3871 41.2889 45.2959 40.6599 45.9127 41.3338C46.5294 42.0077 43.9201 42.5469 43.9201 42.5469C43.9201 42.5469 43.1136 41.3338 43.3508 42.3672C43.588 43.4005 41.3108 43.5803 41.3108 43.5803C41.3108 43.5803 40.6941 42.8165 40.8838 43.5353C41.0736 44.2542 40.4094 42.7715 40.4094 42.7715L40.9787 42.1874L42.1648 40.4801L42.4494 39.8961L42.829 38.9525L43.0662 38.0989L43.161 37.5148L45.0587 37.6047L45.3908 37.9641L45.7229 38.2786C45.7229 38.2786 46.0075 39.2221 46.055 38.1438C46.1024 37.0655 45.9127 36.7959 45.9127 36.7959L45.201 36.2568C45.201 36.2568 46.2922 36.4365 46.482 36.4365C46.6717 36.4365 49.1387 36.2119 49.1387 36.2119L48.9964 35.9872L48.7592 35.6278L52.3173 35.4031L53.0289 35.8075Z" fill="#03A06C"/>
</svg>
