<svg width="91" height="63" viewBox="0 0 91 63" fill="none" xmlns="http://www.w3.org/2000/svg">
<path d="M81.7783 36.525C81.6465 35.9706 81.1511 35.5793 80.5812 35.5793C78.9057 35.5793 75.8996 34.745 73.3575 33.6402V28.3007C73.3575 26.2653 71.7016 24.6094 69.6662 24.6094H67.2053V2.46088C67.2053 1.10395 66.1014 0 64.7444 0H27.8313C26.4744 0 25.3704 1.10395 25.3704 2.46088V17.2267H21.6791C20.3222 17.2267 19.2183 18.3307 19.2183 19.6876V55.3704C19.2183 57.4058 20.8742 59.0617 22.9096 59.0617H62.876C64.3234 60.3993 66.0386 61.6759 68.0722 62.8368C68.2612 62.9448 68.4717 62.9986 68.6822 62.9986C68.8927 62.9986 69.1032 62.9446 69.2923 62.8368C77.8075 57.9759 80.7547 51.0881 81.7276 46.166C82.7792 40.8454 81.8196 36.699 81.7783 36.525ZM27.8313 2.46088H64.7444V24.6094H43.4297L41.3672 19.4533C40.8262 18.1007 39.5761 17.2266 38.1825 17.2266H27.8313V2.46088ZM21.6791 55.3704V54.1399H28.0769C28.7565 54.1399 29.3074 53.589 29.3074 52.9094C29.3074 52.2299 28.7565 51.679 28.0769 51.679H21.6791V19.6876H38.1825C38.6164 19.6876 38.9471 20.0289 39.0824 20.3673L41.4544 26.2968C41.6413 26.764 42.0937 27.0702 42.5968 27.0702H69.6664C70.3449 27.0702 70.8969 27.6222 70.8969 28.3007V32.3797C70.3514 32.0421 69.8878 31.6993 69.5475 31.3626C69.0681 30.8885 68.2966 30.8885 67.8171 31.3626C65.7991 33.3581 59.5176 35.5792 56.7831 35.5792C56.2133 35.5792 55.718 35.9705 55.5861 36.5249C55.5447 36.6989 54.5851 40.8452 55.6369 46.1659C56.2381 49.2077 57.5941 53 60.5514 56.6009H22.9096C22.2311 56.6009 21.6791 56.0489 21.6791 55.3704ZM79.3133 45.6887C78.085 51.9026 74.5099 56.8291 68.6821 60.3418C62.8865 56.8483 59.318 51.9546 58.0704 45.7864C57.3724 42.3347 57.6244 39.3834 57.8262 37.9757C61.0008 37.6185 66.0149 35.8259 68.6822 33.845C71.3501 35.8264 76.3657 37.6193 79.5403 37.976C79.7414 39.365 79.9909 42.2605 79.3133 45.6887Z" fill="#03A06C"/>
<path d="M32.3226 7.38275H60.2534C60.9329 7.38275 61.4838 6.83188 61.4838 6.15231C61.4838 5.47274 60.9329 4.92188 60.2534 4.92188H32.3226C31.643 4.92188 31.0921 5.47274 31.0921 6.15231C31.0921 6.83188 31.643 7.38275 32.3226 7.38275Z" fill="#03A06C"/>
<path d="M61.4838 11.0741C61.4838 10.3945 60.9329 9.84363 60.2534 9.84363H32.3226C31.643 9.84363 31.0921 10.3945 31.0921 11.0741C31.0921 11.7536 31.643 12.3045 32.3226 12.3045H60.2534C60.9328 12.3045 61.4838 11.7536 61.4838 11.0741Z" fill="#03A06C"/>
<path d="M60.2534 14.7654H46.2879C45.6084 14.7654 45.0575 15.3162 45.0575 15.9958C45.0575 16.6754 45.6084 17.2263 46.2879 17.2263H60.2534C60.933 17.2263 61.4838 16.6754 61.4838 15.9958C61.4838 15.3162 60.9328 14.7654 60.2534 14.7654Z" fill="#03A06C"/>
<path d="M60.2535 19.6871H52.9939C52.3143 19.6871 51.7634 20.238 51.7634 20.9176C51.7634 21.5971 52.3143 22.148 52.9939 22.148H60.2535C60.933 22.148 61.4839 21.5971 61.4839 20.9176C61.4839 20.238 60.9329 19.6871 60.2535 19.6871Z" fill="#03A06C"/>
<path d="M73.2784 40.3089C72.2924 40.3089 71.3655 40.6929 70.6683 41.3901L67.2723 44.7861L66.6953 44.209C65.9981 43.5118 65.0712 43.128 64.0853 43.128C63.0993 43.128 62.1724 43.512 61.4754 44.209C60.7782 44.9062 60.3942 45.8331 60.3942 46.819C60.3942 47.805 60.7782 48.7318 61.4753 49.429L64.6623 52.6161C65.3819 53.3356 66.3271 53.6953 67.2722 53.6953C68.2173 53.6953 69.1627 53.3355 69.8822 52.6161L75.8882 46.6101C77.3274 45.171 77.3274 42.8292 75.8882 41.3902C75.1913 40.6929 74.2644 40.3089 73.2784 40.3089ZM74.1483 44.8698L68.1424 50.8758C67.6628 51.3554 66.8823 51.3553 66.4027 50.8758L63.2156 47.6887C62.9832 47.4564 62.8553 47.1474 62.8553 46.8189C62.8553 46.4902 62.9833 46.1814 63.2156 45.9491C63.4479 45.7167 63.7569 45.5888 64.0854 45.5888C64.4139 45.5888 64.7229 45.7168 64.9552 45.9491L66.4023 47.3962C66.633 47.6269 66.946 47.7566 67.2723 47.7566C67.5987 47.7566 67.9117 47.6269 68.1424 47.3962L72.4084 43.1302C72.6407 42.8977 72.9497 42.7699 73.2782 42.7699C73.6069 42.7699 73.9157 42.8979 74.148 43.1302C74.6279 43.6098 74.6279 44.3901 74.1483 44.8698Z" fill="#03A06C"/>
<path d="M33.6136 51.679C32.934 51.679 32.3831 52.2298 32.3831 52.9094C32.3831 53.589 32.934 54.1399 33.6136 54.1399H33.6144C34.294 54.1399 34.8445 53.589 34.8445 52.9094C34.8445 52.2298 34.2932 51.679 33.6136 51.679Z" fill="#03A06C"/>
<g filter="url(#filter0_d)">
<rect x="11.1023" y="27.7236" width="66.7283" height="16.4812" rx="1.1" transform="rotate(-15 11.1023 27.7236)" fill="white" stroke="#03A06C" stroke-width="1.8"/>
<path d="M22.7046 36.1752L21.2263 30.6578L25.5923 29.488L27.0706 35.0053L25.9038 35.318L24.6863 30.7743L22.654 31.3188L23.8715 35.8625L22.7046 36.1752ZM32.7286 30.5243C32.8818 31.0961 32.9204 31.6213 32.8443 32.1C32.7721 32.5721 32.5745 32.9784 32.2516 33.3189C31.9288 33.6594 31.466 33.9104 30.8632 34.0719C30.2656 34.2321 29.7393 34.2461 29.2843 34.114C28.8344 33.9806 28.4569 33.7256 28.1517 33.3491C27.8517 32.9712 27.6251 32.4963 27.4719 31.9245C27.3186 31.3527 27.2782 30.8307 27.3504 30.3586C27.4279 29.8851 27.6287 29.4806 27.9529 29.1453C28.281 28.8034 28.7464 28.5517 29.3491 28.3902C29.9467 28.2301 30.4704 28.2168 30.9203 28.3502C31.3688 28.4785 31.743 28.7316 32.043 29.1095C32.3468 29.4808 32.5754 29.9524 32.7286 30.5243ZM28.7026 31.603C28.8572 32.18 29.0901 32.6062 29.4014 32.8817C29.7112 33.1521 30.1109 33.2217 30.6003 33.0906C31.1 32.9567 31.4138 32.6959 31.5419 32.3082C31.6685 31.9154 31.6545 31.4305 31.4999 30.8535C31.3439 30.2713 31.1136 29.8444 30.8089 29.5727C30.5042 29.301 30.1045 29.2314 29.61 29.3639C29.1154 29.4964 28.8016 29.7572 28.6684 30.1462C28.5352 30.5353 28.5466 31.0209 28.7026 31.603ZM36.6194 26.5333L36.8782 27.4992L34.56 28.1203L35.7795 32.6718L34.6127 32.9844L33.1343 27.4671L36.6194 26.5333ZM41.7778 31.0646L41.024 29.8586L39.0149 30.3969L38.965 31.8182L37.7055 32.1557L38.1682 26.0934L39.5978 25.7104L43.0374 30.7271L41.7778 31.0646ZM39.7373 27.7766C39.6881 27.696 39.6249 27.5942 39.5478 27.4713C39.4707 27.3484 39.3929 27.2229 39.3144 27.0949C39.236 26.9668 39.17 26.8547 39.1167 26.7586C39.1185 26.8685 39.117 27.007 39.112 27.1739C39.1108 27.3344 39.1083 27.4897 39.1043 27.6398C39.1042 27.7834 39.1014 27.8863 39.0959 27.9485L39.0456 29.3368L40.4829 28.9517L39.7373 27.7766ZM50.6754 28.6805L43.7362 30.5398L42.2578 25.0224L43.4246 24.7098L44.6421 29.2535L46.3576 28.7938L45.1401 24.2501L46.3147 23.9354L47.5322 28.4791L49.2477 28.0195L48.0302 23.4757L49.197 23.1631L50.6754 28.6805ZM55.2432 27.4565L52.0673 28.3075L50.5889 22.7901L53.7649 21.9391L54.0216 22.8973L52.0125 23.4357L52.3376 24.6489L54.2076 24.1478L54.4644 25.106L52.5943 25.6071L52.9753 27.0289L54.9844 26.4906L55.2432 27.4565ZM60.9118 25.9376L59.745 26.2503L59.1073 23.8702L56.9204 24.4562L57.5581 26.8362L56.3913 27.1489L54.9129 21.6315L56.0798 21.3189L56.6595 23.4825L58.8464 22.8966L58.2666 20.7329L59.4335 20.4202L60.9118 25.9376ZM66.5662 21.4575C66.7194 22.0293 66.758 22.5546 66.6819 23.0332C66.6097 23.5054 66.4121 23.9117 66.0892 24.2522C65.7663 24.5927 65.3035 24.8437 64.7008 25.0052C64.1032 25.1653 63.5769 25.1793 63.1219 25.0473C62.672 24.9138 62.2945 24.6588 61.9893 24.2823C61.6893 23.9044 61.4627 23.4296 61.3095 22.8578C61.1562 22.2859 61.1158 21.764 61.188 21.2918C61.2654 20.8183 61.4663 20.4139 61.7905 20.0785C62.1186 19.7367 62.5839 19.485 63.1867 19.3235C63.7843 19.1633 64.308 19.15 64.7579 19.2835C65.2063 19.4117 65.5806 19.6648 65.8806 20.0427C66.1844 20.4141 66.4129 20.8857 66.5662 21.4575ZM62.5402 22.5363C62.6948 23.1132 62.9277 23.5395 63.2389 23.815C63.5488 24.0853 63.9484 24.1549 64.4378 24.0238C64.9376 23.8899 65.2514 23.6291 65.3794 23.2414C65.5061 22.8486 65.4921 22.3637 65.3375 21.7867C65.1815 21.2046 64.9512 20.7777 64.6465 20.5059C64.3418 20.2342 63.9421 20.1646 63.4476 20.2971C62.953 20.4296 62.6391 20.6904 62.506 21.0795C62.3728 21.4685 62.3842 21.9541 62.5402 22.5363Z" fill="#03A06C"/>
</g>
<defs>
<filter id="filter0_d" x="0.449005" y="0.799744" width="90.0267" height="54.4967" filterUnits="userSpaceOnUse" color-interpolation-filters="sRGB">
<feFlood flood-opacity="0" result="BackgroundImageFix"/>
<feColorMatrix in="SourceAlpha" type="matrix" values="0 0 0 0 0 0 0 0 0 0 0 0 0 0 0 0 0 0 127 0"/>
<feOffset dy="1"/>
<feGaussianBlur stdDeviation="5"/>
<feColorMatrix type="matrix" values="0 0 0 0 0 0 0 0 0 0 0 0 0 0 0 0 0 0 0.1 0"/>
<feBlend mode="normal" in2="BackgroundImageFix" result="effect1_dropShadow"/>
<feBlend mode="normal" in="SourceGraphic" in2="effect1_dropShadow" result="shape"/>
</filter>
</defs>
</svg>
