<svg width="63" height="63" viewBox="0 0 63 63" fill="none" xmlns="http://www.w3.org/2000/svg">
<path d="M16.2316 58.7927H13.134C12.4606 58.7927 11.9145 59.3387 11.9145 60.0122C11.9145 60.6857 12.4606 61.2317 13.134 61.2317H16.2316C16.9051 61.2317 17.4511 60.6857 17.4511 60.0122C17.4511 59.3387 16.9051 58.7927 16.2316 58.7927Z" fill="#03A06C"/>
<path d="M23.8659 58.7927H20.7683C20.0948 58.7927 19.5488 59.3387 19.5488 60.0122C19.5488 60.6857 20.0948 61.2317 20.7683 61.2317H23.8659C24.5393 61.2317 25.0854 60.6857 25.0854 60.0122C25.0854 59.3387 24.5393 58.7927 23.8659 58.7927Z" fill="#03A06C"/>
<path d="M31.4999 58.7927H28.4024C27.7289 58.7927 27.1829 59.3387 27.1829 60.0122C27.1829 60.6857 27.7289 61.2317 28.4024 61.2317H31.4999C32.1734 61.2317 32.7194 60.6857 32.7194 60.0122C32.7194 59.3387 32.1734 58.7927 31.4999 58.7927Z" fill="#03A06C"/>
<path d="M39.1342 58.7927H36.0367C35.3632 58.7927 34.8171 59.3387 34.8171 60.0122C34.8171 60.6857 35.3632 61.2317 36.0367 61.2317H39.1342C39.8077 61.2317 40.3537 60.6857 40.3537 60.0122C40.3537 59.3387 39.8077 58.7927 39.1342 58.7927Z" fill="#03A06C"/>
<path d="M46.7925 58.7927H46.7681H43.695C43.0215 58.7927 42.4755 59.3387 42.4755 60.0122C42.4755 60.6857 43.0215 61.2317 43.695 61.2317H46.7925C47.466 61.2317 48.012 60.6857 48.012 60.0122C48.012 59.3387 47.466 58.7927 46.7925 58.7927Z" fill="#03A06C"/>
<path d="M60.2073 1.76828H2.79268C1.25305 1.77499 0.00670732 3.02133 0 4.56096V15.4634C0.00670732 17.003 1.25305 18.2494 2.79268 18.2561H8.07317V60.0122C8.07317 60.6856 8.61921 61.2317 9.29268 61.2317C9.96616 61.2317 10.5122 60.6856 10.5122 60.0122V14.061C10.5122 12.4715 11.8008 11.1829 13.3902 11.1829H50.4756C49.9192 12.0398 49.6227 13.0393 49.622 14.061L49.5488 60.0122C49.5488 60.6856 50.0948 61.2317 50.7683 61.2317C51.4418 61.2317 51.9878 60.6856 51.9878 60.0122L52.061 18.2683H60.2073C61.747 18.2616 62.9933 17.0152 63 15.4756V4.56096C62.9933 3.02133 61.747 1.77499 60.2073 1.76828ZM60.561 4.56096V15.4756C60.561 15.6709 60.4026 15.8293 60.2073 15.8293H52.061V14.061C52.061 12.4715 53.3495 11.1829 54.939 11.1829H56.1585C56.832 11.1829 57.378 10.6369 57.378 9.9634C57.378 9.28993 56.832 8.74389 56.1585 8.74389H6.53659C5.86311 8.74389 5.31707 9.28993 5.31707 9.9634C5.31707 10.6369 5.86311 11.1829 6.53659 11.1829H8.97561C8.41372 12.0378 8.11281 13.0379 8.10976 14.061V15.8293H2.79268C2.59741 15.8293 2.43902 15.6709 2.43902 15.4756V4.56096C2.43902 4.36569 2.59741 4.2073 2.79268 4.2073H60.2073C60.4026 4.2073 60.561 4.36569 60.561 4.56096Z" fill="#03A06C"/>
<path d="M30.7561 22.3537H17.0488C16.3753 22.3537 15.8293 22.8997 15.8293 23.5732C15.8293 24.2467 16.3753 24.7927 17.0488 24.7927H30.7561C31.4296 24.7927 31.9756 24.2467 31.9756 23.5732C31.9756 22.8997 31.4296 22.3537 30.7561 22.3537Z" fill="#03A06C"/>
<path d="M43.2612 22.3536H38.7996C38.358 22.3536 38 22.8997 38 23.5732C38 24.2466 38.358 24.7927 38.7996 24.7927H43.2612C43.7028 24.7927 44.0608 24.2466 44.0608 23.5732C44.0608 22.8997 43.7028 22.3536 43.2612 22.3536Z" fill="#03A06C"/>
<path d="M26.1564 29.4634H16.673C16.207 29.4634 15.8293 30.0094 15.8293 30.6829C15.8293 31.3564 16.207 31.9024 16.673 31.9024H26.1564C26.6224 31.9024 27.0002 31.3564 27.0002 30.6829C27.0002 30.0094 26.6224 29.4634 26.1564 29.4634Z" fill="#03A06C"/>
<path d="M43.2612 29.4634H38.7996C38.358 29.4634 38 30.0095 38 30.683C38 31.3564 38.358 31.9025 38.7996 31.9025H43.2612C43.7028 31.9025 44.0608 31.3564 44.0608 30.683C44.0608 30.0095 43.7028 29.4634 43.2612 29.4634Z" fill="#03A06C"/>
<path d="M30.7559 36.5854H17.0486C16.3751 36.5854 15.8291 37.1314 15.8291 37.8049C15.8291 38.4784 16.3751 39.0244 17.0486 39.0244H30.7559C31.4294 39.0244 31.9754 38.4784 31.9754 37.8049C31.9754 37.1314 31.4294 36.5854 30.7559 36.5854Z" fill="#03A06C"/>
<path d="M39.9297 44H16.8994C16.3083 44 15.8291 44.546 15.8291 45.2195C15.8291 45.893 16.3083 46.439 16.8994 46.439H39.9297C40.5208 46.439 41 45.893 41 45.2195C41 44.546 40.5208 44 39.9297 44Z" fill="#03A06C"/>
<path d="M31.9297 51H16.8994C16.3083 51 15.8291 51.546 15.8291 52.2195C15.8291 52.893 16.3083 53.439 16.8994 53.439H31.9297C32.5208 53.439 33 52.893 33 52.2195C33 51.546 32.5208 51 31.9297 51Z" fill="#03A06C"/>
<path d="M43.2612 36.5854H38.7996C38.358 36.5854 38 37.1314 38 37.8049C38 38.4784 38.358 39.0244 38.7996 39.0244H43.2612C43.7028 39.0244 44.0608 38.4784 44.0608 37.8049C44.0608 37.1314 43.7028 36.5854 43.2612 36.5854Z" fill="#03A06C"/>
</svg>
