<svg width="64" height="52" viewBox="0 0 64 52" fill="none" xmlns="http://www.w3.org/2000/svg">
<path d="M35.2874 49.4386C35.0163 49.4386 34.8032 49.5346 34.648 49.7267C34.4928 49.9187 34.4151 50.1838 34.4151 50.5219C34.4151 50.8758 34.4895 51.1435 34.6381 51.3251C34.7881 51.5066 35.0045 51.5974 35.2874 51.5974C35.4097 51.5974 35.5281 51.5856 35.6426 51.5619C35.757 51.5369 35.8761 51.5053 35.9997 51.4672V51.8717C35.7735 51.9572 35.5169 52 35.2301 52C34.8078 52 34.4835 51.8724 34.2573 51.6171C34.031 51.3606 33.9178 50.9942 33.9178 50.518C33.9178 50.218 33.9724 49.9556 34.0816 49.7306C34.1921 49.5057 34.3513 49.3333 34.5592 49.2136C34.767 49.0939 35.0111 49.034 35.2913 49.034C35.586 49.034 35.8583 49.0959 36.1083 49.2195L35.9386 49.6122C35.8412 49.5662 35.7379 49.526 35.6287 49.4918C35.5209 49.4563 35.4071 49.4386 35.2874 49.4386Z" fill="#03A06C"/>
<path d="M39.1828 50.514C39.1828 50.9837 39.065 51.3488 38.8295 51.6093C38.5954 51.8697 38.2632 52 37.833 52C37.3975 52 37.0627 51.8711 36.8285 51.6132C36.5957 51.354 36.4793 50.9863 36.4793 50.5101C36.4793 50.0339 36.5963 49.6681 36.8305 49.4129C37.066 49.1577 37.4015 49.0301 37.8369 49.0301C38.2658 49.0301 38.5973 49.1597 38.8315 49.4188C39.0657 49.678 39.1828 50.0431 39.1828 50.514ZM36.9805 50.514C36.9805 50.8692 37.0522 51.1389 37.1956 51.3231C37.339 51.506 37.5515 51.5974 37.833 51.5974C38.1132 51.5974 38.3243 51.5066 38.4664 51.3251C38.6098 51.1435 38.6815 50.8732 38.6815 50.514C38.6815 50.1602 38.6105 49.8918 38.4684 49.7089C38.3276 49.526 38.1171 49.4346 37.8369 49.4346C37.5541 49.4346 37.3403 49.526 37.1956 49.7089C37.0522 49.8918 36.9805 50.1602 36.9805 50.514Z" fill="#03A06C"/>
<path d="M41.0496 51.9605L40.2128 49.551H40.1971C40.2194 49.9089 40.2306 50.2444 40.2306 50.5575V51.9605H39.8024V49.0755H40.4674L41.2686 51.3705H41.2804L42.1053 49.0755H42.7723V51.9605H42.3184V50.5338C42.3184 50.3904 42.3217 50.2036 42.3283 49.9733C42.3362 49.7431 42.3428 49.6037 42.348 49.555H42.3322L41.4659 51.9605H41.0496Z" fill="#03A06C"/>
<path d="M45.4422 49.9477C45.4422 50.249 45.3436 50.4798 45.1462 50.6403C44.9489 50.8008 44.668 50.8811 44.3036 50.8811H44.0037V51.9605H43.532V49.0755H44.3628C44.7233 49.0755 44.993 49.1491 45.1719 49.2965C45.3521 49.4438 45.4422 49.6609 45.4422 49.9477ZM44.0037 50.4844H44.2543C44.4963 50.4844 44.6739 50.4423 44.7871 50.3581C44.9002 50.274 44.9568 50.1424 44.9568 49.9635C44.9568 49.7977 44.9061 49.6741 44.8048 49.5925C44.7035 49.5109 44.5457 49.4701 44.3312 49.4701H44.0037V50.4844Z" fill="#03A06C"/>
<path d="M46.0185 51.9605V49.0755H46.4901V51.556H47.7116V51.9605H46.0185Z" fill="#03A06C"/>
<path d="M48.2089 51.9605V49.0755H48.6805V51.9605H48.2089Z" fill="#03A06C"/>
<path d="M51.234 51.9605L50.9459 51.1593H49.8428L49.5606 51.9605H49.0633L50.1428 49.0636H50.6558L51.7353 51.9605H51.234ZM50.8216 50.7528L50.5513 49.9674C50.5315 49.9148 50.5039 49.8319 50.4684 49.7188C50.4342 49.6056 50.4105 49.5228 50.3973 49.4701C50.3618 49.632 50.3098 49.8089 50.2414 50.001L49.981 50.7528H50.8216Z" fill="#03A06C"/>
<path d="M54.5197 51.9605H53.9415L52.5226 49.6616H52.5068L52.5167 49.7898C52.5351 50.0345 52.5443 50.2582 52.5443 50.4608V51.9605H52.1161V49.0755H52.6884L54.1033 51.3626H54.1151C54.1125 51.3323 54.1072 51.2225 54.0993 51.033C54.0915 50.8423 54.0875 50.6936 54.0875 50.5871V49.0755H54.5197V51.9605Z" fill="#03A06C"/>
<path d="M56.2779 51.9605H55.8063V49.48H54.9578V49.0755H57.1265V49.48H56.2779V51.9605Z" fill="#03A06C"/>
<path d="M41.9612 42.0608C41.9612 43.5053 41.5626 44.6183 40.7654 45.3998C39.9721 46.1812 38.8552 46.5719 37.4146 46.5719H34.6144V37.9168H37.61C38.9992 37.9168 40.0708 38.272 40.8246 38.9824C41.5824 39.6928 41.9612 40.719 41.9612 42.0608ZM39.534 42.1437C39.534 41.3504 39.3761 40.7624 39.0604 40.3795C38.7486 39.9967 38.273 39.8053 37.6337 39.8053H36.9529V44.6538H37.4738C38.1842 44.6538 38.7052 44.4486 39.0367 44.0381C39.3683 43.6237 39.534 42.9923 39.534 42.1437Z" fill="#03A06C"/>
<path d="M49.1778 43.9434C49.1778 44.4802 49.0416 44.9577 48.7693 45.3761C48.497 45.7905 48.1043 46.1141 47.5912 46.347C47.0781 46.5759 46.4763 46.6903 45.7856 46.6903C45.2094 46.6903 44.7259 46.6509 44.3352 46.5719C43.9445 46.4891 43.538 46.347 43.1157 46.1457V44.0618C43.5616 44.2907 44.0254 44.4703 44.5069 44.6006C44.9884 44.7268 45.4304 44.79 45.833 44.79C46.1803 44.79 46.4348 44.7308 46.5967 44.6124C46.7585 44.49 46.8394 44.3342 46.8394 44.1447C46.8394 44.0263 46.8058 43.9237 46.7387 43.8369C46.6756 43.7461 46.571 43.6553 46.425 43.5645C46.2829 43.4738 45.9001 43.2883 45.2765 43.0081C44.7121 42.7515 44.2878 42.5029 44.0037 42.2621C43.7234 42.0214 43.5143 41.7451 43.3761 41.4333C43.2419 41.1215 43.1749 40.7525 43.1749 40.3263C43.1749 39.529 43.4649 38.9074 44.0451 38.4614C44.6253 38.0155 45.4225 37.7925 46.4368 37.7925C47.3327 37.7925 48.2464 37.9997 49.1778 38.4141L48.4615 40.2197C47.6524 39.8487 46.9538 39.6632 46.3658 39.6632C46.0619 39.6632 45.8409 39.7165 45.7027 39.8231C45.5646 39.9296 45.4955 40.0618 45.4955 40.2197C45.4955 40.3894 45.5823 40.5414 45.756 40.6756C45.9336 40.8097 46.4112 41.0544 47.1887 41.4096C47.9346 41.7451 48.4516 42.1062 48.7397 42.493C49.0318 42.8758 49.1778 43.3593 49.1778 43.9434Z" fill="#03A06C"/>
<path d="M56.1753 43.9434C56.1753 44.4802 56.0392 44.9577 55.7668 45.3761C55.4945 45.7905 55.1018 46.1141 54.5887 46.347C54.0757 46.5759 53.4738 46.6903 52.7831 46.6903C52.2069 46.6903 51.7234 46.6509 51.3327 46.5719C50.942 46.4891 50.5355 46.347 50.1132 46.1457V44.0618C50.5591 44.2907 51.0229 44.4703 51.5044 44.6006C51.9859 44.7268 52.4279 44.79 52.8305 44.79C53.1778 44.79 53.4324 44.7308 53.5942 44.6124C53.756 44.49 53.8369 44.3342 53.8369 44.1447C53.8369 44.0263 53.8033 43.9237 53.7362 43.8369C53.6731 43.7461 53.5685 43.6553 53.4225 43.5645C53.2804 43.4738 52.8976 43.2883 52.274 43.0081C51.7096 42.7515 51.2853 42.5029 51.0012 42.2621C50.721 42.0214 50.5118 41.7451 50.3737 41.4333C50.2395 41.1215 50.1724 40.7525 50.1724 40.3263C50.1724 39.529 50.4625 38.9074 51.0426 38.4614C51.6228 38.0155 52.42 37.7925 53.4343 37.7925C54.3302 37.7925 55.2439 37.9997 56.1753 38.4141L55.459 40.2197C54.6499 39.8487 53.9513 39.6632 53.3633 39.6632C53.0594 39.6632 52.8384 39.7165 52.7002 39.8231C52.5621 39.9296 52.493 40.0618 52.493 40.2197C52.493 40.3894 52.5799 40.5414 52.7535 40.6756C52.9311 40.8097 53.4087 41.0544 54.1862 41.4096C54.9321 41.7451 55.4491 42.1062 55.7372 42.493C56.0293 42.8758 56.1753 43.3593 56.1753 43.9434Z" fill="#03A06C"/>
<path fill-rule="evenodd" clip-rule="evenodd" d="M57.4513 24.6336L54.1976 25.6683C54.8429 24.5028 55.6145 23.2414 56.3978 22.2656L57.4513 24.6336ZM46.7089 0.486328L53.0894 14.8287C52.3658 15.8339 50.1976 18.8578 48.1553 21.8257V12.3103H42.3623V25.071C41.5615 24.5238 40.72 24.1394 39.9098 24.0018V23.3667C39.9098 23.3179 39.8778 23.3006 39.836 23.3263C39.836 23.3263 39.2107 23.8335 36.4605 24.1041C35.6809 24.1926 35.311 24.1511 35.03 24.1041C31.1308 23.4425 30.9451 20.5599 30.9451 20.5599C30.9398 20.5122 30.9354 20.4339 30.9354 20.3856V19.2814C30.9354 19.2328 30.9398 19.1543 30.9466 19.1065C30.9466 19.1065 31.2102 16.0184 35.0301 15.6926H36.4607C38.148 15.9226 39.5032 16.7643 39.5032 16.7643C39.5446 16.7889 39.5782 16.7688 39.5782 16.7206V12.8542C39.5782 12.8055 39.5451 12.7465 39.5017 12.7232C39.5017 12.7232 38.742 12.2235 36.4232 12.0843C36.2994 12.0152 34.2813 12.005 33.7214 12.0843C25.2967 12.766 24.9842 18.9158 24.9842 19.1967V20.6908C24.9842 20.8742 24.9842 27.1618 33.7211 27.7193C34.4142 27.7725 35.6475 27.7393 36.1806 27.7249H36.1807C36.304 27.7216 36.3898 27.7193 36.4229 27.7193L36.4614 27.7192C36.6477 28.7475 37.1521 29.8496 37.851 30.8667L12.9403 38.7885L0 3.16226L46.7089 0.486328ZM48.799 7.47995C48.799 9.34062 47.214 10.849 45.2588 10.849C43.3036 10.849 41.7186 9.34062 41.7186 7.47995C41.7186 5.61928 43.3036 4.11092 45.2588 4.11092C47.214 4.11092 48.799 5.61928 48.799 7.47995ZM9.00315 27.5996C8.95509 27.5996 8.91641 27.5603 8.91641 27.5117L8.91677 12.3897C8.91678 12.3417 8.95609 12.3018 9.00459 12.3018C9.00459 12.3018 16.2785 12.3035 16.316 12.3018C18.1766 12.2136 23.8281 12.7419 23.8281 17.5562C23.8281 23.6573 14.8203 22.9998 14.8203 22.9998C14.7718 22.9971 14.7332 23.034 14.7332 23.0825V27.5118C14.7332 27.5598 14.6944 27.5996 14.6465 27.5996H9.00315ZM14.6327 15.6263V19.6169L16.1746 19.6173C16.1746 19.6173 17.9193 19.5378 18.178 17.9157C18.2059 17.8785 18.2147 17.2038 18.1782 17.096C18.0219 15.7175 16.0137 15.6263 16.0137 15.6263H14.6327Z" fill="#03A06C"/>
<path fill-rule="evenodd" clip-rule="evenodd" d="M45.4189 34.9411C45.8897 34.9411 46.2503 34.9411 46.8455 34.6747C48.9024 33.5834 55.8257 16.5235 63.128 11.2761C63.1725 11.2424 63.2321 11.1935 63.2667 11.1436C63.3146 11.0744 63.3165 11.0039 63.3165 11.0039C63.3165 11.0039 63.3165 10.6519 62.2338 10.6519C55.733 10.4731 48.9727 24.2236 45.4189 29.664C45.3745 29.7239 45.1301 29.664 45.1301 29.664C45.1301 29.664 42.7487 26.8295 40.6798 25.7416C40.6367 25.7189 40.4013 25.6465 40.1571 25.6648C39.9935 25.6648 39.0312 25.8602 38.5828 26.3376C38.0528 26.9018 38.0638 27.2184 38.0685 27.905C38.0688 27.9609 38.1044 28.187 38.17 28.3028C38.6758 29.1952 40.9863 32.4005 42.8794 34.1689C43.1724 34.3792 43.6181 34.9411 45.4189 34.9411Z" fill="#03A06C"/>
</svg>
