<svg width="45" height="45" fill="none" xmlns="http://www.w3.org/2000/svg"><path d="M44.25 41.25h-4.5V13.5a.75.75 0 00-.75-.75H26.25V3a.75.75 0 00-.75-.75H6a.75.75 0 00-.75.75v38.25H.75a.75.75 0 000 1.5h43.5a.75.75 0 000-1.5zm-19.5 0h-18V3.75h18v37.5zm13.5 0h-12v-27h12v27z" fill="#03A06C"/><path d="M30 21.75h4.5a.75.75 0 00.75-.75v-4.5a.75.75 0 00-.75-.75H30a.75.75 0 00-.75.75V21c0 .414.336.75.75.75zm.75-4.5h3v3h-3v-3zm-.75 12h4.5a.75.75 0 00.75-.75V24a.75.75 0 00-.75-.75H30a.75.75 0 00-.75.75v4.5c0 .414.336.75.75.75zm.75-4.5h3v3h-3v-3zm-.75 12h4.5a.75.75 0 00.75-.75v-4.5a.75.75 0 00-.75-.75H30a.75.75 0 00-.75.75V36c0 .414.336.75.75.75zm.75-4.5h3v3h-3v-3zm-13.5-10.5h4.5a.75.75 0 00.75-.75v-4.5a.75.75 0 00-.75-.75h-4.5a.75.75 0 00-.75.75V21c0 .414.336.75.75.75zm.75-4.5h3v3h-3v-3zm-.75-3h4.5a.75.75 0 00.75-.75V9a.75.75 0 00-.75-.75h-4.5a.75.75 0 00-.75.75v4.5c0 .414.336.75.75.75zm.75-4.5h3v3h-3v-3zm-.75 19.5h4.5a.75.75 0 00.75-.75V24a.75.75 0 00-.75-.75h-4.5a.75.75 0 00-.75.75v4.5c0 .414.336.75.75.75zm.75-4.5h3v3h-3v-3zm-.75 12h4.5a.75.75 0 00.75-.75v-4.5a.75.75 0 00-.75-.75h-4.5a.75.75 0 00-.75.75V36c0 .414.336.75.75.75zm.75-4.5h3v3h-3v-3zm-8.25-10.5h4.5A.75.75 0 0015 21v-4.5a.75.75 0 00-.75-.75h-4.5a.75.75 0 00-.75.75V21c0 .414.336.75.75.75zm.75-4.5h3v3h-3v-3zm-.75-3h4.5a.75.75 0 00.75-.75V9a.75.75 0 00-.75-.75h-4.5A.75.75 0 009 9v4.5c0 .414.336.75.75.75zm.75-4.5h3v3h-3v-3zm-.75 19.5h4.5a.75.75 0 00.75-.75V24a.75.75 0 00-.75-.75h-4.5A.75.75 0 009 24v4.5c0 .414.336.75.75.75zm.75-4.5h3v3h-3v-3zm-.75 12h4.5A.75.75 0 0015 36v-4.5a.75.75 0 00-.75-.75h-4.5a.75.75 0 00-.75.75V36c0 .414.336.75.75.75zm.75-4.5h3v3h-3v-3z" fill="#03A06C"/></svg>