<svg width="40" height="40" fill="none" xmlns="http://www.w3.org/2000/svg"><g clip-path="url(#clip0)" fill="#03A06C" stroke="#fff"><path d="M34.103 12.715V6.02a1 1 0 00-1-1H22.938V1.008a1 1 0 00-1-1h-9.773a1 1 0 00-1 1V5.02H1a1 1 0 00-1 1v19.527a1 1 0 001 1h16.276v12.444a1 1 0 001 1h15.116c3.582 0 6.608-3.133 6.608-6.842V13.715a1 1 0 00-1-1h-4.897zm-10.038 0l7.694-4.483v4.483h-7.694zm-4.606-.03h-4.815L5.51 7.366h23.08l-9.132 5.32zM15.5 15.03h1.777v2.04H15.5v-2.04zM13.51 2.35h7.085v2.67h-7.086V2.35zM2.343 24.204V8.232l10.811 6.3v4.881h4.121v4.791H2.344zM19.62 15.06h18.036v15.116c.007.466-.161.896-.472 1.212a1.542 1.542 0 01-1.108.458h-4.373v4.176c0 .833-.626 1.521-1.432 1.626H19.62v-22.59zm14.084 22.576c.22-.494.343-1.04.343-1.613V34.19h2.03c.53 0 1.043-.104 1.515-.302a4.699 4.699 0 01-1.208 2.419c-.74.783-1.682 1.247-2.68 1.328z"/><path d="M23.322 20.033a1 1 0 011-1h.343a1 1 0 011 1v5.363a1 1 0 01-1 1h-.343a1 1 0 01-1-1v-5.363zm4.343 2.207a1 1 0 011-1h.344a1 1 0 011 1v3.156a1 1 0 01-1 1h-.344a1 1 0 01-1-1v-3.155zm4.344 1.876a1 1 0 011-1h.344a1 1 0 011 1v1.28a1 1 0 01-1 1h-.344a1 1 0 01-1-1v-1.28z" stroke-width=".2"/></g><defs><clipPath id="clip0"><path fill="#fff" d="M0 0h40v40H0z"/></clipPath></defs></svg>