<svg width="20" height="21" fill="none" xmlns="http://www.w3.org/2000/svg"><circle cx="10" cy="11" r="10" fill="#03A06C"/><path d="M8.72 13.634c-.068-.442-.057-.839.034-1.19.102-.363.238-.691.408-.986.17-.306.363-.59.578-.85.227-.26.436-.516.629-.765.193-.26.351-.521.476-.782a1.81 1.81 0 00.204-.85c0-.453-.142-.839-.425-1.156-.272-.329-.68-.493-1.224-.493-.374 0-.731.09-1.071.272-.329.17-.623.408-.884.714l-.799-.731a4.678 4.678 0 011.258-1.003c.487-.272 1.043-.408 1.666-.408.861 0 1.547.244 2.057.731.521.476.782 1.139.782 1.989 0 .374-.068.714-.204 1.02a4.46 4.46 0 01-.51.867c-.193.272-.402.544-.629.816-.215.26-.42.533-.612.816-.181.283-.323.59-.425.918a2.54 2.54 0 00-.085 1.071H8.72zm.646 3.57a.97.97 0 01-.714-.289 1.07 1.07 0 01-.289-.765c0-.329.096-.59.289-.782a.943.943 0 01.714-.306c.283 0 .521.102.714.306.204.193.306.453.306.782 0 .306-.102.561-.306.765a.97.97 0 01-.714.289z" fill="#fff"/></svg>