<svg width="40" height="40" fill="none" xmlns="http://www.w3.org/2000/svg"><path d="M27.28 36.52H12.72a.586.586 0 010-1.172h14.56a.586.586 0 110 1.172z" fill="#03A06C"/><path d="M36.987 25.38a.586.586 0 00.587-.585v-9.648c0-.599-.445-.59-1.215-.586V4.227a.586.586 0 00-.586-.586h-6.225a.586.586 0 100 1.171h5.64v9.749h-1.255V7.88a.586.586 0 00-.586-.587H6.653a.586.586 0 00-.586.586v6.68H4.813V1.173h11.304l3.469 3.469c.11.11.259.171.414.171h6.994a.586.586 0 100-1.171h-6.751L16.775.17A.586.586 0 0016.36 0H4.227a.586.586 0 00-.586.586V14.56c-.69.009-1.214-.013-1.214.586v24.267c0 .324.262.586.586.586h33.974a.586.586 0 00.587-.586V27.348a.586.586 0 10-1.172 0v11.48H3.598V15.733h6.854a.586.586 0 100-1.172H7.24v-1.255h25.522v1.255H13.005a.586.586 0 000 1.172h23.397v9.061c0 .324.262.587.585.587zM7.24 8.466h25.52v1.239H7.24V8.466zm0 3.666v-1.24h25.52v1.24H7.24z" fill="#03A06C"/><path d="M12.134 26.085c0 4.338 3.529 7.867 7.866 7.867 4.26 0 7.866-3.595 7.866-7.867 0-4.337-3.529-7.866-7.866-7.866s-7.866 3.529-7.866 7.866zm12.118 5.167c-2.427 2-6.095 1.998-8.52-.013v-2.592c0-.23.168-.439.418-.524l2.594-.654h2.497l2.594.654c.25.085.417.294.417.524v2.605zm-6.093-6.779v-.831c0-1.006.826-1.824 1.841-1.824 1.015 0 1.84.818 1.84 1.824v.831a1.835 1.835 0 01-1.835 1.824h-.01a1.834 1.834 0 01-1.836-1.824zm8.535 1.612a6.656 6.656 0 01-1.27 3.916v-1.354c0-.747-.502-1.409-1.248-1.646a.576.576 0 00-.034-.01l-1.93-.486a2.975 2.975 0 00.8-2.032v-.831A3.008 3.008 0 0020 20.646a3.008 3.008 0 00-3.013 2.996v.83c0 .783.304 1.496.799 2.03l-1.943.49a.697.697 0 00-.034.01c-.747.236-1.248.898-1.248 1.645v1.333a6.656 6.656 0 01-1.255-3.895A6.702 6.702 0 0120 19.391a6.702 6.702 0 016.694 6.694z" fill="#03A06C"/></svg>