<svg width="25" height="25" fill="none" xmlns="http://www.w3.org/2000/svg"><g clip-path="url(#clip0)" fill="#939393"><path d="M8.892 13.544h2.034a.71.71 0 00.708-.708v-2.033a.709.709 0 00-.709-.708H8.893a.709.709 0 00-.708.708v2.033c0 .39.318.708.708.708zm.024-2.717h1.985v1.985H8.916v-1.985zm5.159 2.717h2.033a.71.71 0 00.708-.708v-2.033a.709.709 0 00-.708-.708h-2.034a.709.709 0 00-.707.708v2.033c0 .39.317.708.707.708zm.024-2.717h1.985v1.985h-1.985v-1.985zm5.158 2.717h2.034a.71.71 0 00.708-.708v-2.033a.709.709 0 00-.708-.708h-2.034a.709.709 0 00-.708.708v2.033c0 .39.318.708.708.708zm.025-2.717h1.985v1.985h-1.985v-1.985zM3.002 21.904c0 .39.317.708.708.708h2.033c.39 0 .708-.317.708-.708v-2.033a.709.709 0 00-.708-.708H3.71a.709.709 0 00-.708.708v2.033zm.732-2.009H5.72v1.985H3.734v-1.985zm4.45 2.009c0 .39.318.708.708.708h2.034c.39 0 .708-.317.708-.708v-2.033a.709.709 0 00-.709-.708H8.893a.709.709 0 00-.708.708v2.033zm.732-2.009h1.985v1.985H8.916v-1.985zm4.451 2.009c0 .39.317.708.707.708h2.034c.39 0 .708-.317.708-.708v-2.033a.709.709 0 00-.708-.708h-2.034a.709.709 0 00-.707.708v2.033zm.732-2.009h1.985v1.985h-1.985v-1.985zm4.451 2.009c0 .39.317.708.707.708h2.034c.39 0 .708-.317.708-.708v-2.033a.709.709 0 00-.708-.708h-2.034a.709.709 0 00-.708.708v2.033zm.732-2.009h1.985v1.985h-1.985v-1.985zM3.71 18.078h2.033c.39 0 .708-.317.708-.708v-2.033a.709.709 0 00-.708-.708H3.71a.709.709 0 00-.708.708v2.033c0 .39.317.708.708.708zm.024-2.717H5.72v1.985H3.734V15.36zm4.45 2.009c0 .39.318.708.708.708h2.034c.39 0 .708-.317.708-.708v-2.033a.709.709 0 00-.709-.708H8.893a.709.709 0 00-.708.708v2.033zm.732-2.009h1.985v1.985H8.916V15.36zm4.451 2.009c0 .39.317.708.707.708h2.034c.39 0 .708-.317.708-.708v-2.033a.709.709 0 00-.708-.708h-2.034a.709.709 0 00-.707.708v2.033zm.732-2.009h1.985v1.985h-1.985V15.36zm4.451 2.009c0 .39.317.708.707.708h2.034c.39 0 .708-.317.708-.708v-2.033a.709.709 0 00-.708-.708h-2.034a.709.709 0 00-.708.708v2.033zm.732-2.009h1.985v1.985h-1.985V15.36z"/><path d="M24.634 5.733A.366.366 0 0025 5.367v-.818c0-1.01-.821-1.83-1.831-1.83h-1.117V.78a.594.594 0 00-.593-.593h-1.645a.594.594 0 00-.594.593v1.938h-2.592V.78a.594.594 0 00-.593-.593h-1.646a.594.594 0 00-.593.593v1.938h-2.592V.78a.594.594 0 00-.593-.593H8.965a.594.594 0 00-.593.593v1.938H5.78V.78a.594.594 0 00-.593-.593H3.54a.594.594 0 00-.593.593v1.938H1.83C.821 2.718 0 3.54 0 4.55v13.752a.366.366 0 00.732 0V8.626h23.536v14.356a1.1 1.1 0 01-1.1 1.098H1.832a1.1 1.1 0 01-1.099-1.098V20.01a.366.366 0 10-.732 0v2.972c0 1.01.821 1.83 1.831 1.83H23.17c1.01 0 1.831-.82 1.831-1.83V7.076a.366.366 0 10-.732 0v.818H.732V4.549a1.1 1.1 0 011.099-1.098h1.117v1.18c0 .78.635 1.416 1.416 1.416.78 0 0 0 0 0 .78 0 1.416-.636 1.416-1.417V3.45h2.592v1.18c0 .781.635 1.417 1.416 1.417.78 0 1.416-.636 1.416-1.417V3.45h2.592v1.18c0 .781.636 1.417 1.416 1.417.78 0 1.416-.636 1.416-1.417V3.45h2.592v1.18c0 .781.636 1.417 1.416 1.417.781 0 1.416-.636 1.416-1.417V3.45h1.117a1.1 1.1 0 011.099 1.1v.817c0 .202.163.366.366.366zM3.68.92h1.367v3.71a.684.684 0 01-1.367 0V.92zm6.792 3.71a.684.684 0 01-1.368 0V.92h1.368v3.71zm5.424 0a.684.684 0 01-1.368 0V.92h1.368v3.71zm5.424 0a.684.684 0 01-1.367 0V.92h1.367v3.71z"/></g><defs><clipPath id="clip0"><path fill="#fff" d="M0 0h25v25H0z"/></clipPath></defs></svg>