<svg width="65" height="66" fill="none" xmlns="http://www.w3.org/2000/svg"><path d="M34.338 33.561H30.59v.315h3.748v-.315zm-.38.539h-3.036v.584h3.036V34.1zm.665-1.348H30.26v.584h4.364v-.584zm-.285-.539H30.59v.315h3.748v-.315zm-3.416-.943h.854c0-.674-.143-1.573-.57-1.932l-.284-.18c-.238 0-.428.135-.57.315-.522.584.142 1.437.57 1.797zm19.498 2.111c-2.088-3.055-4.84-.898-8.066-2.83-.284.135-.616.18-.948.18.901 1.123 1.47 2.426 1.755 3.819 1.091 1.572 3.32 1.797 5.408 1.392-.617-.988-1.66-1.617-2.846-1.797-1.329-.36-2.42-.898-2.752-2.156.996 2.291 4.46 1.976 7.449 1.392zm-17.364 2.067c-.095 0-.142.09-.142.225s.047.224.142.224c.142 0 .142-.134.142-.224s0-.225-.142-.225z" fill="#03A06C"/><path d="M31.965 31.27h.901c.048-.764.143-1.663.665-2.067l-.665.225-.142-.225c-.095.045-.19.09-.285.09a.692.692 0 01-.284-.09l-.143.18-.664-.225c.475.404.617 1.348.617 2.112zm2.61 24.98l-.285-.449-.38.135.665.314zm-2.088-5.391l-1.897.764 2.182 4.448 1.945-.81-2.23-4.402zm11.291-23.094c2.135-.09 2.372 2.067 1.138 3.28.427.045.902.09 1.329.09 1.043.045 2.04.09 2.941.629 1.66-.36 3.131-1.034 3.985-2.336-1.803.494-4.697.044-6.831.988 2.466-1.617 6.689-.404 8.444-4.178-2.941 1.168-6.215.539-8.397 2.695 1.091-1.482 2.135-1.752 4.175-2.246 2.23-.27 4.08-1.752 4.649-3.82-3.084 2.292-7.021 1.259-9.583 4.718.949-2.29 3.32-2.965 5.645-3.729 1.85-.674 3.084-1.797 3.226-3.414-4.222 2.83-8.302 2.156-9.725 6.47.427-3.325 3.558-4.044 6.831-5.437.902-.494 1.85-1.527 1.614-3.415-2.705 3.056-9.679 2.651-9.441 9.705zm-12.239 7.953h.142l-.095-.18-.047.18zM15.977 58.542l-.38-.989c-.094-.314-.426-.449-.758-.36l-.285.09c-.332.09-.474.405-.38.72l.617 1.707.807-.674-.617 1.033.047.135.285.809s.712-.899.57-1.663c-.095-.359.237-.494.094-.808zm8.397-7.548l-8.492-3.82-.237.54 9.393 4.268-.664-.988zM32.44 28.53c-.142 0-.285.134-.285.269 0 .134.143.27.285.27s.285-.136.285-.27c0-.135-.143-.27-.285-.27zm-4.934-17.703c-.19-.225-.427-.36-.712-.36l-.285.27c-.569.45-.664 1.348-.711 2.202.284 0 .569.045.854.09l.142.044c.474-.449 1.47-1.348.712-2.246zm-4.174 2.426v.45c1.233-.09 2.23.134 3.32.134v-.629c-1.09-.09-2.23-.09-3.32.045zm-2.611 40.122c.427-.809.76-1.663.901-2.561l-3.368-1.483c0 2.92-1.091 5.302-3.084 7.548.238.045.475.135.617.315l2.325-.809c.38-.27.711-.539 1.043-.853l-.806-.944.237-.18.807.899c.19-.225.38-.404.521-.63l-.9-1.033.236-.18.854.99c.143-.226.332-.495.475-.72l-1.091-1.213.237-.18.996 1.034zM33.91 31.494h-2.94v.495h2.94v-.495zm-1.707-3.19h.474l-.094-.27.332.046v-.405l-.332.09.094-.314h-.474l.095.314-.332-.09v.405l.332-.045-.095.27zm.19 27.856l-.569.225c-.047.27-.142.54-.19.764.332-.09.617-.18.997-.18.332 0 .664.045.948.18-.094-.315-.19-.584-.237-.899l-.711.27-.238-.36zm11.243-11.411c.095-.674.047-1.348-.048-2.022a13.378 13.378 0 01-1.375-2.202 9.94 9.94 0 01-1.566 2.112 9.961 9.961 0 001.993 2.606l.996-.494z" fill="#03A06C"/><path d="M33.957 31.27c.427-.36 1.044-1.168.57-1.797-.19-.18-.38-.315-.617-.315l-.237.18c-.427.36-.57 1.213-.57 1.932h.854zm.95 10.558h-4.934v.494h4.934v-.494zM29.925 22.06l-.19-.72c-.047-.224-.142-.449-.237-.719-.142.45-.38.899-.664 1.303l-.474.72-.095-.854c0-.135-.048-.225-.048-.36a2.33 2.33 0 01-.522.944l-.095.09c-.047.539-.142 1.078-.237 1.392.712-.135 1.613-1.078 1.945-1.842.19.495.427.899.807 1.303a3.57 3.57 0 00.854-2.336c.332.45.901.719 1.47.719.57 0 1.14-.27 1.471-.72 0 .854.332 1.663.854 2.337.38-.36.617-.808.807-1.303.332.72 1.233 1.663 1.945 1.842-.048-.314-.19-.853-.237-1.393v-.044c-.238-.315-.38-.63-.522-.944 0 .135-.048.225-.048.36l-.095.853-.474-.719a4.87 4.87 0 01-.664-1.303c-.095.225-.142.45-.237.72l-.19.718-.427-.674a3.077 3.077 0 01-.332-1.707 5.23 5.23 0 01-1.329.898 2.891 2.891 0 01-.521 1.079 3.264 3.264 0 01-.522-1.079c-.475-.224-.902-.539-1.329-.898.095.584-.047 1.168-.332 1.707l-.332.63zm6.073 2.56c0 .225-.047.405-.094.63.38.224.759.494 1.09.808a1.62 1.62 0 00.238-.494c-.474-.315-.854-.584-1.234-.944z" fill="#03A06C"/><path d="M29.213 23.677c0 .449.048.898.143 1.348.474-.27.996-.45 1.565-.54.427-.449.665-1.033.76-1.617.094.494.237.988.379 1.483h.806a16.9 16.9 0 00.38-1.483c.095.584.332 1.168.76 1.617.52.135 1.043.315 1.565.54.095-.45.142-.899.095-1.348.711 1.123 1.945 1.887 2.894 1.752-.285-.36-.57-.764-.76-1.168l-.284-.045c-.76-.27-1.423-.764-1.85-1.438-.143.315-.38.584-.617.809l-.237.224-.238-.224a3.638 3.638 0 01-.854-1.887c-.332.584-2.182.584-2.466 0a3.485 3.485 0 01-.855 1.887l-.237.224-.237-.224a3.38 3.38 0 01-.617-.809c-.427.674-1.09 1.168-1.85 1.438l-.38.09c-.19.404-.426.808-.758 1.168.948.135 2.23-.63 2.893-1.797zm3.275-14.108h-.237v.045c-.048.584-.095 1.168-.238 1.752h.949c-.142-.584-.237-1.168-.237-1.752v-.045c-.095.045-.19 0-.237 0zm-3.844 10.558l-.474-.719a4.952 4.952 0 00-1.234-1.168c.285.674.285 1.393.095 2.067.285.629.427 1.303.38 1.932.474-.63.664-1.393.664-2.157.284.54.427 1.124.522 1.708.474-.63.711-1.393.806-2.157.285.494.522 1.078.664 1.662.38-.584.285-1.527.143-2.426a5.854 5.854 0 002.087 1.573c-.38-.854-.901-1.618-1.613-2.247a4.14 4.14 0 01-2.087-.27c.19.45.237.9.19 1.393l-.143.81zm5.646-1.932a7.649 7.649 0 00-1.614 2.247 7.125 7.125 0 002.088-1.573c-.143.854-.238 1.842.142 2.427.142-.585.38-1.124.664-1.663.048.764.332 1.528.807 2.157a4.471 4.471 0 01.521-1.708c-.047.764.19 1.528.665 2.157 0-.674.095-1.348.38-1.932a2.824 2.824 0 01.094-2.067 4.952 4.952 0 00-1.233 1.169l-.475.718-.142-.853c-.047-.45 0-.944.19-1.393-.665.314-1.376.404-2.088.314zm3.035 7.908c-.047.045-.047.09-.094.135.332.36.664.718.901 1.168h1.28v1.438a11.713 11.713 0 011.756 1.617c.475 0 .902-.09 1.329-.314-2.23-.36-1.85-3.37-5.172-4.044z" fill="#03A06C"/><path d="M38.986 25.698l-.332.045h-.285c-.284 0-.569-.044-.853-.18 0 .046-.048.136-.095.18 1.945.405 2.704 1.573 3.32 2.517.19.269.38.584.617.808.238 0 .475-.09.664-.18-1.09-.27-.996-2.156-3.036-3.19zm-7.59-1.302c.095 0 .237-.045.332-.045a.8.8 0 01-.095-.315c-.095.135-.142.27-.237.36zm-2.325.808a2.518 2.518 0 01-.095-.629c-.332.36-.759.674-1.186.899.048.18.143.36.238.494.284-.27.616-.539 1.043-.764zm4.176-.809c.095 0 .237 0 .332.045-.095-.134-.19-.224-.237-.359-.048.09-.048.18-.095.314zm.711 16.625v-4.314h-3.036v4.313h3.036zm-.712-3.91h.237v3.325h-.237v-3.324zm-.901 0h.237v3.325h-.237v-3.324zm-.902 0h.238v3.325h-.238v-3.324zm23.815-13.388c2.847-1.528 5.551-4.044 5.551-7.953a21.108 21.108 0 01-2.23 2.336 11.933 11.933 0 01-3.985 3.595c-.474 1.078-1.565 1.887-3.13 2.47l-.048.046a10.424 10.424 0 003.653-1.528l.759-.584-.285.899a2.27 2.27 0 01-.285.719zM34.812 34.909h-4.697v1.528h4.697v-1.528zm-3.843 1.078c-.095 0-.19 0-.237-.045v-.18h.048l.047.135h.095c.047 0 .142-.044.142-.09 0-.044-.047-.09-.142-.09h-.095v-.044h.095c.047 0 .095 0 .095-.09s0-.09-.095-.09h-.142l.047.045h-.047v-.18c.095-.045.142-.045.237-.045.142 0 .237.045.237.18-.095.045-.095.135-.095.225 0 .045.048.09.095.09-.047.134-.142.224-.285.18zm1.044-.045v.045h-.332v-.045h.095l-.048-.09h-.237l-.047.045h.095v.045H31.3v-.045l.095-.044.238-.54h.142l.237.54v.09zm.76.045h-.238l-.237-.27v.18h.095v.045h-.333v-.045h.095v-.449l-.095-.045v-.045h.333v.045l-.095.045v.18l.19-.225h-.048v-.045h.285v.045l-.095.045-.143.18.238.27.095.044v.045h-.048zm.284 0c-.19 0-.332-.09-.332-.27v-.044c-.048-.135.095-.315.237-.315h.095c.19 0 .332.18.332.36 0 .134-.142.27-.332.27zm1.138-.584l-.095.045v.45h.095v.044h-.332v-.045h.095v-.224h-.19v.224h.095v.045h-.332v-.045h.095v-.449l-.095-.045v-.045h.332v.045l-.142.045v.18h.19v-.18l-.095-.045v-.045h.332l.047.045s0-.045 0 0zm.331 5.841h-4.174v.36h4.174v-.36z" fill="#03A06C"/><path d="M60.572 15.59l.57-.675v.854a8.93 8.93 0 01-.38 2.471c1.898-2.201 3.036-4.852 2.135-8.896-.427 1.483-1.66 3.37-3.131 5.437a7.197 7.197 0 01-.712 2.426c.522-.494.996-1.034 1.518-1.618zm-8.159 5.705a16.238 16.238 0 001.945-1.078l.57-.36-.048.675c0 .224-.047.449-.142.718 2.514-1.572 4.554-3.639 4.744-7.143-1.708 2.022-3.084 3.594-5.93 4.942a3.174 3.174 0 01-1.139 2.246zm2.514 5.392c3.51-1.662 6.926-4.673 7.116-8.582a11.842 11.842 0 01-2.087 1.932c-1.234 1.798-2.942 3.235-4.934 4.224-.664 1.078-1.708 1.932-2.941 2.426.9-.135 1.755-.36 2.609-.63l.759-.269-.332.72c-.095 0-.143.09-.19.179z" fill="#03A06C"/><path d="M60.05 19.543c.617-.494 1.234-1.033 1.756-1.662l.617-.719-.048.944c-.047 1.213-.427 2.426-1.044 3.504 1.803-2.067 3.369-3.999 2.467-8.132-.142.27-.332.584-.522.898a10.402 10.402 0 01-2.23 4.044l-.996 1.123zm-20.969 9.435V27.72h-1.139c-1.043-1.842-3.036-3.01-5.266-3.01h-.379c-2.23 0-4.222 1.168-5.266 3.01h-1.044v1.258c-4.27 2.966-5.17 8.672-2.04 12.715.57.72 1.281 1.393 2.04 1.932v1.258h1.044c1.044 1.842 3.036 3.01 5.266 3.01h.38c2.23 0 4.222-1.168 5.266-3.01h1.138v-1.258c4.27-2.965 5.171-8.671 2.04-12.715-.57-.764-1.28-1.393-2.04-1.932zm1.613 12.4c-.522.72-1.186 1.304-1.945 1.843l-.19.135v1.033h-.949l-.142.27c-.949 1.707-2.799 2.785-4.839 2.785h-.38c-2.04 0-3.89-1.078-4.839-2.785l-.142-.27h-.854v-1.033l-.19-.135c-3.985-2.83-4.886-8.222-1.897-12.041.522-.719 1.186-1.303 1.945-1.842l.19-.135V28.17h.854l.142-.27c.949-1.707 2.799-2.786 4.839-2.786h.38c2.04 0 3.89 1.079 4.839 2.786l.142.27h.949v1.033l.19.135c4.032 2.83 4.886 8.222 1.897 12.04zM22.335 14.69c2.087-.403 2.657.315 3.51.675.807.36 2.515.494 3.511-1.438a4.803 4.803 0 01-2.514.27 30.014 30.014 0 00-3.51-.225c-.475.045-.855.315-.997.719z" fill="#03A06C"/><path d="M35.43 42.547H29.5v.719h5.93v-.72zm-2.706 7.458c.332-.18.664-.314.996-.45a21.644 21.644 0 01-.901-1.347h-.76a5.658 5.658 0 01-.71 1.123l.9.405.19-.54c.143.27.19.54.285.81zm6.405-34.64c.854-.36 1.423-1.034 3.51-.674-.142-.404-.522-.674-.996-.719-1.186 0-2.325.09-3.51.225-.855.135-1.709 0-2.515-.27.996 1.932 2.704 1.752 3.51 1.438zM10.95 44.614l3.32 1.482.522-1.033-3.321-1.483-.522 1.034zm4.555-.899l-3.321-1.483-.57 1.034 3.369 1.483.522-1.034zm.425-.809l-3.368-1.527-.237.584 3.32 1.483.285-.54zm29.793-4.582a3.654 3.654 0 00-1.091-2.202 2.743 2.743 0 01-1.376-.988 9.261 9.261 0 01-.047 2.56 3.769 3.769 0 002.514.63zM18.73 36.437c-.19 0-.38.044-.617.044a8.181 8.181 0 01-1.803-.18l-.474-.09.142-.224c-.902.135-1.803.225-2.704.225-.76 0-1.518-.045-2.277-.18-1.14.315-1.993.72-2.278 1.393 3.653.989 6.832.494 10.01-.988zm-7.922 4.178l-.617-.27a.643.643 0 00-.807.27c0 .045-.047.09-.047.135h.047c.143 0 .285.045.38.09l.759.36.285-.585zm6.64-6.11c-.712.09-1.423.09-2.182.134a14.556 14.556 0 01-6.31-1.303c-.57.135-1.091.315-1.566.63 1.66 1.707 5.03 2.336 8.872 1.662.285-.45.712-.854 1.186-1.123zM8.34 43.446l.853.404.522-1.033-.854-.405a.643.643 0 00-.806.27.542.542 0 00.284.764zm2.04-2.022l-.759-.36a.643.643 0 00-.806.27c-.142.27 0 .629.284.764l.76.36.521-1.034zm34.537 2.696a6.15 6.15 0 01-.949-.944c.048.45.048.944.048 1.393.284-.135.616-.315.901-.45zm-25.048.18l.332.134.19-.135.522.27c-.048-.45-.048-.944.047-1.393-.285.404-.664.764-1.091 1.123zm-3.845 2.605l8.018 3.594-1.234-1.842-6.215-2.785-.569 1.033zm1.234-2.381l-.522 1.033 5.693 2.561-1.28-1.842-3.89-1.752zm25.145-4.404c.616 1.439 1.565 2.786 2.799 3.82.522-.27 1.09-.54 1.613-.854-.048-.404-.095-.854-.237-1.258a15.058 15.058 0 01-3.701-3.1c-.047.494-.237.944-.474 1.393zm3.652-1.707c1.803 1.079 3.605 1.933 5.74 2.157.57-.314 1.139-.584 1.708-.898-.712-.63-1.518-1.169-2.372-1.528-2.087-.27-4.08-.944-5.93-1.932h-.048c.522.584.807 1.348.902 2.112v.09zm-2.988 0c1.565 1.708 3.178 3.146 5.36 3.91.617-.315 1.282-.675 1.898-.99a4.157 4.157 0 00-.854-.943 18.024 18.024 0 01-3.652-1.752h-.048c-.142 0-.285 0-.38.045-.806-.045-1.565-.225-2.23-.629-.047.135-.094.225-.094.36zm4.981 4.089c-.332-.135-.664-.27-.996-.45.047.27.095.585.142.854l.854-.404zm-27.895 2.292l-2.467-1.124-.285.54 3.416 1.572-.57-.854-.094-.134zm12.192 5.526l-.285-.405-1.992-.898 1.233 1.797c.332-.18.665-.315 1.044-.494zm8.871-6.245a4.356 4.356 0 01-.38 2.066c.522-.27.996-.494 1.518-.764a9.899 9.899 0 01-1.138-1.302zM30.353 50.05l-.57-.853-.094-.135-6.405-2.876.664.989 6.405 2.875zm-6.263-6.47c-.048 1.079 0 2.157.332 2.741l.19.09c.379-.45.71-.899.996-1.393V43.76c-.38-.27-.76-.584-1.092-.943-.094.27-.237.494-.427.763zm2.75 1.573h-.9c-.143.18-.285.36-.428.584 0 .404.048.809.143 1.168l1.043.45c.285-.405.57-.81.807-1.259a4.919 4.919 0 01-.664-.943zm-3.51.719l.665.314c-.142-.674-.237-1.392-.19-2.111-.332.449-.711.853-1.09 1.258l.426.18.19.359zm17.554-2.292c-.142-.224-.285-.494-.427-.718-.332.314-.664.628-1.044.898v1.393c.285.404.617.809.997 1.168.38-.629.522-1.572.474-2.74zm-2.42-32.843l-.332-.225c-.284 0-.569.135-.711.36-.712.899.237 1.797.711 2.201l.143-.045c.284-.044.569-.044.854-.09.047-.898-.095-1.796-.665-2.2zM35.95 48.523v-.18c-.285-.18-.522-.405-.806-.584a5.834 5.834 0 01-1.945.449c.237.45.521.854.806 1.258.664-.36 1.328-.674 1.945-.944zm3.084-1.483c.19-.404.332-.854.427-1.303a6.512 6.512 0 01-.427-.584h-.902a3.61 3.61 0 01-.711.943c.237.45.569.854.901 1.258.237-.09.474-.224.712-.314zm-1.281.584c-.048-.225-.095-.404-.143-.63-.142-.224-.284-.448-.427-.628-.474.494-1.09.898-1.708 1.213.285.27.617.494.997.719l1.28-.674zm-15.751-9.3c0-.09-.047-.225-.047-.315a5.128 5.128 0 01-2.277.674c-.143 0-.285 0-.38-.045h-.047a18.013 18.013 0 01-3.654 1.752c-.474.405-.9.899-1.28 1.393l1.66.764c2.42-.719 4.365-2.381 6.025-4.223zM38.37 13.253v.63c1.091-.046 2.04-.226 3.274-.136v-.449c-.19 0-.333-.045-.522-.045h-.095a14.722 14.722 0 00-1.993 0h-.095a1.217 1.217 0 00-.569 0zM20.39 36.167a3.537 3.537 0 00-1.092 2.201c.902.045 1.85-.18 2.61-.673-.096-.45-.096-.944-.143-1.393 0-.405.047-.854.095-1.258-.38.494-.901.898-1.47 1.123zm8.634 12.266l.569.27.142-.09 1.329.583c.237-.314.427-.674.616-1.033-.664-.045-1.328-.225-1.945-.45a5.05 5.05 0 01-.711.72z" fill="#03A06C"/><path d="M18.92 38.414v-.09a4.024 4.024 0 01.9-2.112h-.047a16.947 16.947 0 01-5.93 1.932c-1.28.629-2.372 1.303-2.8 2.022l1.14.494c2.609-.045 4.696-1.033 6.736-2.246zm8.443 8.626c-.047.135-.19.45-.19.539l1.566.719c.238-.18.57-.54.76-.719-.617-.315-1.234-.719-1.709-1.213l-.427.674zm-9.63-3.909c.047-.36.095-.674.19-1.033-.38.18-.854.36-1.281.539l1.09.494zm4.365-4.403a15.35 15.35 0 01-3.748 3.145c-.143.54-.285 1.078-.332 1.617l1.613.72c1.328-1.169 2.372-2.562 3.036-4.18-.285-.404-.427-.853-.57-1.302zm.235 6.47a9.503 9.503 0 001.945-2.606 9.182 9.182 0 01-1.565-2.157c-.38.809-.854 1.573-1.376 2.292-.095.674-.143 1.348-.048 2.022l1.044.449zm9.015 16.669a6.091 6.091 0 001.186 1.752 6.103 6.103 0 001.281-1.752c-.474.359-1.992.404-2.467 0zm3.179-.54l.9.854.333-.314-.949-.9a.703.703 0 01-.284.36zm-1.945-4.043c-1.328 0-2.372 1.033-2.372 2.246 0 1.258 1.091 2.247 2.372 2.247 1.329 0 2.372-1.034 2.372-2.247.048-1.213-1.043-2.246-2.372-2.246zm.664 1.258c.048-.18.143 0 .19.045.048 0 .095 0 .142.044 0 .045-.094.045-.047.18-.047 0-.142-.09-.095.045-.047 0-.047-.045-.047-.045 0-.045.095-.09.095-.18s-.143-.09-.143-.09c.048.09-.047.18-.095.18H33.2v-.045c.047 0 .142-.044.142-.09 0 0-.047-.044-.095-.044zm-.427.718c0 .09 0 .135.048.225h-.617c.095-.135.095-.36-.095-.45-.047-.044-.142-.044-.237-.044-.047 0-.047.045-.095.045 0-.045-.047-.045-.047-.09.047-.135.427-.045.616-.135 0 .045-.047.135-.142.135.142.135.19.27.19.45 0-.18.095-.315.19-.45l-.143-.135c.19.045.57-.045.617.135 0 .045 0 .09-.047.09 0-.045-.048-.045-.095-.045.047-.045-.143.09-.143.27zm.333-.18c-.048-.044-.095-.044-.143-.044.048-.045.048-.045.095-.045 0 .045.048.045.048.09zm-.76.99c0-.046 0-.09.048-.136v-.089s0 .044-.047.044V59.8h.142v-.045c-.048 0-.095 0-.142-.045 0-.045.047-.045.094-.045l-.047-.09.237.629c-.095.045-.19.045-.237-.045 0-.045-.047-.045-.047-.09-.048 0-.048 0 0 0-.048-.045-.048-.045 0 0 0-.045 0-.045 0 0zm.143-.45c.047-.045.047-.045.095-.045 0 0 .047 0 .047.045v.09s0 .045.048.045c.047-.045.094-.045.142-.045.047.045.047.09 0 .09v-.045.09c.047 0 .095 0 .095.044v.045c0-.044-.048-.044-.048-.044v.044c0 .045 0 .09.048.135.047-.045.095-.045.095 0s-.048.09-.095.09l-.427-.539zm-.332-.584c-.048 0-.095 0-.143.045 0-.045 0-.045.048-.09.047 0 .047.045.095.045zm.806-.63l.048.046-.048.045-.047-.045.047-.045zm-.427-.269l.095.09-.095.09-.095-.09.095-.09zm-.427.27l.048.045-.048.045-.047-.045.047-.045zm-.047.18l.095.044.095-.044c.047 0 .094.044.047.134v.045c.095 0 .142-.09.19-.134-.048-.045-.048-.09-.048-.09-.047-.09 0-.135.095-.135l.095.135.095-.135c.095 0 .142.045.095.135 0 .045-.047.09-.047.09 0 .09.094.134.19.134v-.045c-.048-.09 0-.134.047-.134l.095.044.094-.044c.048 0 .095.044.048.134l-.048.045h-.19c-.142 0-.236-.045-.284-.18h-.142c-.048.09-.143.18-.238.18h-.19l-.047-.045c-.19-.09-.142-.134-.047-.134zm-.38-.045c.048-.045.143-.18.19-.045-.047.045-.047.09-.047.18.047.044.047.044.095.044v.045c-.095 0-.19-.045-.19-.134v-.045s-.143 0-.143.09c0 .044.095.09.095.18 0 .044 0 .044-.047.044.047-.09-.095-.045-.095-.045.047-.135-.047-.135-.047-.18.094-.09.142-.09.19-.134zm-.616.808s0-.045 0 0c0-.045 0-.045 0 0 .047 0 .19 0 .094-.09-.094-.044-.142-.18-.094-.314.047.045.237.09.19 0a.262.262 0 010-.36c.19.27.379.495.616.675-.047.044-.047.09-.047.134 0 .09.095.135.142.18h.19v.27c-.048-.09-.143-.135-.19-.135 0 .09-.047.18-.095.224-.047.045-.142.09-.237.045.047 0 .047-.134 0-.09-.095.045-.19.045-.237-.044.047 0 .095-.09 0-.09-.095.045-.19 0-.238-.09v-.045c.048 0 .19-.045.048-.09-.048 0-.142-.09-.142-.18zm2.324 1.213c-.047 0-.142 0-.19-.09-.094-.044-.19-.09-.284-.09 0 0-.048 0-.048-.044.048-.09-.047-.18-.142-.135-.047.045-.095.09-.142.18.19.045.332.135.427.27 0 .044-.048.09-.095.134-.048-.18-.143-.135-.095 0 0 .045-.047.09-.095.135 0-.135-.095-.135-.095 0 0 .045-.047.09-.095.09-.047 0-.095-.045-.095-.09 0-.135-.095-.135-.095 0-.047 0-.094-.045-.094-.135.047-.135-.048-.135-.095 0-.048 0-.095-.045-.095-.135a.694.694 0 01.427-.27c0-.044-.048-.134-.142-.179-.048-.045-.095-.045-.143 0-.047.045-.047.09 0 .135v.045a.701.701 0 00-.285.09l.095.045s0 .044-.047.044h-.047l-.095-.09h-.095c-.048 0-.095-.044-.095-.09v-.044l-.285-.27h-.047c-.048.045-.143 0-.143-.045v-.045h.048c-.048-.044-.048-.09 0-.134h.142V59.8c.048 0 .095.045.095.09v.044c.047 0 .047.045.047.045l.285.27h.048c.047 0 .047 0 .095.045.094 0 .142 0 .237-.045-.19-.225-.048-.36.142-.36v.135c0 .045.047.09.095.09h.095c.047.09.142.09.19.045.047 0 .047-.045.047-.045h.095c.047 0 .095-.045.095-.09v-.135c.142 0 .284.135.142.36.048.045.142.045.19.045 0-.045.047-.09.095-.09l.095.09.094-.09c.048.045.095.09.095.135-.095.135-.142.18-.237.224zm-.095-.359l.048-.045.047.045-.047.045-.048-.045zm.712-.899c0 .09-.047.225-.142.225-.143.045 0 .09.047.09 0 .09-.095.135-.19.135h-.047c-.095 0-.048.09 0 .09-.048.09-.142.09-.237.044-.048-.044-.048.09 0 .09-.048.045-.143.045-.238 0-.047-.09-.094-.134-.094-.224-.095 0-.19.045-.19.134v-.269c.047 0 .095.045.19 0 .094 0 .142-.09.142-.18 0-.045 0-.09-.048-.135.238-.18.475-.404.617-.673.095.09.095.27 0 .359-.047.09.142.045.19 0 .047.09 0 .225-.095.314-.095 0 .047.045.095 0z" fill="#03A06C"/><path d="M31.206 57.329c.095-.27.19-.54.238-.81l-3.464 1.484a7.5 7.5 0 00.285 2.066c.617-.18 1.139-.494 1.613-.898a2.684 2.684 0 011.328-1.842zm-1.802 4.538l.332.314.901-.854a2.498 2.498 0 01-.284-.36l-.949.9zm9.868-8.447c-.237.09-.522.18-.76.27l1.377.628-.57-.853-.047-.045zm-6.975 2.426l-1.85-3.774a316.457 316.457 0 01-14.517 5.392l.38 1.123c.094.224-.19.449-.19.763a2.42 2.42 0 01-.665 1.843l-.38.314-.142-.45-1.043-2.92c-.095.045-.19.045-.238.09l.617 1.797c.143.63.048 1.303-.19 1.887l-.142.315-.332-.18a3.403 3.403 0 01-1.234-1.572c-.094-.18-.237-.135-.284-.315l-.474-1.258c-.095.045-.19.045-.285.09l.996 2.786.142.449-.474-.045c-.712-.045-1.328-.404-1.66-.988-.143-.18-.475-.045-.522-.27l-.427-1.258c-.95.315-1.898.584-2.847.899A10.31 10.31 0 008.908 66a254.097 254.097 0 017.117-3.19.7.7 0 01.142-.404l.949-1.528c-.095-.314-.095-.674-.095-1.033a1.984 1.984 0 011.565.943c.095.315.095.63-.047.899a474.673 474.673 0 0113.758-5.841zm9.298-1.617l-1.992-.899 5.266 7.728.806.36c-.142-.36-.142-.764.095-1.124l-4.175-6.065zM37.041 56.7l.57.808.094.135 6.405 2.876-.664-.944L37.04 56.7zm-1.28-1.887l.949 1.392 6.405 2.876-1.281-1.842-5.693-2.561c-.095.045-.237.09-.38.135zm.853-.315l4.887 2.202-1.281-1.843-2.088-.943c-.522.18-.996.36-1.518.584zm-1.613.629l.19.315-.332.135-.285.09.76 1.123 1.992.898-1.898-2.785c-.142.09-.284.134-.427.224zm-1.043 2.202a2.673 2.673 0 011.329 1.887c.474.404 1.043.674 1.613.853.19-.674.284-1.393.284-2.111l-3.51-1.618c.095.36.19.674.284.989zM13.605 24.17h-.047c-1.566-.583-2.61-1.437-3.132-2.47-1.613-.899-2.988-2.112-3.985-3.595-.806-.718-1.565-1.482-2.23-2.336 0 3.909 2.705 6.47 5.551 7.998a2.138 2.138 0 01-.284-.764l-.238-.899.76.584c1.043.72 2.277 1.213 3.605 1.483z" fill="#03A06C"/><path d="M17.21 60.294l.38 1.483-.428-.54-.806 1.303c-.238.36-.095.54.237.405l.285-.09c.427-.18.759-.45.996-.809l.142-.224c.807-1.259-.806-1.528-.806-1.528zm-4.317-33.652a5.658 5.658 0 01-2.941-2.426c-2.04-.944-3.748-2.381-4.934-4.224a11.55 11.55 0 01-2.088-1.887c.143 3.91 3.606 6.92 7.117 8.582l-.143-.27-.332-.719.76.27c.806.315 1.707.54 2.561.674zM3.832 15.77v-.854l.569.673c.522.585.996 1.124 1.47 1.618-.379-.764-.569-1.618-.71-2.426-1.472-2.022-2.705-3.91-3.132-5.437-.901 3.999.237 6.695 2.135 8.896a8.858 8.858 0 01-.332-2.47z" fill="#03A06C"/><path d="M2.599 18.106l-.048-.944.617.719a9.99 9.99 0 001.755 1.662l-.996-1.123a10.402 10.402 0 01-2.23-4.044c-.19-.314-.38-.584-.522-.898-.9 4.088.617 6.065 2.467 8.132-.616-1.078-.996-2.291-1.043-3.504zm8.396 40.795c-.095-.314-.427-.45-.76-.36l-.284.09c-.332.09-.474.405-.38.72L10 60.608c.047.18.474.09.569.314.237.584.806.944 1.47.988l-.284-.763-.902-.315.76-.045-.617-1.887zm5.363-6.649a5.023 5.023 0 01-1.424-.63h-.047a12.01 12.01 0 01-2.23-.359l.047-.314c.57.135 1.187.224 1.803.314-1.186-1.033-1.328-2.47-.901-3.953l-3.131-1.393c-.854 1.213-2.372 1.842-3.89 1.662 1.328 1.393 2.988 2.426 4.839 3.055l-.095.27c-2.04-.719-3.843-1.887-5.219-3.46-.522-.135-1.044-.27-1.518-.494.807 3.594 8.872 7.189 11.766 5.302zm-2.563 9.57c.237-.54.332-1.079.19-1.663l-.712-2.022a.52.52 0 00-.664-.314l-.427.135c-.285.09-.427.36-.332.629l.474 1.348 1.091.494-.711.045a2.896 2.896 0 001.091 1.348zm-2.135-31.99c-.047-.09-.095-.135-.142-.225l-.475-.718.807.269a15.12 15.12 0 001.992.27c-1.47-.27-2.751-1.079-3.558-2.292-2.372-1.033-4.46-2.606-6.025-4.583-.569-.404-1.138-.808-1.66-1.303.949 4 5.171 7.459 9.061 8.582z" fill="#03A06C"/><path d="M14.934 32.438c.143-.135.285-.27.475-.404-1.281-.27-2.467-.854-3.369-1.753a15.183 15.183 0 01-5.029-2.426c-1.09-.809-2.04-1.707-2.846-2.74a4.157 4.157 0 00-1.044-.135c2.515 4.537 6.215 7.278 11.813 7.458zM10.19 21.206c-.047-.225-.094-.45-.141-.72L10 19.814l.57.36c.616.404 1.28.763 1.944 1.078-.664-.585-1.09-1.438-1.138-2.292-2.847-1.303-4.222-2.92-5.93-4.942.19 3.55 2.277 5.616 4.744 7.189zm44.928 39.088l-2.182 4.403 1.138.494 2.23-4.358-1.186-.54zm1.138 1.393l1.139.494c.142.045.237.135.332.27.047-.045.047-.045.047-.09.142-.27 0-.63-.285-.764l-.996-.45-.237.54zm-.427 3.415l-1.091-.495-.285.54.901.404c.285.135.665 0 .807-.27 0-.045.047-.09.047-.135h-.047c-.095.045-.237 0-.332-.044zm-5.552-7.144c.143-.27 0-.63-.284-.764l-.238-.135a.643.643 0 00-.806.27l-.474.943c-.19.315.142.45.047.764-.237.764.38 1.707.38 1.707l.379-.764.047-.134-.521-1.079.711.72.76-1.528zm-.284 4.537l-.285.54 2.99 1.347.284-.539-2.99-1.348zm.617-4.582l.284.135c0-.045.048-.045.048-.045-.143-.135-.238-.27-.38-.405.047.09.047.18.047.315zm4.032-30.777c-.806 1.168-2.087 1.977-3.558 2.292a7.6 7.6 0 001.992-.27l.854-.225-.474.72c-.048.09-.095.134-.142.224 3.89-1.123 8.112-4.583 9.061-8.581-.522.449-1.091.898-1.66 1.302-1.614 1.977-3.654 3.55-6.073 4.538z" fill="#03A06C"/><path d="M57.962 27.855c-1.47 1.123-3.178 1.932-5.029 2.426a6.36 6.36 0 01-3.368 1.752c.19.135.332.27.474.405 5.551-.18 9.299-2.92 11.813-7.503-.38 0-.711.045-1.043.135a14.765 14.765 0 01-2.847 2.785z" fill="#03A06C"/><path d="M50.326 32.752c.142.135.237.315.332.45l.285.36-.475.089c-1.186.27-2.42.404-3.653.45h-.095c5.266.673 10.343-.225 13.521-4.763-.284-.09-.617-.18-.996-.27a13.522 13.522 0 01-8.919 3.684zm1.898 25.43l-.427-.18c-.237-.09-.569 0-.664.225l-.949 1.932a2.5 2.5 0 000 1.663c.522-.27.95-.674 1.186-1.214l-.711-.09 1.138-.404.617-1.303c.19-.224.095-.539-.19-.629zM57.11 40.57c-7.734 3.594-15.894 7.189-24.149 10.514l1.898 3.729c8.207-3.28 16.51-6.29 24.575-8.851-.38-1.888-1.186-3.73-2.325-5.392zm1.138 23.049l-.474-.225a.85.85 0 01-.76.45c.143.224.143.538.048.763l.522.225c.38.18.806 0 .996-.315.19-.314.047-.718-.332-.898zm-.712-.359c.142-.27 0-.63-.285-.764L56.113 62l-.522 1.034 1.138.494c.285.135.665 0 .807-.27zm-1.043.538l-1.091-.494-.522 1.034 1.091.494c.285.135.664 0 .807-.27a.565.565 0 00-.285-.764zm-8.921-2.381l.427.764.237-.494-.664-.27z" fill="#03A06C"/><path d="M43.636 51.802c.19.495.38.944.617 1.393l.854-.988.237.18-.949 1.078c.143.224.285.494.427.719l.76-.854.237.18-.807.943c.142.225.332.45.522.63l.712-.81.237.18-.712.809c.57.54 1.186 1.033 1.898 1.393l.949.449c.237-.36.711-.54 1.09-.36l.238.09.047.045c-1.802-2.021-2.988-3.953-3.178-6.38l-3.179 1.303zm8.634 8.088l.38.18.285-.585-.38-.135-.285.54zm-9.25-4.134l5.218 2.336.284-.584-6.167-2.74.664.988zm5.122 2.696l.048-.045-4.792-2.157 1.281 1.843 3.51 1.572c0-.225.096-.494.048-.584-.142-.225-.19-.45-.095-.63zm-.807 2.516l1.044.45.19-.405a1.881 1.881 0 01-.427-.988l-3.131-1.438.996 1.438c.38-.27.901-.405 1.376-.36l-.238.809.19.494z" fill="#03A06C"/><path d="M46.956 60.878l-.474.494.521-1.437s-1.613.134-.996 1.482l.095.225c.19.404.522.719.901.898l.285.135c.332.135.475-.045.285-.404l-.617-1.393zm7.354.359l-.426.135c-.19.225-.38.405-.617.584l.57.225.474-.944zm-4.364-1.167l.807-1.708-.285-.135-1.518 3.19-.142-.18-.664 1.303 1.186.54.664-1.303c-.19-.584-.237-1.169-.048-1.708zm4.507-1.034l-.285-.09a.643.643 0 00-.806.27l-.854 1.797.759.135-.902.224-.38.72a1.656 1.656 0 001.566-.854c.143-.225.522-.09.617-.27l.57-1.213c.142-.27 0-.584-.285-.719zm-1.945 1.303l-.332-.18-.142.315c-.095.18-.238 0-.57.629l.522.27.522-1.034z" fill="#03A06C"/><path d="M50.23 62.226l2.895 1.303.521-1.034-.759-.359c-.284.045-.522.135-.806.135h-.475l.19-.45.095-.18-.57-.269c-.331.36-.71.63-1.09.854zM30.683 50.544L24.28 47.67l1.28 1.842 4.318 1.932c.38-.18.759-.315 1.138-.494l-.332-.405zm-4.079 2.336c.238-.09.427-.18.665-.269l-4.745-6.919-1.992-.899 5.266 7.728.806.36zM42.45 14.916a3.143 3.143 0 00-2.467.359c-.901.719-2.182.809-3.179.315-.569.898-1.803 2.021-2.894 2.201 1.044.315 2.467.225 3.796-1.213-.807.899-1.329 1.752-1.186 2.696a5.23 5.23 0 011.85-1.618c.19-.27.474-.494.759-.629-1.281 1.528-1.044 2.876-.854 3.325a4.989 4.989 0 012.087-2.291c1.092-.495.522-2.202 2.088-3.145zm-.76.224c-.663.854-1.185.494-1.422.36.38-.27.9-.36 1.423-.36zM30.304 51.758l-.047-.135a98.494 98.494 0 01-5.03 2.156c1.661-.629 3.37-1.303 5.124-1.977l-.047-.044zm-.854-.135l-3.51-1.573 1.28 1.842.807.36c.474-.18.949-.405 1.423-.63zM14.128 46.41l-3.321-1.527-.285.584 3.321 1.483.285-.54zm3.32-3.01l-1.139-.538-2.23 4.403 1.139.494 2.23-4.358zm36.482-7.413c-.759.135-1.518.18-2.277.18-.901 0-1.803-.09-2.704-.225l.142.225-.474.09c-.57.135-1.186.18-1.803.18-.19 0-.427 0-.617-.045 3.226 1.482 6.357 2.021 10.01.988-.284-.629-1.138-1.033-2.277-1.393zm1.234 3.28C47.05 43.356 39.888 47.175 32.629 50.5l.142.27.048.09A568.303 568.303 0 0055.97 40.75c-.237-.494-.521-1.078-.806-1.482zM13.367 21.475c3.274 1.393 6.405 2.112 6.832 5.436-1.376-4.313-5.503-3.639-9.773-6.424.143 1.617 1.376 2.695 3.226 3.414 2.372.764 4.697 1.438 5.646 3.73-2.562-3.46-6.5-2.427-9.583-4.718.616 2.022 2.466 3.55 4.649 3.819 2.04.494 3.131.809 4.175 2.246-2.183-2.156-5.456-1.527-8.398-2.696 1.756 3.775 5.978 2.561 8.445 4.179-2.135-.944-5.029-.494-6.831-.988.9 1.303 2.324 1.976 3.985 2.336.901-.494 1.897-.584 2.941-.63.427-.044.901-.044 1.328-.089-1.233-1.258-.996-3.415 1.139-3.325.237-7.099-6.737-6.65-9.44-9.704-.19 1.931.758 2.92 1.66 3.414zm32.688-8.851a1.287 1.287 0 01.38-1.438c-.048-.27-.096-.584-.19-.853l-.095-.045c-1.566.224-1.756 2.201-.95 3.235.333-.27.617-.54.855-.899zm1.755.944a4.144 4.144 0 01-.853.943c2.23.54 3.653-.988 5.218-.36l.332-1.033c-1.423-.853-3.32.45-4.697.45zm8.208 19.769c-1.945.898-4.127 1.302-6.31 1.257-.711 0-1.47-.044-2.182-.134.474.27.901.674 1.186 1.123 3.795.674 7.211.045 8.872-1.662-.475-.27-.997-.45-1.566-.584zM12.371 41.11l-1.186-.54-2.182 4.403 1.139.495 2.23-4.359zm16.842-27.452l.854-.405-.38.809c-.284.584-.711 1.078-1.233 1.393 2.087-1.079 3.416-2.966 3.51-5.886-.521.045-1.09.09-1.612.18 0 1.887-.712 3.234-1.898 4.088.237 0 .522-.09.76-.18z" fill="#03A06C"/><path d="M29.877 11.052a5.3 5.3 0 00.142-1.213c-.521.09-.996.314-1.375.629.332.314.759.494 1.233.584z" fill="#03A06C"/><path d="M32.486 7.996c-2.182 0-3.985.54-3.985 1.168v.989c.664-.584 2.325-.899 3.985-.899 1.092 0 2.135.135 2.942.36a.725.725 0 00-.427.18c0 .404.047.808.142 1.213.38.224.854.134 1.091-.225.19-.27.143-.584 0-.809.095.045.19.09.237.18v-.989c-.047-.629-1.802-1.168-3.985-1.168zM24.563 18.06c.95.495 1.708 1.304 2.088 2.292.19-.404.427-1.797-.854-3.325.285.18.57.36.759.63.759.359 1.376.943 1.85 1.617.143-.899-.332-1.797-1.186-2.696 1.329 1.438 2.752 1.528 3.796 1.213-1.092-.18-2.278-1.303-2.894-2.201a2.924 2.924 0 01-3.18-.315 3.172 3.172 0 00-2.466-.36c1.566.944 1.044 2.651 2.087 3.146zm.19-2.56c-.237.134-.759.539-1.423-.36.474 0 .996.09 1.423.36zM8.102 44.344l.664.315.285-.54-.854-.404c-.143-.045-.238-.135-.332-.27-.048.045-.048.045-.048.09-.19.315-.047.674.285.81z" fill="#03A06C"/><path d="M34.669 9.794c-.522-.09-1.091-.18-1.613-.18.142 2.92 1.423 4.807 3.51 5.886-.569-.36-.996-.81-1.233-1.393l-.38-.809.854.405c.237.09.522.18.807.224-1.281-.899-1.945-2.246-1.945-4.133zM4.781 29.338c3.131 4.538 8.207 5.436 13.474 4.762h-.095c-1.234-.045-2.467-.18-3.653-.449l-.475-.09.237-.36c.095-.18.238-.314.332-.449-3.368-.09-6.546-1.392-8.871-3.684-.332.09-.712.18-.949.27zm18.169-.315c.19.09.428.135.665.18.237-.27.427-.54.617-.809.616-.943 1.375-2.111 3.32-2.516-.047-.045-.047-.135-.094-.18-.285.09-.57.18-.854.18h-.285l-.332-.045c-2.04.899-1.945 2.786-3.036 3.19zM7.437 42.367l.332.135c.475 0 .854-.36.854-.809a.7.7 0 00-.142-.404l-.427-.18c-.38-.18-.807 0-.996.36-.143.314 0 .718.38.898z" fill="#03A06C"/><path d="M14.553 33.381c2.941.584 6.404.899 7.4-1.348-.331 1.303-1.423 1.798-2.751 2.157-1.186.18-2.23.809-2.847 1.797 2.183.405 4.46.135 5.551-1.572a8.935 8.935 0 011.708-3.64c-.332 0-.712-.09-1.044-.18-3.13 1.843-5.882-.269-8.017 2.786zm9.347-2.92a8.354 8.354 0 011.755-1.617V27.36h1.186c.237-.405.57-.809.901-1.168-.047-.045-.047-.09-.095-.09-3.368.674-2.941 3.64-5.123 4.043a2.93 2.93 0 001.375.315zm.806-21.027h.57l-.095-.36.38.09V8.67l-.38.09.095-.36h-.57l.095.36-.38-.09v.495l.38-.09-.095.36zm.284.27c-.19 0-.379.134-.379.36 0 .224.142.358.38.358.237 0 .38-.134.38-.359-.048-.18-.19-.36-.38-.36zm-.568 3.19h1.139c0-.989.142-1.887.806-2.382l-.854.27-.142-.225c-.095.09-.237.09-.38.135-.142 0-.236-.045-.379-.135l-.142.225-.854-.27c.664.495.806 1.438.806 2.382zm3.748-6.83v-.359l-.38-.18v.405l.38.134z" fill="#03A06C"/><path d="M28.36 8.715c.569-.674 2.371-1.033 4.127-1.033 1.755 0 3.558.36 4.127 1.033.76-.584 2.989-2.516 1.85-4.178a1.865 1.865 0 00-.711-.629c-1.281.09-2.657.719-2.942 2.246l-.047.18-.142-.045a1.594 1.594 0 00-1.281.135c-.095.314-.143.54-.19.674-.095.27-.38.45-.664.45-.332 0-.57-.18-.665-.45-.047-.09-.094-.36-.19-.63a1.594 1.594 0 00-1.28-.134l-.19.045-.047-.18c-.285-1.527-1.66-2.156-2.942-2.246a1.87 1.87 0 00-.711.629c-1.092 1.617 1.09 3.55 1.897 4.133zm8.112-2.65V5.48l.19-.09.38-.18.474-.224v1.079l-.19.09-.38.18-.474.224v-.494zm.142 1.482c.142 0 .237.09.237.225s-.095.225-.237.225-.237-.09-.237-.225.095-.225.237-.225zm-1.186-.494c.142 0 .237.09.237.225 0 .134-.095.224-.237.224s-.237-.09-.237-.224c0-.135.095-.225.237-.225zm-1.28-.27c.141 0 .236.09.236.225s-.095.225-.237.225-.237-.09-.237-.225.095-.225.237-.225zm-3.322 0c.143 0 .237.09.237.225s-.094.225-.237.225c-.142 0-.237-.09-.237-.225s.095-.225.237-.225zm-1.28.27c.142.045.142.225.094.36 0 .044-.047.09-.095.134-.142 0-.237-.09-.237-.224 0-.135.142-.27.237-.27zm-.95.719c0 .135-.094.225-.237.225-.142 0-.237-.09-.237-.225s.095-.225.237-.225c.143 0 .237.09.237.225zM27.459 5.93v-.9l.474.225.38.18.19.09v1.078l-.475-.225-.38-.18-.19-.09v-.18zm-4.271 7.098h.142c.285-.044.57-.044.854-.09 0-.853-.143-1.752-.712-2.2l-.332-.226c-.285 0-.522.135-.712.36-.664.854.285 1.752.76 2.156zm-4.27-.404c.238.315.522.63.854.854.807-1.034.617-2.966-.948-3.235l-.048.09c-.095.27-.19.539-.19.853.427.36.57.944.332 1.438z" fill="#03A06C"/><path d="M19.441 15.185a2.98 2.98 0 011.755-.404c-1.945-1.034-3.463-2.561-2.704-4.493-.617.18-.901.27-1.328.36-.712 1.662.617 3.639 2.277 4.537zm-.617 1.168c1.993-.539 2.23.54 4.08.944a4.12 4.12 0 01-2.846-.225c.616.809 1.328 1.078 4.032 1.033-.948-.718-.474-2.291-1.85-3.055a5.896 5.896 0 00-1.992.09c-.665.135-1.234.584-1.424 1.213zm29.034-5.706a12.825 12.825 0 00-1.328-.36c.76 1.933-.76 3.505-2.704 4.494.617-.045 1.233.135 1.755.404 1.613-.899 2.942-2.875 2.277-4.538zM37.23 5.525l-.426.18v.36l.38-.135.047-.405z" fill="#03A06C"/><path d="M20.389 16.802c.522.09.427.36 1.233.405-.19-.18-.9-.674-1.233-.405zm-2.372-2.291a4.157 4.157 0 01-.854-.943c-1.424 0-3.274-1.303-4.744-.45l.332 1.034c1.613-.63 2.989.898 5.266.36zm23.625-1.527h.143c.474-.36 1.423-1.303.711-2.157-.142-.225-.427-.36-.711-.36l-.285.27c-.57.45-.664 1.348-.712 2.202.285 0 .57.045.854.045z" fill="#03A06C"/><path d="M40.362 10.512c-.095.09-.238.09-.38.135-.142 0-.237-.045-.38-.135l-.142.225-.854-.27c.617.495.807 1.438.807 2.382h1.138c0-.989.143-1.887.807-2.382l-.854.27-.142-.225zm0-.449c0-.18-.142-.314-.332-.314-.19 0-.38.134-.332.36 0 .179.142.314.38.314.237 0 .284-.18.284-.36zm4.174 6.739c-.332-.269-1.043.225-1.233.405.806-.045.712-.315 1.233-.405zM30.4 5.93c.38-.09.759-.045 1.09.09a6.074 6.074 0 00-.568-1.258c-.475-.72-1.898-1.303-3.132-1.079 1.281.225 2.277 1.079 2.61 2.247z" fill="#03A06C"/><path d="M40.836 18.105c2.704.045 3.416-.18 3.985-1.033a4.15 4.15 0 01-2.846.225c1.85-.405 2.087-1.483 4.08-.944a1.814 1.814 0 00-1.424-1.258 5.95 5.95 0 00-1.992-.09c-1.329.809-.807 2.382-1.803 3.1zm-1.138-8.671h.57l-.096-.36.38.09V8.67l-.38.09.095-.36h-.569l.095.36-.38-.09v.495l.38-.09-.095.36zM32.06 6.828c0 .225.189.405.426.405s.38-.18.38-.405c0-.224-.19-.36-.38-.36-.237 0-.427.136-.427.36zm2.467-.898a3.144 3.144 0 012.562-2.247c-1.186-.224-2.657.315-3.131 1.078a6.074 6.074 0 00-.57 1.259c.428-.135.76-.135 1.14-.09zm-2.563.404c.143-.135.332-.18.522-.18s.38.09.522.18c.142-.629.427-1.213.759-1.752l.047-.045a.7.7 0 00-.38-.494c-.189.359-.52.584-.948.584-.427 0-.806-.225-.949-.584-.19.09-.284.27-.38.449.048.045.048.09.096.135.332.494.569 1.078.711 1.707zm.001-3.729h.902l-.237-.719.759.27v-.854l-.76.27.238-.72h-.902l.285.72-.759-.27v.854l.76-.27-.286.719z" fill="#03A06C"/><path d="M32.44 2.92c-.38 0-.712.314-.712.673 0 .36.332.674.711.674.38 0 .712-.314.712-.674 0-.36-.332-.674-.712-.674zm-5.172 17.971s.522 2.336-.19 3.55c-.758 1.213 2.325-1.034 2.325-1.034l.807.764 1.566-1.528h1.85l1.233 1.797.807-.988 2.751 1.752s-.901-2.156-.854-2.92c.048-.764-.332-2.561-.332-2.561l-.854.764-.854-1.348-1.423-.36-.57 1.079-.853.584h-.427l-1.328-1.707h-1.329s-.901 1.572-.854 1.527c.048-.045-1.044-.764-1.044-.764l-.427 1.393zm-13.994.539s1.28.854 0 .54c-1.281-.315.569 1.976.569 1.976s1.803.854.38.72c-1.376-.136-.095 1.976-.095 1.976s1.613.584.047.494c-1.566-.09.664 2.202.664 2.202s1.423.539.095.45c-1.328-.09 2.467.763 2.467.763h1.376v-1.752l1.85-1.618-1.945-4.358-5.408-1.393zm5.265 12.356s1.613-.09.854.314c-.76.405.996 1.618.996 1.618s1.186-.54.664.09c-.522.629.76-.45.76-.45l.141-.988.38-2.876-3.795 2.292zM4.924 14.376s.57.81 1.091.854c.522 0 .712 2.786.712 2.786s-.76-.72-.238.224-1.09 1.753-1.09 1.753-1.661-2.067-2.42-3.46c-.76-1.393.57-1.977.57-1.977l1.375-.18zm-.665 7.594s1.138 1.527.047.583c-1.091-.943.996 3.325.996 3.325s1.139 1.258.19.63c-.949-.63 1.281 2.965 1.281 2.965.142.18 1.66 1.303.19.539-1.281-.63 3.463 2.65 3.795 2.38l3.843.405.57-.629-2.61-.719-.522-1.258-.522-.629-1.613-1.527.475-.54-.048-.404-.427-.764L4.26 21.97zm7.733 13.837s2.087.18.948.36c-1.138.18 1.376 1.617 1.376 1.617s1.755-.27.76.18c-.997.45.9 1.932.9 1.932s1.471-.54.38.18c-1.091.719 2.277 1.213 2.277 1.213s1.091-.63.475.045c-.617.674 1.992 1.213 1.992 1.213s.807-1.213.57-.18c-.238 1.034 2.04 1.213 2.04 1.213s.616-.764.427-.045c-.19.72.474-.763.474-.763l-.57-.585-1.185-1.707-.285-.584-.38-.854-.237-.853-.142-.63-1.898.09-.332.36-.332.315s-.285.943-.332-.135c0-1.123.142-1.393.142-1.393l.712-.54s-1.091.18-1.281.18c-.19 0-2.657-.224-2.657-.224l.143-.225.237-.36-3.558-.224-.665.404zM51.749 21.43s-1.281.854 0 .54c1.28-.315-.57 1.976-.57 1.976s-1.755.854-.38.72c1.377-.136.096 1.976.096 1.976s-1.613.584-.048.494c1.566-.09-.664 2.202-.664 2.202s-1.423.539-.095.45c1.329-.09-2.467.763-2.467.763h-1.376v-1.752l-1.85-1.618 1.945-4.358 5.409-1.393zm-5.266 12.356s-1.613-.09-.854.314c.76.405-.996 1.618-.996 1.618s-1.186-.54-.664.09c.474.629-.76-.45-.76-.45l-.142-.988-.38-2.876 3.796 2.292zm13.616-19.41s-.57.81-1.092.854c-.521 0-.711 2.786-.711 2.786s.759-.72.237.224 1.091 1.753 1.091 1.753S61 18.78 61.094 18.69c.096-.09 1.14-1.843 1.14-1.843s-.997 1.124-.19-.314c.806-1.393-.57-1.977-.57-1.977l-1.375-.18zm.664 7.594s-1.139 1.527-.048.583c1.091-.943-.996 3.325-.996 3.325s-1.139 1.258-.19.63c.95-.63-1.28 2.965-1.28 2.965-.143.18-1.661 1.303-.19.539 1.28-.63-3.464 2.65-3.796 2.38l-3.843.405-.569-.629 2.61-.719.521-1.258.522-.629 1.613-1.527-.474-.54.047-.404.427-.764 5.646-4.358zm-7.734 13.837s-2.088.18-.949.36c1.139.18-1.376 1.617-1.376 1.617s-1.755-.27-.759.18c.996.45-.901 1.932-.901 1.932s-1.47-.54-.38.18c1.091.719-2.277 1.213-2.277 1.213s-1.091-.63-.474.045c.616.674-1.993 1.213-1.993 1.213s-.806-1.213-.57-.18c.238 1.034-2.04 1.213-2.04 1.213s-.616-.764-.426-.045c.19.72-.475-.763-.475-.763l.57-.585 1.186-1.707.284-.584.38-.944.237-.853.095-.584 1.898.09.332.36.332.314s.285.943.332-.135c.047-1.078-.142-1.348-.142-1.348l-.712-.54s1.091.18 1.281.18c.19 0 2.657-.224 2.657-.224l-.143-.225-.237-.36 3.558-.224.712.404z" fill="#03A06C"/></svg>