<svg width="91" height="63" fill="none" xmlns="http://www.w3.org/2000/svg"><path d="M81.778 36.525a1.23 1.23 0 00-1.197-.946c-1.675 0-4.681-.834-7.224-1.939V28.3a3.695 3.695 0 00-3.69-3.69h-2.462V2.46A2.464 2.464 0 0064.745 0H27.83a2.464 2.464 0 00-2.46 2.46v14.767h-3.692a2.464 2.464 0 00-2.46 2.46V55.37a3.695 3.695 0 003.69 3.692h39.967c1.447 1.337 3.163 2.614 5.196 3.775a1.229 1.229 0 001.22 0c8.516-4.861 11.463-11.749 12.436-16.671 1.051-5.32.092-9.467.05-9.641zM27.831 2.461h36.913v22.148H43.43l-2.063-5.156c-.54-1.352-1.79-2.226-3.184-2.226H27.83V2.46zM21.68 55.37v-1.23h6.398a1.23 1.23 0 100-2.461H21.68V19.688h16.503c.434 0 .765.34.9.68l2.372 5.929c.187.467.64.773 1.143.773h27.07c.678 0 1.23.552 1.23 1.23v4.08c-.546-.338-1.01-.68-1.35-1.017a1.23 1.23 0 00-1.73 0c-2.018 1.995-8.3 4.216-11.034 4.216a1.23 1.23 0 00-1.197.946c-.041.174-1 4.32.05 9.64a23.56 23.56 0 004.915 10.436H22.91c-.679 0-1.23-.552-1.23-1.23zm57.634-9.682c-1.228 6.214-4.803 11.14-10.63 14.653-5.797-3.494-9.365-8.387-10.613-14.556a23.57 23.57 0 01-.244-7.81c3.175-.358 8.189-2.15 10.856-4.131 2.668 1.981 7.684 3.774 10.858 4.131.201 1.389.45 4.285-.227 7.713z" fill="#03A06C"/><path d="M32.323 7.383h27.93a1.23 1.23 0 000-2.461h-27.93a1.23 1.23 0 100 2.46zm29.161 3.691c0-.68-.551-1.23-1.23-1.23H32.322a1.23 1.23 0 100 2.46h27.93c.68 0 1.23-.55 1.23-1.23zm-1.231 3.691H46.288a1.23 1.23 0 100 2.461h13.965a1.23 1.23 0 100-2.46zm.001 4.922h-7.26a1.23 1.23 0 100 2.461h7.26a1.23 1.23 0 000-2.46zm13.024 20.622c-.986 0-1.913.384-2.61 1.081l-3.396 3.396-.577-.577a3.667 3.667 0 00-2.61-1.081c-.986 0-1.913.384-2.61 1.081a3.667 3.667 0 00-1.08 2.61c0 .986.383 1.913 1.08 2.61l3.187 3.187a3.68 3.68 0 002.61 1.08c.945 0 1.89-.36 2.61-1.08l6.006-6.006a3.695 3.695 0 000-5.22 3.666 3.666 0 00-2.61-1.081zm.87 4.56l-6.006 6.007c-.48.48-1.26.48-1.74 0l-3.186-3.187a1.222 1.222 0 01-.36-.87c0-.329.127-.638.36-.87.232-.232.54-.36.87-.36.328 0 .637.128.87.36l1.446 1.447a1.23 1.23 0 001.74 0l4.266-4.266c.233-.232.542-.36.87-.36a1.231 1.231 0 01.87 2.1zm-40.534 6.81a1.23 1.23 0 100 2.46 1.23 1.23 0 100-2.46z" fill="#03A06C"/><g filter="url(#filter0_d)"><rect x="11.102" y="27.724" width="66.728" height="16.481" rx="1.1" transform="rotate(-15 11.102 27.724)" fill="#fff" stroke="#03A06C" stroke-width="1.8"/><path d="M22.705 36.175l-1.479-5.517 4.366-1.17 1.479 5.517-1.167.313-1.218-4.544-2.032.545 1.218 4.543-1.167.313zm10.024-5.65c.153.571.191 1.096.115 1.575-.072.472-.27.878-.592 1.219-.323.34-.786.591-1.389.753-.597.16-1.124.174-1.579.042a2.257 2.257 0 01-1.132-.765c-.3-.378-.527-.853-.68-1.424-.153-.572-.194-1.094-.122-1.566.078-.474.279-.878.603-1.214.328-.342.793-.593 1.396-.755.598-.16 1.121-.173 1.571-.04.449.128.823.382 1.123.76.304.37.532.842.686 1.414zm-4.026 1.078c.154.577.387 1.003.698 1.279.31.27.71.34 1.2.209.499-.134.813-.395.94-.783.128-.393.113-.878-.041-1.454-.156-.583-.386-1.01-.691-1.281-.305-.272-.704-.342-1.199-.21-.495.133-.808.394-.942.783-.133.39-.121.875.035 1.457zm7.916-5.07l.26.966-2.319.621 1.22 4.552-1.167.312-1.479-5.517 3.485-.934zm5.159 4.532l-.754-1.206-2.01.538-.049 1.421-1.26.338.463-6.063 1.43-.383 3.44 5.017-1.26.338zm-2.04-3.288l-.19-.306a43.65 43.65 0 01-.234-.376 9.303 9.303 0 01-.197-.336 9 9 0 01-.005.415c-.001.16-.004.316-.008.466 0 .143-.003.246-.008.308l-.05 1.389 1.437-.385-.746-1.175zm10.937.903l-6.939 1.86-1.478-5.518 1.167-.312 1.217 4.543 1.716-.46-1.218-4.543 1.175-.315 1.217 4.544 1.716-.46-1.218-4.543 1.167-.313 1.478 5.517zm4.568-1.224l-3.176.852-1.478-5.518 3.176-.85.257.957-2.01.539.326 1.213 1.87-.501.256.958-1.87.501.381 1.422 2.01-.538.258.965zm5.669-1.518l-1.167.312-.638-2.38-2.187.586.638 2.38-1.167.313-1.478-5.518 1.167-.312.58 2.164 2.186-.586-.58-2.164 1.168-.313 1.478 5.518zm5.654-4.48c.153.571.192 1.097.116 1.575a2.22 2.22 0 01-.593 1.22c-.323.34-.785.59-1.388.752-.598.16-1.124.174-1.58.042a2.258 2.258 0 01-1.132-.765c-.3-.378-.526-.852-.68-1.424-.153-.572-.193-1.094-.121-1.566.077-.474.278-.878.602-1.214.329-.341.794-.593 1.397-.755.597-.16 1.121-.173 1.57-.04.45.129.824.382 1.124.76.303.371.532.843.685 1.415zm-4.026 1.078c.155.577.388 1.003.699 1.279.31.27.71.34 1.199.209.5-.134.813-.395.941-.783.127-.392.113-.877-.041-1.454-.156-.582-.387-1.01-.691-1.281-.305-.272-.705-.341-1.2-.209-.494.133-.808.393-.941.782-.133.39-.122.875.034 1.457z" fill="#03A06C"/></g><defs><filter id="filter0_d" x=".449" y=".8" width="90.027" height="54.497" filterUnits="userSpaceOnUse" color-interpolation-filters="sRGB"><feFlood flood-opacity="0" result="BackgroundImageFix"/><feColorMatrix in="SourceAlpha" values="0 0 0 0 0 0 0 0 0 0 0 0 0 0 0 0 0 0 127 0"/><feOffset dy="1"/><feGaussianBlur stdDeviation="5"/><feColorMatrix values="0 0 0 0 0 0 0 0 0 0 0 0 0 0 0 0 0 0 0.1 0"/><feBlend in2="BackgroundImageFix" result="effect1_dropShadow"/><feBlend in="SourceGraphic" in2="effect1_dropShadow" result="shape"/></filter></defs></svg>