<svg width="63" height="63" fill="none" xmlns="http://www.w3.org/2000/svg"><path d="M16.232 58.793h-3.098a1.22 1.22 0 000 2.439h3.098a1.22 1.22 0 000-2.44zm7.634 0h-3.098a1.22 1.22 0 000 2.439h3.098a1.22 1.22 0 000-2.44zm7.634 0h-3.098a1.22 1.22 0 000 2.439H31.5a1.22 1.22 0 000-2.44zm7.634 0h-3.097a1.22 1.22 0 100 2.439h3.097a1.22 1.22 0 000-2.44zm7.658 0h-3.097a1.22 1.22 0 000 2.439h3.097a1.22 1.22 0 000-2.44z" fill="#03A06C"/><path d="M60.207 1.768H2.793A2.805 2.805 0 000 4.561v10.902a2.805 2.805 0 002.793 2.793h5.28v41.756a1.22 1.22 0 002.44 0V14.061a2.878 2.878 0 012.877-2.878h37.086a5.291 5.291 0 00-.854 2.878l-.073 45.951a1.22 1.22 0 002.439 0l.073-41.744h8.146A2.805 2.805 0 0063 15.476V4.56a2.805 2.805 0 00-2.793-2.793zm.354 2.793v10.915a.354.354 0 01-.354.353h-8.146v-1.768a2.878 2.878 0 012.878-2.878h1.22a1.22 1.22 0 000-2.44H6.536a1.22 1.22 0 000 2.44h2.439a5.269 5.269 0 00-.866 2.878v1.768H2.793a.354.354 0 01-.354-.353V4.56c0-.195.158-.354.354-.354h57.414c.196 0 .354.159.354.354z" fill="#03A06C"/><path d="M30.756 22.354H17.05a1.22 1.22 0 000 2.439h13.707a1.22 1.22 0 000-2.44zm12.505 0H38.8c-.442 0-.8.546-.8 1.22 0 .673.358 1.219.8 1.219h4.461c.442 0 .8-.546.8-1.22 0-.673-.358-1.22-.8-1.22zm-17.105 7.109h-9.483c-.466 0-.844.546-.844 1.22 0 .673.378 1.22.844 1.22h9.483c.466 0 .844-.547.844-1.22 0-.674-.378-1.22-.844-1.22zm17.105 0H38.8c-.442 0-.8.546-.8 1.22 0 .673.358 1.22.8 1.22h4.461c.442 0 .8-.547.8-1.22 0-.674-.358-1.22-.8-1.22zm-12.505 7.122H17.049a1.22 1.22 0 000 2.44h13.707a1.22 1.22 0 000-2.44zM39.93 44H16.9c-.592 0-1.07.546-1.07 1.22 0 .673.478 1.219 1.07 1.219h23.03c.59 0 1.07-.546 1.07-1.22 0-.673-.48-1.219-1.07-1.219zm-8 7H16.9c-.592 0-1.07.546-1.07 1.22 0 .673.478 1.219 1.07 1.219h15.03c.59 0 1.07-.546 1.07-1.22 0-.673-.48-1.219-1.07-1.219zm11.331-14.415H38.8c-.442 0-.8.546-.8 1.22 0 .673.358 1.22.8 1.22h4.461c.442 0 .8-.547.8-1.22 0-.674-.358-1.22-.8-1.22z" fill="#03A06C"/></svg>