<svg width="64" height="52" fill="none" xmlns="http://www.w3.org/2000/svg"><path d="M35.287 49.439c-.27 0-.484.096-.639.288-.155.192-.233.457-.233.795 0 .354.075.622.223.803.15.182.367.272.65.272.122 0 .24-.011.355-.035.114-.025.233-.057.357-.095v.405a2.165 2.165 0 01-.77.128c-.422 0-.746-.128-.973-.383-.226-.256-.34-.623-.34-1.099 0-.3.055-.562.165-.787.11-.225.27-.398.477-.517.208-.12.452-.18.732-.18.295 0 .567.062.817.185l-.17.393a2.415 2.415 0 00-.31-.12 1.084 1.084 0 00-.34-.053zm3.896 1.075c0 .47-.118.835-.353 1.095s-.567.391-.997.391c-.435 0-.77-.129-1.005-.387-.232-.259-.349-.627-.349-1.103s.117-.842.352-1.097.57-.383 1.006-.383c.429 0 .76.13.994.389.235.259.352.624.352 1.095zm-2.203 0c0 .355.072.625.216.81.143.182.355.273.637.273.28 0 .491-.09.633-.272.144-.181.215-.452.215-.811 0-.354-.07-.622-.213-.805-.14-.183-.35-.274-.631-.274-.283 0-.497.091-.641.274-.144.183-.215.451-.215.805zm4.07 1.446l-.837-2.409h-.016c.022.358.034.693.034 1.006v1.404h-.429v-2.886h.665l.802 2.295h.011l.825-2.294h.667v2.885h-.454v-1.427a20.405 20.405 0 01.03-.979h-.016l-.866 2.406h-.416zm4.392-2.012c0 .301-.098.532-.296.692-.197.16-.478.241-.842.241h-.3v1.08h-.472v-2.886h.83c.361 0 .631.074.81.221.18.148.27.365.27.652zm-1.438.536h.25c.242 0 .42-.042.533-.126.113-.084.17-.216.17-.394 0-.166-.05-.29-.152-.371-.102-.082-.26-.123-.474-.123h-.327v1.014zm2.015 1.476v-2.885h.471v2.481h1.222v.405h-1.694zm2.19 0v-2.885h.471v2.886h-.471zm3.025 0l-.288-.8h-1.103l-.282.8h-.498l1.08-2.896h.513l1.08 2.897h-.502zm-.412-1.207l-.27-.786a5.222 5.222 0 01-.155-.497 4.418 4.418 0 01-.156.531l-.26.752h.84zm3.698 1.207h-.579l-1.418-2.298h-.016l.01.128c.018.245.027.468.027.67v1.5h-.428v-2.885h.572l1.415 2.288h.012a13.198 13.198 0 01-.027-.776v-1.512h.432v2.886zm1.758 0h-.472v-2.48h-.848v-.404h2.169v.404h-.85v2.48zm-14.317-9.9c0 1.445-.398 2.558-1.196 3.34-.793.781-1.91 1.172-3.35 1.172h-2.8v-8.655h2.995c1.39 0 2.46.355 3.215 1.065.757.71 1.136 1.737 1.136 3.079zm-2.427.084c0-.794-.158-1.382-.474-1.764-.311-.383-.787-.575-1.426-.575h-.681v4.849h.52c.711 0 1.232-.205 1.564-.616.331-.414.497-1.046.497-1.894zm9.644 1.799c0 .537-.136 1.015-.409 1.433-.272.415-.665.738-1.178.971-.513.229-1.115.343-1.805.343-.577 0-1.06-.04-1.45-.118a5.494 5.494 0 01-1.22-.426v-2.084c.446.229.91.408 1.39.539.482.126.924.189 1.327.189.347 0 .602-.06.764-.178a.563.563 0 00.242-.467.489.489 0 00-.1-.308 1.055 1.055 0 00-.314-.273c-.142-.09-.525-.276-1.148-.556-.565-.257-.99-.505-1.273-.746a2.33 2.33 0 01-.628-.829c-.134-.312-.201-.68-.201-1.107 0-.797.29-1.419.87-1.865.58-.445 1.377-.669 2.392-.669.896 0 1.81.208 2.74.622l-.715 1.806c-.81-.371-1.508-.557-2.096-.557-.304 0-.525.054-.663.16a.484.484 0 00-.208.397c0 .17.087.321.261.456.178.134.655.378 1.433.734.746.335 1.263.696 1.55 1.083.293.383.439.866.439 1.45zm6.997 0a2.57 2.57 0 01-.408 1.433c-.273.415-.665.738-1.178.971-.513.229-1.115.343-1.806.343-.576 0-1.06-.04-1.45-.118a5.494 5.494 0 01-1.22-.426v-2.084c.446.229.91.408 1.391.539.482.126.924.189 1.327.189.347 0 .601-.06.763-.178a.563.563 0 00.243-.467.489.489 0 00-.1-.308 1.055 1.055 0 00-.315-.273c-.142-.09-.524-.276-1.148-.556-.564-.257-.989-.505-1.273-.746-.28-.24-.49-.517-.627-.829-.135-.312-.202-.68-.202-1.107 0-.797.29-1.419.87-1.865.58-.445 1.378-.669 2.392-.669.896 0 1.81.208 2.741.622l-.716 1.806c-.81-.371-1.508-.557-2.096-.557-.304 0-.525.054-.663.16a.484.484 0 00-.207.397c0 .17.087.321.26.456.178.134.656.378 1.433.734.746.335 1.263.696 1.551 1.083.292.383.438.866.438 1.45z" fill="#03A06C"/><path fill-rule="evenodd" clip-rule="evenodd" d="M57.451 24.634l-3.253 1.034c.645-1.165 1.416-2.427 2.2-3.402l1.053 2.368zM46.71.486l6.38 14.343a437.946 437.946 0 00-4.934 6.997V12.31h-5.793v12.761c-.8-.547-1.642-.932-2.452-1.07v-.634c0-.05-.032-.066-.074-.04 0 0-.625.506-3.375.777-.78.089-1.15.047-1.431 0-3.9-.662-4.085-3.544-4.085-3.544a1.909 1.909 0 01-.01-.174V19.28c0-.048.005-.127.012-.174 0 0 .263-3.089 4.083-3.414h1.43c1.688.23 3.043 1.071 3.043 1.071.042.025.075.005.075-.043v-3.867a.162.162 0 00-.076-.13s-.76-.5-3.079-.64c-.124-.069-2.142-.079-2.702 0-8.424.682-8.737 6.832-8.737 7.113v1.494c0 .183 0 6.47 8.737 7.028.693.053 1.927.02 2.46.006l.242-.006h.038c.187 1.028.691 2.13 1.39 3.148l-24.91 7.921L0 3.163 46.709.486zM48.8 7.48c0 1.86-1.585 3.369-3.54 3.369s-3.54-1.508-3.54-3.37c0-1.86 1.585-3.368 3.54-3.368S48.8 5.619 48.8 7.48zM9.003 27.6a.087.087 0 01-.087-.088V12.39c0-.048.04-.088.089-.088 0 0 7.274.002 7.311 0 1.86-.088 7.512.44 7.512 5.254 0 6.101-9.008 5.444-9.008 5.444a.081.081 0 00-.087.082v4.43a.088.088 0 01-.087.088H9.003zm5.63-11.974v3.99l1.542.001s1.744-.08 2.003-1.701c.028-.038.037-.712 0-.82-.156-1.379-2.164-1.47-2.164-1.47h-1.381z" fill="#03A06C"/><path fill-rule="evenodd" clip-rule="evenodd" d="M45.419 34.941c.47 0 .831 0 1.427-.266 2.056-1.092 8.98-18.151 16.282-23.399a.664.664 0 00.139-.132c.048-.07.05-.14.05-.14s0-.352-1.083-.352c-6.501-.179-13.261 13.572-16.815 19.012-.044.06-.289 0-.289 0s-2.381-2.835-4.45-3.922a1.248 1.248 0 00-.523-.077c-.163 0-1.126.195-1.574.673-.53.564-.52.88-.514 1.567 0 .056.035.282.101.398.506.892 2.816 4.098 4.71 5.866.292.21.738.772 2.539.772z" fill="#03A06C"/></svg>