<svg width="7" height="12" viewBox="0 0 7 12" fill="none" xmlns="http://www.w3.org/2000/svg">
<path d="M1.47503 11.8333C1.59952 11.8338 1.72253 11.8063 1.83501 11.7529C1.9475 11.6996 2.04659 11.6217 2.12503 11.525L6.15003 6.525C6.27259 6.37589 6.3396 6.18885 6.3396 5.99583C6.3396 5.80281 6.27259 5.61577 6.15003 5.46666L1.98336 0.466663C1.84191 0.296482 1.63865 0.189462 1.4183 0.169145C1.19794 0.148829 0.978541 0.21688 0.80836 0.358329C0.63818 0.499778 0.53116 0.703038 0.510843 0.923393C0.490527 1.14375 0.558578 1.36315 0.700027 1.53333L4.42503 6L0.825027 10.4667C0.723125 10.589 0.658394 10.7379 0.638494 10.8959C0.618595 11.0538 0.644359 11.2142 0.712739 11.358C0.781118 11.5017 0.889252 11.6229 1.02434 11.7072C1.15944 11.7914 1.31583 11.8352 1.47503 11.8333Z" fill="#939393"/>
</svg>
