<svg width="30" height="30" fill="none" xmlns="http://www.w3.org/2000/svg"><path d="M29.924 25.706a1.172 1.172 0 10-2.294.478c.076.365-.015.74-.248 1.027a1.19 1.19 0 01-.938.445H3.557c-.5 0-.803-.279-.938-.445a1.224 1.224 0 01-.248-1.027C3.587 20.343 8.74 16.075 14.69 15.931a8.006 8.006 0 00.622 0 12.895 12.895 0 0110.412 5.723 1.172 1.172 0 001.946-1.305 15.243 15.243 0 00-7.899-6.001 7.962 7.962 0 003.198-6.38C22.97 3.576 19.394 0 15 0S7.032 3.575 7.032 7.969a7.962 7.962 0 003.2 6.381 15.228 15.228 0 00-4.91 2.7 15.289 15.289 0 00-5.246 8.656 3.559 3.559 0 00.725 2.983A3.538 3.538 0 003.557 30h22.887a3.537 3.537 0 002.756-1.31c.68-.838.945-1.925.724-2.984zM9.375 7.97A5.631 5.631 0 0115 2.344a5.631 5.631 0 015.625 5.625 5.632 5.632 0 01-5.34 5.618 15 15 0 00-.568 0 5.632 5.632 0 01-5.342-5.618z" fill="#03A06C"/></svg>